%TF.GenerationSoftware,KiCad,Pcbnew,8.0.4*%
%TF.CreationDate,2025-10-30T08:56:40-04:00*%
%TF.ProjectId,Official Schematic,4f666669-6369-4616-9c20-536368656d61,rev?*%
%TF.SameCoordinates,Original*%
%TF.FileFunction,Copper,L2,Bot*%
%TF.FilePolarity,Positive*%
%FSLAX46Y46*%
G04 Gerber Fmt 4.6, Leading zero omitted, Abs format (unit mm)*
G04 Created by KiCad (PCBNEW 8.0.4) date 2025-10-30 08:56:40*
%MOMM*%
%LPD*%
G01*
G04 APERTURE LIST*
G04 Aperture macros list*
%AMRoundRect*
0 Rectangle with rounded corners*
0 $1 Rounding radius*
0 $2 $3 $4 $5 $6 $7 $8 $9 X,Y pos of 4 corners*
0 Add a 4 corners polygon primitive as box body*
4,1,4,$2,$3,$4,$5,$6,$7,$8,$9,$2,$3,0*
0 Add four circle primitives for the rounded corners*
1,1,$1+$1,$2,$3*
1,1,$1+$1,$4,$5*
1,1,$1+$1,$6,$7*
1,1,$1+$1,$8,$9*
0 Add four rect primitives between the rounded corners*
20,1,$1+$1,$2,$3,$4,$5,0*
20,1,$1+$1,$4,$5,$6,$7,0*
20,1,$1+$1,$6,$7,$8,$9,0*
20,1,$1+$1,$8,$9,$2,$3,0*%
G04 Aperture macros list end*
%TA.AperFunction,ComponentPad*%
%ADD10RoundRect,0.250000X0.625000X-0.350000X0.625000X0.350000X-0.625000X0.350000X-0.625000X-0.350000X0*%
%TD*%
%TA.AperFunction,ComponentPad*%
%ADD11O,1.750000X1.200000*%
%TD*%
%TA.AperFunction,ComponentPad*%
%ADD12C,0.300000*%
%TD*%
%TA.AperFunction,ComponentPad*%
%ADD13O,1.350000X1.700000*%
%TD*%
%TA.AperFunction,ComponentPad*%
%ADD14O,1.100000X1.500000*%
%TD*%
%TA.AperFunction,ViaPad*%
%ADD15C,0.600000*%
%TD*%
%TA.AperFunction,Conductor*%
%ADD16C,0.200000*%
%TD*%
G04 APERTURE END LIST*
D10*
%TO.P,J4,1,Pin_1*%
%TO.N,+3.3V*%
X157300000Y-107800000D03*
D11*
%TO.P,J4,2,Pin_2*%
%TO.N,/SWDIO*%
X157300000Y-105800000D03*
%TO.P,J4,3,Pin_3*%
%TO.N,/SWCLK*%
X157300000Y-103800000D03*
%TO.P,J4,4,Pin_4*%
%TO.N,/SWO*%
X157300000Y-101800000D03*
%TO.P,J4,5,Pin_5*%
%TO.N,Net-(J4-Pin_5)*%
X157300000Y-99800000D03*
%TO.P,J4,6,Pin_6*%
%TO.N,GND*%
X157300000Y-97800000D03*
%TD*%
D12*
%TO.P,U1,12*%
%TO.N,GND*%
X129262005Y-105900000D03*
%TO.P,U1,13*%
X128312005Y-106475000D03*
%TO.P,U1,14*%
X128312005Y-105325000D03*
%TO.P,U1,15*%
X127362005Y-105900000D03*
%TD*%
D10*
%TO.P,J3,1,Pin_1*%
%TO.N,/Haptic Motor*%
X157286270Y-114900000D03*
D11*
%TO.P,J3,2,Pin_2*%
%TO.N,GND*%
X157286270Y-112900000D03*
%TD*%
D13*
%TO.P,J5,6,Shield*%
%TO.N,unconnected-(J5-Shield-Pad6)_3*%
X146933770Y-114992500D03*
D14*
%TO.N,unconnected-(J5-Shield-Pad6)_10*%
X147243770Y-111992500D03*
%TO.N,unconnected-(J5-Shield-Pad6)_8*%
X152083770Y-111992500D03*
D13*
%TO.N,unconnected-(J5-Shield-Pad6)_9*%
X152393770Y-114992500D03*
%TD*%
D15*
%TO.N,+3.3V*%
X129000000Y-87000000D03*
X128886270Y-83900000D03*
X150500000Y-89200000D03*
X126486270Y-103700000D03*
X148800000Y-89200000D03*
X128986270Y-89094145D03*
X127486270Y-89450000D03*
X126436270Y-106961020D03*
X141300000Y-87000000D03*
X126786270Y-91450000D03*
%TO.N,GND*%
X134693770Y-101200000D03*
X126800000Y-84700000D03*
X129700000Y-92200000D03*
X128300000Y-84700000D03*
X149598768Y-87025002D03*
X148648772Y-87433343D03*
X146393770Y-110492500D03*
X151600000Y-86625000D03*
X139700000Y-90500000D03*
X128286270Y-113000000D03*
X150893770Y-110492500D03*
X128610339Y-108750000D03*
X127561270Y-93200000D03*
X131012005Y-99650000D03*
X133790317Y-85809683D03*
%TO.N,Net-(U1-EN)*%
X131586270Y-107600000D03*
X131586270Y-104600000D03*
%TO.N,Net-(U3-CSB)*%
X155286270Y-89750000D03*
X141286270Y-89750000D03*
%TO.N,/Haptic Motor*%
X131236268Y-87500000D03*
%TO.N,/SWDIO*%
X136586270Y-97100000D03*
X133886270Y-94900000D03*
%TO.N,/SWCLK*%
X134386270Y-93500000D03*
X152400000Y-103900000D03*
X138486270Y-97700000D03*
X154250000Y-103850000D03*
%TO.N,Net-(U1-L2)*%
X130886270Y-102400000D03*
X130886270Y-111700000D03*
X127862005Y-108700000D03*
X127736270Y-111700000D03*
%TO.N,Net-(U1-L1)*%
X129886270Y-103100000D03*
X129386270Y-108750000D03*
%TO.N,/SPI2 MOSI*%
X146961270Y-84675000D03*
X135786270Y-86250000D03*
%TO.N,VBAT*%
X129886270Y-107400000D03*
X126486270Y-109900000D03*
%TO.N,Net-(U4-PB8)*%
X146886270Y-92200000D03*
X131536269Y-90099266D03*
%TO.N,Net-(U4-PB4)*%
X131536270Y-92900000D03*
X148886270Y-94300000D03*
%TO.N,/Switch*%
X141300000Y-90800000D03*
X145020953Y-90679047D03*
%TO.N,Net-(U3-SCX)*%
X141286270Y-88500000D03*
X149173770Y-85554187D03*
%TO.N,Net-(U3-INT1)*%
X135786270Y-84750000D03*
X140286270Y-84750000D03*
%TO.N,/SWO*%
X136800000Y-95100000D03*
X135300000Y-93500000D03*
%TD*%
D16*
%TO.N,+3.3V*%
X129211268Y-83575002D02*
X128886270Y-83900000D01*
X132333454Y-83575002D02*
X129211268Y-83575002D01*
X135658452Y-86900000D02*
X132333454Y-83575002D01*
X141300000Y-87000000D02*
X141200000Y-86900000D01*
X148800000Y-89200000D02*
X150500000Y-89200000D01*
X126436270Y-103750000D02*
X126486270Y-103700000D01*
X141200000Y-86900000D02*
X135658452Y-86900000D01*
X126786270Y-91450000D02*
X126886270Y-91350000D01*
X129000000Y-89080415D02*
X128986270Y-89094145D01*
X126886270Y-91350000D02*
X126886270Y-90050000D01*
X129000000Y-87000000D02*
X129000000Y-89080415D01*
X126436270Y-106961020D02*
X126436270Y-103750000D01*
X126886270Y-90050000D02*
X127486270Y-89450000D01*
%TO.N,GND*%
X134693770Y-101200000D02*
X133143770Y-99650000D01*
X133143770Y-99650000D02*
X131012005Y-99650000D01*
X148648772Y-87433343D02*
X146982115Y-89100000D01*
X129700000Y-92200000D02*
X129300000Y-92200000D01*
X149598768Y-87025002D02*
X149998770Y-86625000D01*
X146982115Y-89100000D02*
X139700000Y-89100000D01*
X135900000Y-88900000D02*
X136100000Y-89100000D01*
X136100000Y-89100000D02*
X139700000Y-89100000D01*
X128286270Y-109074069D02*
X128286270Y-113000000D01*
X139700000Y-90500000D02*
X139700000Y-89100000D01*
X146393770Y-110492500D02*
X150893770Y-110492500D01*
X128300000Y-93200000D02*
X127561270Y-93200000D01*
X129300000Y-92200000D02*
X128300000Y-93200000D01*
X133790317Y-85809683D02*
X135900000Y-87919366D01*
X128300000Y-84700000D02*
X126800000Y-84700000D01*
X149998770Y-86625000D02*
X151600000Y-86625000D01*
X128610339Y-108750000D02*
X128286270Y-109074069D01*
X135900000Y-87919366D02*
X135900000Y-88900000D01*
%TO.N,Net-(U1-EN)*%
X131586270Y-107600000D02*
X131586270Y-104600000D01*
%TO.N,Net-(U3-CSB)*%
X141286270Y-89750000D02*
X155286270Y-89750000D01*
%TO.N,/Haptic Motor*%
X130986269Y-89871448D02*
X130986269Y-95977817D01*
X130986269Y-95977817D02*
X142058452Y-107050000D01*
X142058452Y-107050000D02*
X149436270Y-107050000D01*
X131200000Y-87536268D02*
X131200000Y-89657717D01*
X131200000Y-89657717D02*
X130986269Y-89871448D01*
X149436270Y-107050000D02*
X157286270Y-114900000D01*
X131236268Y-87500000D02*
X131200000Y-87536268D01*
%TO.N,/SWDIO*%
X136086270Y-97100000D02*
X133886270Y-94900000D01*
X136586270Y-97100000D02*
X136086270Y-97100000D01*
%TO.N,/SWCLK*%
X152400000Y-103900000D02*
X154200000Y-103900000D01*
X154200000Y-103900000D02*
X154250000Y-103850000D01*
X138486270Y-97600000D02*
X134386270Y-93500000D01*
X138486270Y-97700000D02*
X138486270Y-97600000D01*
%TO.N,Net-(U1-L2)*%
X130886270Y-102400000D02*
X130886270Y-111700000D01*
X127862005Y-111574265D02*
X127736270Y-111700000D01*
X127862005Y-108700000D02*
X127862005Y-111574265D01*
%TO.N,Net-(U1-L1)*%
X129386270Y-108750000D02*
X130436270Y-107700000D01*
X130436270Y-103650000D02*
X129886270Y-103100000D01*
X130436270Y-107700000D02*
X130436270Y-103650000D01*
%TO.N,/SPI2 MOSI*%
X135786270Y-86250000D02*
X139634799Y-86250000D01*
X146961270Y-84675000D02*
X141209799Y-84675000D01*
X141209799Y-84675000D02*
X139634799Y-86250000D01*
%TO.N,VBAT*%
X126486270Y-108200000D02*
X126486270Y-109900000D01*
X126788087Y-107898183D02*
X126486270Y-108200000D01*
X129886270Y-107400000D02*
X129388087Y-107898183D01*
X129388087Y-107898183D02*
X126788087Y-107898183D01*
%TO.N,Net-(U4-PB8)*%
X133637003Y-92200000D02*
X146886270Y-92200000D01*
X133637003Y-92200000D02*
X131536269Y-90099266D01*
%TO.N,Net-(U4-PB4)*%
X147486270Y-92900000D02*
X148886270Y-94300000D01*
X131536270Y-92900000D02*
X147486270Y-92900000D01*
%TO.N,/Switch*%
X145020953Y-90679047D02*
X141420953Y-90679047D01*
X141420953Y-90679047D02*
X141300000Y-90800000D01*
%TO.N,Net-(U3-SCX)*%
X144286270Y-85500000D02*
X141286270Y-88500000D01*
X149119583Y-85500000D02*
X149173770Y-85554187D01*
X144286270Y-85500000D02*
X149119583Y-85500000D01*
%TO.N,Net-(U3-INT1)*%
X135786270Y-84750000D02*
X140286270Y-84750000D01*
%TO.N,/SWO*%
X135300000Y-93500000D02*
X135300000Y-93600000D01*
X135300000Y-93600000D02*
X136800000Y-95100000D01*
%TD*%
%TA.AperFunction,Conductor*%
%TO.N,GND*%
G36*
X160442194Y-79420350D02*
G01*
X160488100Y-79473023D01*
X160499453Y-79524902D01*
X160485815Y-116875545D01*
X160466106Y-116942578D01*
X160413285Y-116988313D01*
X160361815Y-116999500D01*
X125610815Y-116999500D01*
X125543776Y-116979815D01*
X125498021Y-116927011D01*
X125486815Y-116875455D01*
X125487010Y-116343000D01*
X125487602Y-114724986D01*
X145758270Y-114724986D01*
X145758270Y-115260014D01*
X145764605Y-115300009D01*
X145787215Y-115442765D01*
X145844389Y-115618732D01*
X145844390Y-115618735D01*
X145928392Y-115783596D01*
X146037149Y-115933287D01*
X146167983Y-116064121D01*
X146317674Y-116172878D01*
X146398533Y-116214077D01*
X146482534Y-116256879D01*
X146482537Y-116256880D01*
X146570520Y-116285467D01*
X146658506Y-116314055D01*
X146841256Y-116343000D01*
X146841257Y-116343000D01*
X147026283Y-116343000D01*
X147026284Y-116343000D01*
X147209034Y-116314055D01*
X147385005Y-116256879D01*
X147549866Y-116172878D01*
X147699557Y-116064121D01*
X147830391Y-115933287D01*
X147939148Y-115783596D01*
X148023149Y-115618735D01*
X148080325Y-115442764D01*
X148109270Y-115260014D01*
X148109270Y-114724986D01*
X151218270Y-114724986D01*
X151218270Y-115260014D01*
X151224605Y-115300009D01*
X151247215Y-115442765D01*
X151304389Y-115618732D01*
X151304390Y-115618735D01*
X151388392Y-115783596D01*
X151497149Y-115933287D01*
X151627983Y-116064121D01*
X151777674Y-116172878D01*
X151858533Y-116214077D01*
X151942534Y-116256879D01*
X151942537Y-116256880D01*
X152030520Y-116285467D01*
X152118506Y-116314055D01*
X152301256Y-116343000D01*
X152301257Y-116343000D01*
X152486283Y-116343000D01*
X152486284Y-116343000D01*
X152669034Y-116314055D01*
X152845005Y-116256879D01*
X153009866Y-116172878D01*
X153159557Y-116064121D01*
X153290391Y-115933287D01*
X153399148Y-115783596D01*
X153483149Y-115618735D01*
X153540325Y-115442764D01*
X153569270Y-115260014D01*
X153569270Y-114724986D01*
X153540325Y-114542236D01*
X153495766Y-114405095D01*
X153483150Y-114366267D01*
X153483149Y-114366264D01*
X153440347Y-114282263D01*
X153399148Y-114201404D01*
X153290391Y-114051713D01*
X153159557Y-113920879D01*
X153009866Y-113812122D01*
X152979226Y-113796510D01*
X152845005Y-113728120D01*
X152845002Y-113728119D01*
X152669035Y-113670945D01*
X152577659Y-113656472D01*
X152486284Y-113642000D01*
X152301256Y-113642000D01*
X152240339Y-113651648D01*
X152118504Y-113670945D01*
X151942537Y-113728119D01*
X151942534Y-113728120D01*
X151777673Y-113812122D01*
X151704638Y-113865186D01*
X151627983Y-113920879D01*
X151627981Y-113920881D01*
X151627980Y-113920881D01*
X151497151Y-114051710D01*
X151497151Y-114051711D01*
X151497149Y-114051713D01*
X151475621Y-114081344D01*
X151388392Y-114201403D01*
X151304390Y-114366264D01*
X151304389Y-114366267D01*
X151247215Y-114542234D01*
X151247215Y-114542236D01*
X151218270Y-114724986D01*
X148109270Y-114724986D01*
X148080325Y-114542236D01*
X148035766Y-114405095D01*
X148023150Y-114366267D01*
X148023149Y-114366264D01*
X147980347Y-114282263D01*
X147939148Y-114201404D01*
X147830391Y-114051713D01*
X147699557Y-113920879D01*
X147549866Y-113812122D01*
X147519226Y-113796510D01*
X147385005Y-113728120D01*
X147385002Y-113728119D01*
X147209035Y-113670945D01*
X147117659Y-113656472D01*
X147026284Y-113642000D01*
X146841256Y-113642000D01*
X146780339Y-113651648D01*
X146658504Y-113670945D01*
X146482537Y-113728119D01*
X146482534Y-113728120D01*
X146317673Y-113812122D01*
X146244638Y-113865186D01*
X146167983Y-113920879D01*
X146167981Y-113920881D01*
X146167980Y-113920881D01*
X146037151Y-114051710D01*
X146037151Y-114051711D01*
X146037149Y-114051713D01*
X146015621Y-114081344D01*
X145928392Y-114201403D01*
X145844390Y-114366264D01*
X145844389Y-114366267D01*
X145787215Y-114542234D01*
X145787215Y-114542236D01*
X145758270Y-114724986D01*
X125487602Y-114724986D01*
X125489257Y-110204176D01*
X125508966Y-110137146D01*
X125561787Y-110091411D01*
X125630949Y-110081493D01*
X125694494Y-110110541D01*
X125730298Y-110163269D01*
X125760478Y-110249519D01*
X125856454Y-110402262D01*
X125984008Y-110529816D01*
X126136748Y-110625789D01*
X126238330Y-110661334D01*
X126307015Y-110685368D01*
X126307020Y-110685369D01*
X126486266Y-110705565D01*
X126486270Y-110705565D01*
X126486274Y-110705565D01*
X126665519Y-110685369D01*
X126665522Y-110685368D01*
X126665525Y-110685368D01*
X126835792Y-110625789D01*
X126988532Y-110529816D01*
X127049824Y-110468524D01*
X127111147Y-110435039D01*
X127180839Y-110440023D01*
X127236772Y-110481895D01*
X127261189Y-110547359D01*
X127261505Y-110556205D01*
X127261505Y-110991325D01*
X127241820Y-111058364D01*
X127225186Y-111079006D01*
X127106454Y-111197737D01*
X127010481Y-111350476D01*
X126950901Y-111520745D01*
X126950900Y-111520750D01*
X126930705Y-111699996D01*
X126930705Y-111700003D01*
X126950900Y-111879249D01*
X126950901Y-111879254D01*
X127010481Y-112049523D01*
X127017672Y-112060967D01*
X127106454Y-112202262D01*
X127234008Y-112329816D01*
X127386748Y-112425789D01*
X127535224Y-112477743D01*
X127557015Y-112485368D01*
X127557020Y-112485369D01*
X127736266Y-112505565D01*
X127736270Y-112505565D01*
X127736274Y-112505565D01*
X127915519Y-112485369D01*
X127915522Y-112485368D01*
X127915525Y-112485368D01*
X128085792Y-112425789D01*
X128238532Y-112329816D01*
X128366086Y-112202262D01*
X128462059Y-112049522D01*
X128521638Y-111879255D01*
X128521639Y-111879249D01*
X128541835Y-111700003D01*
X128541835Y-111699996D01*
X128521639Y-111520750D01*
X128521638Y-111520745D01*
X128469463Y-111371637D01*
X128462505Y-111330682D01*
X128462505Y-109282412D01*
X128482190Y-109215373D01*
X128489560Y-109205097D01*
X128491818Y-109202265D01*
X128491821Y-109202262D01*
X128503435Y-109183778D01*
X128555766Y-109137488D01*
X128624819Y-109126838D01*
X128688668Y-109155211D01*
X128713421Y-109183777D01*
X128743457Y-109231578D01*
X128756454Y-109252262D01*
X128884008Y-109379816D01*
X129036748Y-109475789D01*
X129207015Y-109535368D01*
X129207020Y-109535369D01*
X129386266Y-109555565D01*
X129386270Y-109555565D01*
X129386274Y-109555565D01*
X129565519Y-109535369D01*
X129565522Y-109535368D01*
X129565525Y-109535368D01*
X129735792Y-109475789D01*
X129888532Y-109379816D01*
X130016086Y-109252262D01*
X130056776Y-109187503D01*
X130109111Y-109141213D01*
X130178164Y-109130565D01*
X130242013Y-109158940D01*
X130280385Y-109217330D01*
X130285770Y-109253476D01*
X130285770Y-111117587D01*
X130266085Y-111184626D01*
X130258720Y-111194896D01*
X130256456Y-111197734D01*
X130160481Y-111350476D01*
X130100901Y-111520745D01*
X130100900Y-111520750D01*
X130080705Y-111699996D01*
X130080705Y-111700003D01*
X130100900Y-111879249D01*
X130100901Y-111879254D01*
X130160481Y-112049523D01*
X130167672Y-112060967D01*
X130256454Y-112202262D01*
X130384008Y-112329816D01*
X130536748Y-112425789D01*
X130685224Y-112477743D01*
X130707015Y-112485368D01*
X130707020Y-112485369D01*
X130886266Y-112505565D01*
X130886270Y-112505565D01*
X130886274Y-112505565D01*
X131065519Y-112485369D01*
X131065522Y-112485368D01*
X131065525Y-112485368D01*
X131235792Y-112425789D01*
X131388532Y-112329816D01*
X131516086Y-112202262D01*
X131612059Y-112049522D01*
X131671638Y-111879255D01*
X131671639Y-111879249D01*
X131691835Y-111700003D01*
X131691835Y-111699996D01*
X131690599Y-111689030D01*
X146193270Y-111689030D01*
X146193270Y-112295969D01*
X146233638Y-112498912D01*
X146233640Y-112498920D01*
X146312828Y-112690096D01*
X146427794Y-112862157D01*
X146574112Y-113008475D01*
X146574115Y-113008477D01*
X146746172Y-113123441D01*
X146937350Y-113202630D01*
X147140300Y-113242999D01*
X147140304Y-113243000D01*
X147140305Y-113243000D01*
X147347236Y-113243000D01*
X147347237Y-113242999D01*
X147550190Y-113202630D01*
X147741368Y-113123441D01*
X147913425Y-113008477D01*
X148059747Y-112862155D01*
X148174711Y-112690098D01*
X148253900Y-112498920D01*
X148294270Y-112295965D01*
X148294270Y-111689035D01*
X148253900Y-111486080D01*
X148174711Y-111294902D01*
X148059747Y-111122845D01*
X148059745Y-111122842D01*
X147913427Y-110976524D01*
X147827396Y-110919041D01*
X147741368Y-110861559D01*
X147550190Y-110782370D01*
X147550182Y-110782368D01*
X147347239Y-110742000D01*
X147347235Y-110742000D01*
X147140305Y-110742000D01*
X147140300Y-110742000D01*
X146937357Y-110782368D01*
X146937349Y-110782370D01*
X146746173Y-110861558D01*
X146574112Y-110976524D01*
X146427794Y-111122842D01*
X146312828Y-111294903D01*
X146233640Y-111486079D01*
X146233638Y-111486087D01*
X146193270Y-111689030D01*
X131690599Y-111689030D01*
X131671639Y-111520750D01*
X131671638Y-111520745D01*
X131619463Y-111371637D01*
X131612059Y-111350478D01*
X131516086Y-111197738D01*
X131516084Y-111197736D01*
X131516083Y-111197734D01*
X131513820Y-111194896D01*
X131512929Y-111192715D01*
X131512381Y-111191842D01*
X131512534Y-111191745D01*
X131487414Y-111130209D01*
X131486770Y-111117587D01*
X131486770Y-108527589D01*
X131506455Y-108460550D01*
X131559259Y-108414795D01*
X131596887Y-108404369D01*
X131765519Y-108385369D01*
X131765522Y-108385368D01*
X131765525Y-108385368D01*
X131935792Y-108325789D01*
X132088532Y-108229816D01*
X132216086Y-108102262D01*
X132312059Y-107949522D01*
X132371638Y-107779255D01*
X132382054Y-107686809D01*
X132391835Y-107600003D01*
X132391835Y-107599996D01*
X132371639Y-107420750D01*
X132371638Y-107420745D01*
X132361046Y-107390476D01*
X132312059Y-107250478D01*
X132293376Y-107220745D01*
X132252717Y-107156036D01*
X132216086Y-107097738D01*
X132216084Y-107097736D01*
X132216083Y-107097734D01*
X132213820Y-107094896D01*
X132212929Y-107092715D01*
X132212381Y-107091842D01*
X132212534Y-107091745D01*
X132187414Y-107030209D01*
X132186770Y-107017587D01*
X132186770Y-105182412D01*
X132206455Y-105115373D01*
X132213825Y-105105097D01*
X132216080Y-105102267D01*
X132216086Y-105102262D01*
X132312059Y-104949522D01*
X132371638Y-104779255D01*
X132371639Y-104779249D01*
X132391835Y-104600003D01*
X132391835Y-104599996D01*
X132371639Y-104420750D01*
X132371638Y-104420745D01*
X132312059Y-104250478D01*
X132311458Y-104249522D01*
X132216085Y-104097737D01*
X132088532Y-103970184D01*
X131935793Y-103874211D01*
X131765524Y-103814631D01*
X131765520Y-103814630D01*
X131596886Y-103795630D01*
X131532472Y-103768563D01*
X131492917Y-103710968D01*
X131486770Y-103672410D01*
X131486770Y-102982412D01*
X131506455Y-102915373D01*
X131513825Y-102905097D01*
X131516080Y-102902267D01*
X131516086Y-102902262D01*
X131612059Y-102749522D01*
X131671638Y-102579255D01*
X131671639Y-102579249D01*
X131691835Y-102400003D01*
X131691835Y-102399996D01*
X131671639Y-102220750D01*
X131671638Y-102220745D01*
X131612058Y-102050476D01*
X131516085Y-101897737D01*
X131388532Y-101770184D01*
X131235793Y-101674211D01*
X131065524Y-101614631D01*
X131065519Y-101614630D01*
X130886274Y-101594435D01*
X130886266Y-101594435D01*
X130707020Y-101614630D01*
X130707015Y-101614631D01*
X130536746Y-101674211D01*
X130384007Y-101770184D01*
X130256454Y-101897737D01*
X130160481Y-102050476D01*
X130100614Y-102221568D01*
X130059892Y-102278344D01*
X129994939Y-102304091D01*
X129969689Y-102303833D01*
X129886274Y-102294435D01*
X129886266Y-102294435D01*
X129707020Y-102314630D01*
X129707015Y-102314631D01*
X129536746Y-102374211D01*
X129384007Y-102470184D01*
X129256454Y-102597737D01*
X129160481Y-102750476D01*
X129100901Y-102920745D01*
X129100900Y-102920750D01*
X129080705Y-103099996D01*
X129080705Y-103100003D01*
X129100900Y-103279249D01*
X129100901Y-103279254D01*
X129160481Y-103449523D01*
X129223916Y-103550478D01*
X129256454Y-103602262D01*
X129384008Y-103729816D01*
X129474350Y-103786582D01*
X129518991Y-103814632D01*
X129536748Y-103825789D01*
X129707015Y-103885368D01*
X129725652Y-103887467D01*
X129790065Y-103914532D01*
X129829622Y-103972126D01*
X129835770Y-104010688D01*
X129835770Y-105264404D01*
X129816085Y-105331443D01*
X129763281Y-105377198D01*
X129694123Y-105387142D01*
X129641656Y-105363181D01*
X129640131Y-105365392D01*
X129633961Y-105361133D01*
X129494188Y-105287775D01*
X129340930Y-105250000D01*
X129183079Y-105250000D01*
X129100120Y-105270447D01*
X129030318Y-105267378D01*
X128973256Y-105227057D01*
X128951567Y-105175087D01*
X128949547Y-105175586D01*
X128947751Y-105168299D01*
X128891778Y-105020709D01*
X128865906Y-104983229D01*
X128865906Y-104983228D01*
X128399685Y-105449450D01*
X128338362Y-105482935D01*
X128268670Y-105477951D01*
X128224323Y-105449450D01*
X128079982Y-105305109D01*
X128212005Y-105305109D01*
X128212005Y-105344891D01*
X128227229Y-105381645D01*
X128255360Y-105409776D01*
X128292114Y-105425000D01*
X128331896Y-105425000D01*
X128368650Y-105409776D01*
X128396781Y-105381645D01*
X128412005Y-105344891D01*
X128412005Y-105305109D01*
X128396781Y-105268355D01*
X128368650Y-105240224D01*
X128331896Y-105225000D01*
X128292114Y-105225000D01*
X128255360Y-105240224D01*
X128227229Y-105268355D01*
X128212005Y-105305109D01*
X128079982Y-105305109D01*
X127758101Y-104983228D01*
X127732232Y-105020707D01*
X127732229Y-105020713D01*
X127676259Y-105168295D01*
X127674463Y-105175585D01*
X127672329Y-105175059D01*
X127649034Y-105229179D01*
X127591098Y-105268233D01*
X127523888Y-105270447D01*
X127440930Y-105250000D01*
X127283079Y-105250000D01*
X127190444Y-105272832D01*
X127120642Y-105269763D01*
X127063580Y-105229443D01*
X127037375Y-105164673D01*
X127036770Y-105152435D01*
X127036770Y-104770568D01*
X127969705Y-104770568D01*
X128312005Y-105112868D01*
X128312006Y-105112868D01*
X128654304Y-104770567D01*
X128544188Y-104712775D01*
X128390930Y-104675000D01*
X128233080Y-104675000D01*
X128079820Y-104712775D01*
X127969705Y-104770568D01*
X127036770Y-104770568D01*
X127036770Y-104332940D01*
X127056455Y-104265901D01*
X127073089Y-104245259D01*
X127116086Y-104202262D01*
X127212059Y-104049522D01*
X127271638Y-103879255D01*
X127271639Y-103879249D01*
X127291835Y-103700003D01*
X127291835Y-103699996D01*
X127271639Y-103520750D01*
X127271638Y-103520745D01*
X127259611Y-103486375D01*
X127212059Y-103350478D01*
X127210337Y-103347738D01*
X127163028Y-103272445D01*
X127116086Y-103197738D01*
X126988532Y-103070184D01*
X126979696Y-103064632D01*
X126835793Y-102974211D01*
X126665524Y-102914631D01*
X126665519Y-102914630D01*
X126486274Y-102894435D01*
X126486266Y-102894435D01*
X126307020Y-102914630D01*
X126307015Y-102914631D01*
X126136746Y-102974211D01*
X125984007Y-103070184D01*
X125856454Y-103197737D01*
X125760479Y-103350480D01*
X125732794Y-103429599D01*
X125692072Y-103486375D01*
X125627120Y-103512122D01*
X125558558Y-103498666D01*
X125508155Y-103450278D01*
X125491753Y-103388599D01*
X125491796Y-103272445D01*
X125496124Y-91449996D01*
X125980705Y-91449996D01*
X125980705Y-91450003D01*
X126000900Y-91629249D01*
X126000901Y-91629254D01*
X126060481Y-91799523D01*
X126156454Y-91952262D01*
X126284008Y-92079816D01*
X126374350Y-92136582D01*
X126434236Y-92174211D01*
X126436748Y-92175789D01*
X126505942Y-92200001D01*
X126607015Y-92235368D01*
X126607020Y-92235369D01*
X126786266Y-92255565D01*
X126786270Y-92255565D01*
X126786274Y-92255565D01*
X126965519Y-92235369D01*
X126965522Y-92235368D01*
X126965525Y-92235368D01*
X127135792Y-92175789D01*
X127288532Y-92079816D01*
X127416086Y-91952262D01*
X127512059Y-91799522D01*
X127571638Y-91629255D01*
X127575026Y-91599184D01*
X127591835Y-91450003D01*
X127591835Y-91449996D01*
X127571639Y-91270750D01*
X127571636Y-91270737D01*
X127512060Y-91100479D01*
X127505776Y-91090478D01*
X127486770Y-91024507D01*
X127486770Y-90366321D01*
X127506455Y-90299282D01*
X127559259Y-90253527D01*
X127596883Y-90243101D01*
X127665525Y-90235368D01*
X127835792Y-90175789D01*
X127988532Y-90079816D01*
X128116086Y-89952262D01*
X128212059Y-89799522D01*
X128236959Y-89728362D01*
X128277681Y-89671586D01*
X128342633Y-89645838D01*
X128411195Y-89659294D01*
X128441682Y-89681635D01*
X128484008Y-89723961D01*
X128525449Y-89750000D01*
X128604262Y-89799522D01*
X128636748Y-89819934D01*
X128807015Y-89879513D01*
X128807020Y-89879514D01*
X128986266Y-89899710D01*
X128986270Y-89899710D01*
X128986274Y-89899710D01*
X129165519Y-89879514D01*
X129165522Y-89879513D01*
X129165525Y-89879513D01*
X129335792Y-89819934D01*
X129488532Y-89723961D01*
X129616086Y-89596407D01*
X129712059Y-89443667D01*
X129771638Y-89273400D01*
X129771937Y-89270745D01*
X129791835Y-89094148D01*
X129791835Y-89094141D01*
X129771639Y-88914895D01*
X129771638Y-88914890D01*
X129749099Y-88850478D01*
X129712059Y-88744623D01*
X129619505Y-88597325D01*
X129600500Y-88531354D01*
X129600500Y-87582412D01*
X129620185Y-87515373D01*
X129627555Y-87505097D01*
X129629810Y-87502267D01*
X129629816Y-87502262D01*
X129725789Y-87349522D01*
X129785368Y-87179255D01*
X129785369Y-87179249D01*
X129805565Y-87000003D01*
X129805565Y-86999996D01*
X129785369Y-86820750D01*
X129785368Y-86820745D01*
X129741170Y-86694435D01*
X129725789Y-86650478D01*
X129629816Y-86497738D01*
X129502262Y-86370184D01*
X129453518Y-86339556D01*
X129349523Y-86274211D01*
X129179254Y-86214631D01*
X129179249Y-86214630D01*
X129000004Y-86194435D01*
X128999996Y-86194435D01*
X128820750Y-86214630D01*
X128820745Y-86214631D01*
X128650476Y-86274211D01*
X128497737Y-86370184D01*
X128370184Y-86497737D01*
X128274211Y-86650476D01*
X128214631Y-86820745D01*
X128214630Y-86820750D01*
X128194435Y-86999996D01*
X128194435Y-87000003D01*
X128214630Y-87179249D01*
X128214631Y-87179254D01*
X128274211Y-87349523D01*
X128293688Y-87380520D01*
X128369076Y-87500499D01*
X128370185Y-87502263D01*
X128372445Y-87505097D01*
X128373334Y-87507275D01*
X128373889Y-87508158D01*
X128373734Y-87508255D01*
X128398855Y-87569783D01*
X128399500Y-87582412D01*
X128399500Y-88497475D01*
X128379815Y-88564514D01*
X128363181Y-88585156D01*
X128356454Y-88591882D01*
X128260480Y-88744623D01*
X128235581Y-88815783D01*
X128194859Y-88872559D01*
X128129907Y-88898307D01*
X128061345Y-88884851D01*
X128030858Y-88862510D01*
X127988532Y-88820184D01*
X127835793Y-88724211D01*
X127665524Y-88664631D01*
X127665519Y-88664630D01*
X127486274Y-88644435D01*
X127486266Y-88644435D01*
X127307020Y-88664630D01*
X127307015Y-88664631D01*
X127136746Y-88724211D01*
X126984007Y-88820184D01*
X126856454Y-88947737D01*
X126760480Y-89100478D01*
X126700900Y-89270750D01*
X126691107Y-89357668D01*
X126664040Y-89422082D01*
X126655569Y-89431465D01*
X126517556Y-89569478D01*
X126405751Y-89681282D01*
X126405747Y-89681287D01*
X126381112Y-89723959D01*
X126381111Y-89723961D01*
X126326693Y-89818215D01*
X126285769Y-89970943D01*
X126285769Y-89970945D01*
X126285769Y-90139046D01*
X126285770Y-90139059D01*
X126285770Y-90767059D01*
X126266085Y-90834098D01*
X126249452Y-90854740D01*
X126156453Y-90947739D01*
X126060481Y-91100476D01*
X126000901Y-91270745D01*
X126000900Y-91270750D01*
X125980705Y-91449996D01*
X125496124Y-91449996D01*
X125498888Y-83899996D01*
X128080705Y-83899996D01*
X128080705Y-83900003D01*
X128100900Y-84079249D01*
X128100901Y-84079254D01*
X128160481Y-84249523D01*
X128208206Y-84325476D01*
X128256454Y-84402262D01*
X128384008Y-84529816D01*
X128536748Y-84625789D01*
X128677374Y-84674996D01*
X128707015Y-84685368D01*
X128707020Y-84685369D01*
X128886266Y-84705565D01*
X128886270Y-84705565D01*
X128886274Y-84705565D01*
X129065519Y-84685369D01*
X129065522Y-84685368D01*
X129065525Y-84685368D01*
X129235792Y-84625789D01*
X129388532Y-84529816D01*
X129516086Y-84402262D01*
X129612059Y-84249522D01*
X129612060Y-84249518D01*
X129613895Y-84245709D01*
X129615737Y-84243667D01*
X129615764Y-84243626D01*
X129615771Y-84243630D01*
X129660713Y-84193846D01*
X129725619Y-84175502D01*
X132033357Y-84175502D01*
X132100396Y-84195187D01*
X132121038Y-84211821D01*
X135173591Y-87264374D01*
X135173601Y-87264385D01*
X135177931Y-87268715D01*
X135177932Y-87268716D01*
X135289736Y-87380520D01*
X135359750Y-87420942D01*
X135426667Y-87459577D01*
X135579394Y-87500500D01*
X135579395Y-87500500D01*
X140617059Y-87500500D01*
X140684098Y-87520185D01*
X140704740Y-87536818D01*
X140797738Y-87629816D01*
X140797740Y-87629817D01*
X140797741Y-87629818D01*
X140815047Y-87640692D01*
X140861339Y-87693026D01*
X140871988Y-87762079D01*
X140843613Y-87825928D01*
X140815049Y-87850679D01*
X140784010Y-87870182D01*
X140784007Y-87870184D01*
X140656454Y-87997737D01*
X140560481Y-88150476D01*
X140500901Y-88320745D01*
X140500900Y-88320750D01*
X140480705Y-88499996D01*
X140480705Y-88500003D01*
X140500900Y-88679249D01*
X140500901Y-88679254D01*
X140560481Y-88849523D01*
X140656454Y-89002262D01*
X140691511Y-89037319D01*
X140724996Y-89098642D01*
X140720012Y-89168334D01*
X140691511Y-89212681D01*
X140656454Y-89247737D01*
X140560481Y-89400476D01*
X140500901Y-89570745D01*
X140500900Y-89570750D01*
X140480705Y-89749996D01*
X140480705Y-89750003D01*
X140500900Y-89929249D01*
X140500901Y-89929254D01*
X140560481Y-90099523D01*
X140636153Y-90219953D01*
X140655153Y-90287189D01*
X140636153Y-90351897D01*
X140574211Y-90450476D01*
X140514631Y-90620745D01*
X140514630Y-90620750D01*
X140494435Y-90799996D01*
X140494435Y-90800003D01*
X140514630Y-90979249D01*
X140514631Y-90979254D01*
X140574211Y-91149523D01*
X140670184Y-91302262D01*
X140755741Y-91387819D01*
X140789226Y-91449142D01*
X140784242Y-91518834D01*
X140742370Y-91574767D01*
X140676906Y-91599184D01*
X140668060Y-91599500D01*
X133937101Y-91599500D01*
X133870062Y-91579815D01*
X133849420Y-91563181D01*
X132366969Y-90080731D01*
X132333484Y-90019408D01*
X132331432Y-90006952D01*
X132321637Y-89920011D01*
X132262058Y-89749744D01*
X132166085Y-89597004D01*
X132038531Y-89469450D01*
X131967245Y-89424658D01*
X131885793Y-89373478D01*
X131885792Y-89373477D01*
X131884522Y-89373033D01*
X131883543Y-89372690D01*
X131882289Y-89371790D01*
X131879523Y-89370459D01*
X131879756Y-89369974D01*
X131826769Y-89331969D01*
X131801022Y-89267016D01*
X131800500Y-89255650D01*
X131800500Y-88119208D01*
X131820185Y-88052169D01*
X131836819Y-88031527D01*
X131841425Y-88026921D01*
X131866084Y-88002262D01*
X131962057Y-87849522D01*
X132021636Y-87679255D01*
X132027206Y-87629818D01*
X132041833Y-87500003D01*
X132041833Y-87499996D01*
X132021637Y-87320750D01*
X132021636Y-87320745D01*
X132001911Y-87264374D01*
X131962057Y-87150478D01*
X131866084Y-86997738D01*
X131738530Y-86870184D01*
X131704076Y-86848535D01*
X131585791Y-86774211D01*
X131415522Y-86714631D01*
X131415517Y-86714630D01*
X131236272Y-86694435D01*
X131236264Y-86694435D01*
X131057018Y-86714630D01*
X131057013Y-86714631D01*
X130886744Y-86774211D01*
X130734005Y-86870184D01*
X130606452Y-86997737D01*
X130510479Y-87150476D01*
X130450899Y-87320745D01*
X130450898Y-87320750D01*
X130430703Y-87499996D01*
X130430703Y-87500003D01*
X130450898Y-87679249D01*
X130450899Y-87679254D01*
X130510479Y-87849524D01*
X130580493Y-87960948D01*
X130599500Y-88026921D01*
X130599500Y-89357619D01*
X130579815Y-89424658D01*
X130563181Y-89445300D01*
X130505751Y-89502729D01*
X130505749Y-89502731D01*
X130505749Y-89502732D01*
X130461912Y-89578660D01*
X130461911Y-89578660D01*
X130426693Y-89639660D01*
X130426692Y-89639661D01*
X130415445Y-89681635D01*
X130385768Y-89792391D01*
X130385768Y-89792393D01*
X130385768Y-89960494D01*
X130385769Y-89960507D01*
X130385769Y-95891147D01*
X130385768Y-95891165D01*
X130385768Y-96056871D01*
X130385767Y-96056871D01*
X130426692Y-96209602D01*
X130455627Y-96259717D01*
X130455628Y-96259721D01*
X130455629Y-96259721D01*
X130495614Y-96328979D01*
X130505748Y-96346531D01*
X130505750Y-96346534D01*
X130624618Y-96465402D01*
X130624624Y-96465407D01*
X141573591Y-107414374D01*
X141573601Y-107414385D01*
X141577931Y-107418715D01*
X141577932Y-107418716D01*
X141689736Y-107530520D01*
X141689738Y-107530521D01*
X141689742Y-107530524D01*
X141794207Y-107590836D01*
X141826668Y-107609577D01*
X141909550Y-107631785D01*
X141979394Y-107650500D01*
X141979395Y-107650500D01*
X149136173Y-107650500D01*
X149203212Y-107670185D01*
X149223854Y-107686819D01*
X152067354Y-110530319D01*
X152100839Y-110591642D01*
X152095855Y-110661334D01*
X152053983Y-110717267D01*
X151988519Y-110741684D01*
X151980663Y-110741964D01*
X151980300Y-110742000D01*
X151777357Y-110782368D01*
X151777349Y-110782370D01*
X151586173Y-110861558D01*
X151414112Y-110976524D01*
X151267794Y-111122842D01*
X151152828Y-111294903D01*
X151073640Y-111486079D01*
X151073638Y-111486087D01*
X151033270Y-111689030D01*
X151033270Y-112295969D01*
X151073638Y-112498912D01*
X151073640Y-112498920D01*
X151152828Y-112690096D01*
X151267794Y-112862157D01*
X151414112Y-113008475D01*
X151414115Y-113008477D01*
X151586172Y-113123441D01*
X151777350Y-113202630D01*
X151980300Y-113242999D01*
X151980304Y-113243000D01*
X151980305Y-113243000D01*
X152187236Y-113243000D01*
X152187237Y-113242999D01*
X152390190Y-113202630D01*
X152581368Y-113123441D01*
X152753425Y-113008477D01*
X152899747Y-112862155D01*
X153014711Y-112690098D01*
X153093900Y-112498920D01*
X153134270Y-112295965D01*
X153134270Y-111896597D01*
X153153955Y-111829558D01*
X153206759Y-111783803D01*
X153275917Y-111773859D01*
X153339473Y-111802884D01*
X153345951Y-111808916D01*
X155880807Y-114343772D01*
X155914292Y-114405095D01*
X155916484Y-114444055D01*
X155910770Y-114499981D01*
X155910770Y-115300001D01*
X155910771Y-115300019D01*
X155921270Y-115402796D01*
X155921271Y-115402799D01*
X155934515Y-115442765D01*
X155976456Y-115569334D01*
X156068558Y-115718656D01*
X156192614Y-115842712D01*
X156341936Y-115934814D01*
X156508473Y-115989999D01*
X156611261Y-116000500D01*
X157961278Y-116000499D01*
X158064067Y-115989999D01*
X158230604Y-115934814D01*
X158379926Y-115842712D01*
X158503982Y-115718656D01*
X158596084Y-115569334D01*
X158651269Y-115402797D01*
X158661770Y-115300009D01*
X158661769Y-114499992D01*
X158651269Y-114397203D01*
X158596084Y-114230666D01*
X158503982Y-114081344D01*
X158379926Y-113957288D01*
X158379925Y-113957287D01*
X158336258Y-113930353D01*
X158315288Y-113917419D01*
X158268564Y-113865472D01*
X158257341Y-113796510D01*
X158285184Y-113732428D01*
X158292704Y-113724199D01*
X158400305Y-113616598D01*
X158502074Y-113476524D01*
X158580678Y-113322255D01*
X158634184Y-113157584D01*
X158635385Y-113150000D01*
X157566600Y-113150000D01*
X157586345Y-113130255D01*
X157635714Y-113044745D01*
X157661270Y-112949370D01*
X157661270Y-112850630D01*
X157635714Y-112755255D01*
X157586345Y-112669745D01*
X157566600Y-112650000D01*
X158635385Y-112650000D01*
X158635385Y-112649999D01*
X158634184Y-112642415D01*
X158580678Y-112477744D01*
X158502074Y-112323475D01*
X158400302Y-112183397D01*
X158277872Y-112060967D01*
X158137794Y-111959195D01*
X157983527Y-111880591D01*
X157818854Y-111827085D01*
X157647841Y-111800000D01*
X157536270Y-111800000D01*
X157536270Y-112619670D01*
X157516525Y-112599925D01*
X157431015Y-112550556D01*
X157335640Y-112525000D01*
X157236900Y-112525000D01*
X157141525Y-112550556D01*
X157056015Y-112599925D01*
X157036270Y-112619670D01*
X157036270Y-111800000D01*
X156924699Y-111800000D01*
X156753685Y-111827085D01*
X156589012Y-111880591D01*
X156434745Y-111959195D01*
X156294667Y-112060967D01*
X156172237Y-112183397D01*
X156070465Y-112323475D01*
X155991861Y-112477743D01*
X155986063Y-112495588D01*
X155946624Y-112553262D01*
X155882264Y-112580458D01*
X155813418Y-112568542D01*
X155780452Y-112544947D01*
X149923860Y-106688355D01*
X149923858Y-106688352D01*
X149804987Y-106569481D01*
X149804986Y-106569480D01*
X149718174Y-106519360D01*
X149718174Y-106519359D01*
X149718170Y-106519358D01*
X149668055Y-106490423D01*
X149515327Y-106449499D01*
X149357213Y-106449499D01*
X149349617Y-106449499D01*
X149349601Y-106449500D01*
X142358549Y-106449500D01*
X142291510Y-106429815D01*
X142270868Y-106413181D01*
X139757683Y-103899996D01*
X151594435Y-103899996D01*
X151594435Y-103900003D01*
X151614630Y-104079249D01*
X151614631Y-104079254D01*
X151674211Y-104249523D01*
X151694353Y-104281578D01*
X151770184Y-104402262D01*
X151897738Y-104529816D01*
X152050478Y-104625789D01*
X152135573Y-104655565D01*
X152220745Y-104685368D01*
X152220750Y-104685369D01*
X152399996Y-104705565D01*
X152400000Y-104705565D01*
X152400004Y-104705565D01*
X152579249Y-104685369D01*
X152579252Y-104685368D01*
X152579255Y-104685368D01*
X152749522Y-104625789D01*
X152902262Y-104529816D01*
X152902267Y-104529810D01*
X152905097Y-104527555D01*
X152907275Y-104526665D01*
X152908158Y-104526111D01*
X152908255Y-104526265D01*
X152969783Y-104501145D01*
X152982412Y-104500500D01*
X153744932Y-104500500D01*
X153810904Y-104519506D01*
X153900477Y-104575789D01*
X153900481Y-104575790D01*
X154070737Y-104635366D01*
X154070743Y-104635367D01*
X154070745Y-104635368D01*
X154070746Y-104635368D01*
X154070750Y-104635369D01*
X154249996Y-104655565D01*
X154250000Y-104655565D01*
X154250004Y-104655565D01*
X154429249Y-104635369D01*
X154429252Y-104635368D01*
X154429255Y-104635368D01*
X154599522Y-104575789D01*
X154752262Y-104479816D01*
X154879816Y-104352262D01*
X154975789Y-104199522D01*
X155035368Y-104029255D01*
X155037460Y-104010688D01*
X155055565Y-103850003D01*
X155055565Y-103849996D01*
X155035369Y-103670750D01*
X155035368Y-103670745D01*
X154982882Y-103520750D01*
X154975789Y-103500478D01*
X154974650Y-103498666D01*
X154911232Y-103397737D01*
X154879816Y-103347738D01*
X154752262Y-103220184D01*
X154599523Y-103124211D01*
X154429254Y-103064631D01*
X154429249Y-103064630D01*
X154250004Y-103044435D01*
X154249996Y-103044435D01*
X154070750Y-103064630D01*
X154070745Y-103064631D01*
X153900476Y-103124211D01*
X153747737Y-103220184D01*
X153704741Y-103263181D01*
X153643418Y-103296666D01*
X153617060Y-103299500D01*
X152982412Y-103299500D01*
X152915373Y-103279815D01*
X152905097Y-103272445D01*
X152902263Y-103270185D01*
X152902262Y-103270184D01*
X152822688Y-103220184D01*
X152749523Y-103174211D01*
X152579254Y-103114631D01*
X152579249Y-103114630D01*
X152400004Y-103094435D01*
X152399996Y-103094435D01*
X152220750Y-103114630D01*
X152220745Y-103114631D01*
X152050476Y-103174211D01*
X151897737Y-103270184D01*
X151770184Y-103397737D01*
X151674211Y-103550476D01*
X151614631Y-103720745D01*
X151614630Y-103720750D01*
X151594435Y-103899996D01*
X139757683Y-103899996D01*
X135571076Y-99713389D01*
X155924500Y-99713389D01*
X155924500Y-99886611D01*
X155951598Y-100057701D01*
X156005127Y-100222445D01*
X156083768Y-100376788D01*
X156185586Y-100516928D01*
X156308072Y-100639414D01*
X156308078Y-100639418D01*
X156391023Y-100699683D01*
X156433689Y-100755013D01*
X156439667Y-100824626D01*
X156407061Y-100886421D01*
X156391023Y-100900317D01*
X156308078Y-100960581D01*
X156308069Y-100960588D01*
X156185588Y-101083069D01*
X156185588Y-101083070D01*
X156185586Y-101083072D01*
X156141859Y-101143256D01*
X156083768Y-101223211D01*
X156005128Y-101377552D01*
X155951597Y-101542302D01*
X155924500Y-101713389D01*
X155924500Y-101886610D01*
X155950453Y-102050476D01*
X155951598Y-102057701D01*
X156005127Y-102222445D01*
X156083768Y-102376788D01*
X156185586Y-102516928D01*
X156308072Y-102639414D01*
X156308078Y-102639418D01*
X156391023Y-102699683D01*
X156433689Y-102755013D01*
X156439667Y-102824626D01*
X156407061Y-102886421D01*
X156391023Y-102900317D01*
X156308078Y-102960581D01*
X156308069Y-102960588D01*
X156185588Y-103083069D01*
X156185588Y-103083070D01*
X156185586Y-103083072D01*
X156155697Y-103124211D01*
X156083768Y-103223211D01*
X156005128Y-103377552D01*
X155951597Y-103542302D01*
X155931254Y-103670745D01*
X155924500Y-103713389D01*
X155924500Y-103886611D01*
X155932677Y-103938239D01*
X155950302Y-104049523D01*
X155951598Y-104057701D01*
X155978044Y-104139094D01*
X156005128Y-104222447D01*
X156061427Y-104332940D01*
X156083768Y-104376788D01*
X156185586Y-104516928D01*
X156308072Y-104639414D01*
X156308078Y-104639418D01*
X156391023Y-104699683D01*
X156433689Y-104755013D01*
X156439667Y-104824626D01*
X156407061Y-104886421D01*
X156391023Y-104900317D01*
X156308078Y-104960581D01*
X156308069Y-104960588D01*
X156185588Y-105083069D01*
X156185588Y-105083070D01*
X156185586Y-105083072D01*
X156171644Y-105102262D01*
X156083768Y-105223211D01*
X156005128Y-105377552D01*
X155951597Y-105542302D01*
X155924500Y-105713389D01*
X155924500Y-105886611D01*
X155951598Y-106057701D01*
X156005127Y-106222445D01*
X156083768Y-106376788D01*
X156185586Y-106516928D01*
X156185588Y-106516930D01*
X156293127Y-106624469D01*
X156326612Y-106685792D01*
X156321628Y-106755484D01*
X156279756Y-106811417D01*
X156270544Y-106817688D01*
X156206344Y-106857287D01*
X156082289Y-106981342D01*
X155990187Y-107130663D01*
X155990185Y-107130668D01*
X155962361Y-107214637D01*
X155935001Y-107297203D01*
X155935001Y-107297204D01*
X155935000Y-107297204D01*
X155924500Y-107399983D01*
X155924500Y-108200001D01*
X155924501Y-108200019D01*
X155935000Y-108302796D01*
X155935001Y-108302799D01*
X155987275Y-108460550D01*
X155990186Y-108469334D01*
X156082288Y-108618656D01*
X156206344Y-108742712D01*
X156355666Y-108834814D01*
X156522203Y-108889999D01*
X156624991Y-108900500D01*
X157975008Y-108900499D01*
X158077797Y-108889999D01*
X158244334Y-108834814D01*
X158393656Y-108742712D01*
X158517712Y-108618656D01*
X158609814Y-108469334D01*
X158664999Y-108302797D01*
X158675500Y-108200009D01*
X158675499Y-107399992D01*
X158667679Y-107323443D01*
X158664999Y-107297203D01*
X158664998Y-107297200D01*
X158664878Y-107296838D01*
X158609814Y-107130666D01*
X158517712Y-106981344D01*
X158393656Y-106857288D01*
X158393652Y-106857285D01*
X158329456Y-106817688D01*
X158282731Y-106765740D01*
X158271510Y-106696777D01*
X158299353Y-106632695D01*
X158306850Y-106624491D01*
X158414414Y-106516928D01*
X158516232Y-106376788D01*
X158594873Y-106222445D01*
X158648402Y-106057701D01*
X158675500Y-105886611D01*
X158675500Y-105713389D01*
X158648402Y-105542299D01*
X158594873Y-105377555D01*
X158516232Y-105223212D01*
X158414414Y-105083072D01*
X158291928Y-104960586D01*
X158208975Y-104900317D01*
X158166311Y-104844988D01*
X158160332Y-104775374D01*
X158192938Y-104713579D01*
X158208976Y-104699682D01*
X158291928Y-104639414D01*
X158414414Y-104516928D01*
X158516232Y-104376788D01*
X158594873Y-104222445D01*
X158648402Y-104057701D01*
X158675500Y-103886611D01*
X158675500Y-103713389D01*
X158648402Y-103542299D01*
X158594873Y-103377555D01*
X158516232Y-103223212D01*
X158414414Y-103083072D01*
X158291928Y-102960586D01*
X158208975Y-102900317D01*
X158166311Y-102844988D01*
X158160332Y-102775374D01*
X158192938Y-102713579D01*
X158208976Y-102699682D01*
X158291928Y-102639414D01*
X158414414Y-102516928D01*
X158516232Y-102376788D01*
X158594873Y-102222445D01*
X158648402Y-102057701D01*
X158675500Y-101886611D01*
X158675500Y-101713389D01*
X158648402Y-101542299D01*
X158594873Y-101377555D01*
X158516232Y-101223212D01*
X158414414Y-101083072D01*
X158291928Y-100960586D01*
X158208975Y-100900317D01*
X158166311Y-100844988D01*
X158160332Y-100775374D01*
X158192938Y-100713579D01*
X158208976Y-100699682D01*
X158291928Y-100639414D01*
X158414414Y-100516928D01*
X158516232Y-100376788D01*
X158594873Y-100222445D01*
X158648402Y-100057701D01*
X158675500Y-99886611D01*
X158675500Y-99713389D01*
X158648402Y-99542299D01*
X158594873Y-99377555D01*
X158516232Y-99223212D01*
X158414414Y-99083072D01*
X158291928Y-98960586D01*
X158208550Y-98900008D01*
X158165885Y-98844677D01*
X158159906Y-98775064D01*
X158192512Y-98713269D01*
X158208552Y-98699371D01*
X158291598Y-98639036D01*
X158414032Y-98516602D01*
X158515804Y-98376524D01*
X158594408Y-98222255D01*
X158647914Y-98057584D01*
X158649115Y-98050000D01*
X157580330Y-98050000D01*
X157600075Y-98030255D01*
X157649444Y-97944745D01*
X157675000Y-97849370D01*
X157675000Y-97750630D01*
X157649444Y-97655255D01*
X157600075Y-97569745D01*
X157580330Y-97550000D01*
X158649115Y-97550000D01*
X158649115Y-97549999D01*
X158647914Y-97542415D01*
X158594408Y-97377744D01*
X158515804Y-97223475D01*
X158414032Y-97083397D01*
X158291602Y-96960967D01*
X158151524Y-96859195D01*
X157997257Y-96780591D01*
X157832584Y-96727085D01*
X157661571Y-96700000D01*
X157550000Y-96700000D01*
X157550000Y-97519670D01*
X157530255Y-97499925D01*
X157444745Y-97450556D01*
X157349370Y-97425000D01*
X157250630Y-97425000D01*
X157155255Y-97450556D01*
X157069745Y-97499925D01*
X157050000Y-97519670D01*
X157050000Y-96700000D01*
X156938429Y-96700000D01*
X156767415Y-96727085D01*
X156602742Y-96780591D01*
X156448475Y-96859195D01*
X156308397Y-96960967D01*
X156185967Y-97083397D01*
X156084195Y-97223475D01*
X156005591Y-97377744D01*
X155952085Y-97542415D01*
X155950884Y-97549999D01*
X155950885Y-97550000D01*
X157019670Y-97550000D01*
X156999925Y-97569745D01*
X156950556Y-97655255D01*
X156925000Y-97750630D01*
X156925000Y-97849370D01*
X156950556Y-97944745D01*
X156999925Y-98030255D01*
X157019670Y-98050000D01*
X155950885Y-98050000D01*
X155952085Y-98057584D01*
X156005591Y-98222255D01*
X156084195Y-98376524D01*
X156185967Y-98516602D01*
X156308401Y-98639036D01*
X156391447Y-98699371D01*
X156434114Y-98754701D01*
X156440093Y-98824314D01*
X156407488Y-98886109D01*
X156391450Y-98900007D01*
X156308072Y-98960585D01*
X156185588Y-99083069D01*
X156185588Y-99083070D01*
X156185586Y-99083072D01*
X156141859Y-99143256D01*
X156083768Y-99223211D01*
X156005128Y-99377552D01*
X155951597Y-99542302D01*
X155924500Y-99713389D01*
X135571076Y-99713389D01*
X131623088Y-95765401D01*
X131589603Y-95704078D01*
X131586769Y-95677720D01*
X131586769Y-93810688D01*
X131606454Y-93743649D01*
X131659258Y-93697894D01*
X131696884Y-93687468D01*
X131715525Y-93685368D01*
X131885792Y-93625789D01*
X132038532Y-93529816D01*
X132038537Y-93529810D01*
X132041367Y-93527555D01*
X132043545Y-93526665D01*
X132044428Y-93526111D01*
X132044525Y-93526265D01*
X132106053Y-93501145D01*
X132118682Y-93500500D01*
X133469948Y-93500500D01*
X133536987Y-93520185D01*
X133582742Y-93572989D01*
X133593168Y-93610617D01*
X133600900Y-93679249D01*
X133660480Y-93849522D01*
X133722697Y-93948539D01*
X133741697Y-94015776D01*
X133721329Y-94082611D01*
X133668061Y-94127825D01*
X133658657Y-94131553D01*
X133536748Y-94174210D01*
X133384007Y-94270184D01*
X133256454Y-94397737D01*
X133160481Y-94550476D01*
X133100901Y-94720745D01*
X133100900Y-94720750D01*
X133080705Y-94899996D01*
X133080705Y-94900003D01*
X133100900Y-95079249D01*
X133100901Y-95079254D01*
X133160481Y-95249523D01*
X133256454Y-95402262D01*
X133384008Y-95529816D01*
X133536748Y-95625789D01*
X133707015Y-95685368D01*
X133793939Y-95695161D01*
X133858350Y-95722226D01*
X133867735Y-95730700D01*
X135601409Y-97464374D01*
X135601419Y-97464385D01*
X135605749Y-97468715D01*
X135605750Y-97468716D01*
X135717554Y-97580520D01*
X135804365Y-97630639D01*
X135804367Y-97630641D01*
X135842421Y-97652611D01*
X135854485Y-97659577D01*
X136007213Y-97700501D01*
X136007215Y-97700501D01*
X136015273Y-97701562D01*
X136014982Y-97703767D01*
X136070898Y-97720186D01*
X136081173Y-97727555D01*
X136084007Y-97729815D01*
X136084008Y-97729816D01*
X136236748Y-97825789D01*
X136304139Y-97849370D01*
X136407015Y-97885368D01*
X136407020Y-97885369D01*
X136586266Y-97905565D01*
X136586270Y-97905565D01*
X136586274Y-97905565D01*
X136765519Y-97885369D01*
X136765522Y-97885368D01*
X136765525Y-97885368D01*
X136935792Y-97825789D01*
X137088532Y-97729816D01*
X137216086Y-97602262D01*
X137296668Y-97474015D01*
X137349002Y-97427726D01*
X137418055Y-97417077D01*
X137481903Y-97445453D01*
X137489334Y-97452299D01*
X137644387Y-97607352D01*
X137677871Y-97668674D01*
X137680705Y-97695032D01*
X137680705Y-97700003D01*
X137700900Y-97879249D01*
X137700901Y-97879254D01*
X137760481Y-98049523D01*
X137823266Y-98149444D01*
X137856454Y-98202262D01*
X137984008Y-98329816D01*
X138136748Y-98425789D01*
X138307015Y-98485368D01*
X138307020Y-98485369D01*
X138486266Y-98505565D01*
X138486270Y-98505565D01*
X138486274Y-98505565D01*
X138665519Y-98485369D01*
X138665522Y-98485368D01*
X138665525Y-98485368D01*
X138835792Y-98425789D01*
X138988532Y-98329816D01*
X139116086Y-98202262D01*
X139212059Y-98049522D01*
X139271638Y-97879255D01*
X139271639Y-97879249D01*
X139291835Y-97700003D01*
X139291835Y-97699996D01*
X139271639Y-97520750D01*
X139271638Y-97520745D01*
X139251913Y-97464374D01*
X139212059Y-97350478D01*
X139116086Y-97197738D01*
X138988532Y-97070184D01*
X138835791Y-96974210D01*
X138741956Y-96941376D01*
X138668568Y-96915696D01*
X138621843Y-96886337D01*
X137464220Y-95728715D01*
X137430735Y-95667392D01*
X137435719Y-95597700D01*
X137446907Y-95575062D01*
X137475337Y-95529816D01*
X137525789Y-95449522D01*
X137585368Y-95279255D01*
X137605565Y-95100000D01*
X137603916Y-95085369D01*
X137585369Y-94920750D01*
X137585368Y-94920745D01*
X137578108Y-94899996D01*
X137525789Y-94750478D01*
X137507106Y-94720745D01*
X137429815Y-94597737D01*
X137302262Y-94470184D01*
X137149521Y-94374210D01*
X136979249Y-94314630D01*
X136892330Y-94304837D01*
X136827916Y-94277770D01*
X136818533Y-94269298D01*
X136261416Y-93712181D01*
X136227931Y-93650858D01*
X136232915Y-93581166D01*
X136274787Y-93525233D01*
X136340251Y-93500816D01*
X136349097Y-93500500D01*
X147186173Y-93500500D01*
X147253212Y-93520185D01*
X147273854Y-93536819D01*
X148055568Y-94318533D01*
X148089053Y-94379856D01*
X148091107Y-94392330D01*
X148100900Y-94479249D01*
X148160480Y-94649521D01*
X148223915Y-94750476D01*
X148256454Y-94802262D01*
X148384008Y-94929816D01*
X148536748Y-95025789D01*
X148689528Y-95079249D01*
X148707015Y-95085368D01*
X148707020Y-95085369D01*
X148886266Y-95105565D01*
X148886270Y-95105565D01*
X148886274Y-95105565D01*
X149065519Y-95085369D01*
X149065522Y-95085368D01*
X149065525Y-95085368D01*
X149235792Y-95025789D01*
X149388532Y-94929816D01*
X149516086Y-94802262D01*
X149612059Y-94649522D01*
X149671638Y-94479255D01*
X149681432Y-94392330D01*
X149691835Y-94300003D01*
X149691835Y-94299996D01*
X149671639Y-94120750D01*
X149671638Y-94120745D01*
X149612058Y-93950476D01*
X149516085Y-93797737D01*
X149388532Y-93670184D01*
X149235791Y-93574210D01*
X149088119Y-93522538D01*
X149065525Y-93514632D01*
X149065524Y-93514631D01*
X149065519Y-93514630D01*
X148978600Y-93504837D01*
X148914186Y-93477770D01*
X148904803Y-93469298D01*
X147973860Y-92538355D01*
X147973858Y-92538352D01*
X147854987Y-92419481D01*
X147854979Y-92419475D01*
X147753206Y-92360717D01*
X147753202Y-92360715D01*
X147748884Y-92358222D01*
X147700672Y-92307653D01*
X147687453Y-92239045D01*
X147687671Y-92236954D01*
X147691835Y-92200001D01*
X147691835Y-92199996D01*
X147671639Y-92020750D01*
X147671638Y-92020745D01*
X147612058Y-91850476D01*
X147516085Y-91697737D01*
X147388532Y-91570184D01*
X147235793Y-91474211D01*
X147065524Y-91414631D01*
X147065519Y-91414630D01*
X146886274Y-91394435D01*
X146886266Y-91394435D01*
X146707020Y-91414630D01*
X146707015Y-91414631D01*
X146536746Y-91474211D01*
X146384006Y-91570185D01*
X146381173Y-91572445D01*
X146378994Y-91573334D01*
X146378112Y-91573889D01*
X146378014Y-91573734D01*
X146316487Y-91598855D01*
X146303858Y-91599500D01*
X145491083Y-91599500D01*
X145424044Y-91579815D01*
X145378289Y-91527011D01*
X145368345Y-91457853D01*
X145397370Y-91394297D01*
X145425111Y-91370506D01*
X145434742Y-91364453D01*
X145523215Y-91308863D01*
X145650769Y-91181309D01*
X145746742Y-91028569D01*
X145806321Y-90858302D01*
X145806322Y-90858296D01*
X145826518Y-90679050D01*
X145826518Y-90679043D01*
X145805542Y-90492872D01*
X145807425Y-90492659D01*
X145811116Y-90432364D01*
X145852409Y-90376003D01*
X145917619Y-90350913D01*
X145927737Y-90350500D01*
X154703858Y-90350500D01*
X154770897Y-90370185D01*
X154781173Y-90377555D01*
X154784006Y-90379814D01*
X154784008Y-90379816D01*
X154936748Y-90475789D01*
X155005345Y-90499792D01*
X155107015Y-90535368D01*
X155107020Y-90535369D01*
X155286266Y-90555565D01*
X155286270Y-90555565D01*
X155286274Y-90555565D01*
X155465519Y-90535369D01*
X155465522Y-90535368D01*
X155465525Y-90535368D01*
X155635792Y-90475789D01*
X155788532Y-90379816D01*
X155916086Y-90252262D01*
X156012059Y-90099522D01*
X156071638Y-89929255D01*
X156074967Y-89899710D01*
X156091835Y-89750003D01*
X156091835Y-89749996D01*
X156071639Y-89570750D01*
X156071638Y-89570745D01*
X156020520Y-89424658D01*
X156012059Y-89400478D01*
X155916086Y-89247738D01*
X155788532Y-89120184D01*
X155635793Y-89024211D01*
X155465524Y-88964631D01*
X155465519Y-88964630D01*
X155286274Y-88944435D01*
X155286266Y-88944435D01*
X155107020Y-88964630D01*
X155107015Y-88964631D01*
X154936746Y-89024211D01*
X154784006Y-89120185D01*
X154781173Y-89122445D01*
X154778994Y-89123334D01*
X154778112Y-89123889D01*
X154778014Y-89123734D01*
X154716487Y-89148855D01*
X154703858Y-89149500D01*
X151410689Y-89149500D01*
X151343650Y-89129815D01*
X151297895Y-89077011D01*
X151287469Y-89039385D01*
X151285369Y-89020749D01*
X151285368Y-89020745D01*
X151280857Y-89007853D01*
X151225789Y-88850478D01*
X151225188Y-88849522D01*
X151159276Y-88744623D01*
X151129816Y-88697738D01*
X151002262Y-88570184D01*
X150968890Y-88549215D01*
X150849523Y-88474211D01*
X150679254Y-88414631D01*
X150679249Y-88414630D01*
X150500004Y-88394435D01*
X150499996Y-88394435D01*
X150320750Y-88414630D01*
X150320745Y-88414631D01*
X150150476Y-88474211D01*
X149997736Y-88570185D01*
X149994903Y-88572445D01*
X149992724Y-88573334D01*
X149991842Y-88573889D01*
X149991744Y-88573734D01*
X149930217Y-88598855D01*
X149917588Y-88599500D01*
X149382412Y-88599500D01*
X149315373Y-88579815D01*
X149305097Y-88572445D01*
X149302263Y-88570185D01*
X149302262Y-88570184D01*
X149245496Y-88534515D01*
X149149523Y-88474211D01*
X148979254Y-88414631D01*
X148979249Y-88414630D01*
X148800004Y-88394435D01*
X148799996Y-88394435D01*
X148620750Y-88414630D01*
X148620745Y-88414631D01*
X148450476Y-88474211D01*
X148297737Y-88570184D01*
X148170184Y-88697737D01*
X148074211Y-88850476D01*
X148014631Y-89020745D01*
X148014630Y-89020749D01*
X148012531Y-89039385D01*
X147985464Y-89103799D01*
X147927868Y-89143353D01*
X147889311Y-89149500D01*
X142047931Y-89149500D01*
X141980892Y-89129815D01*
X141935137Y-89077011D01*
X141925193Y-89007853D01*
X141942938Y-88959527D01*
X141970982Y-88914895D01*
X142012059Y-88849522D01*
X142071638Y-88679255D01*
X142081431Y-88592329D01*
X142108496Y-88527918D01*
X142116960Y-88518543D01*
X144498687Y-86136819D01*
X144560010Y-86103334D01*
X144586368Y-86100500D01*
X148536643Y-86100500D01*
X148603682Y-86120185D01*
X148624324Y-86136819D01*
X148671508Y-86184003D01*
X148720251Y-86214630D01*
X148823991Y-86279815D01*
X148824248Y-86279976D01*
X148994515Y-86339555D01*
X148994520Y-86339556D01*
X149173766Y-86359752D01*
X149173770Y-86359752D01*
X149173774Y-86359752D01*
X149353019Y-86339556D01*
X149353022Y-86339555D01*
X149353025Y-86339555D01*
X149523292Y-86279976D01*
X149676032Y-86184003D01*
X149803586Y-86056449D01*
X149899559Y-85903709D01*
X149959138Y-85733442D01*
X149968737Y-85648252D01*
X149979335Y-85554190D01*
X149979335Y-85554183D01*
X149959139Y-85374937D01*
X149959138Y-85374932D01*
X149899558Y-85204663D01*
X149860352Y-85142267D01*
X149803586Y-85051925D01*
X149676032Y-84924371D01*
X149636450Y-84899500D01*
X149523293Y-84828398D01*
X149353024Y-84768818D01*
X149353019Y-84768817D01*
X149173774Y-84748622D01*
X149173766Y-84748622D01*
X148994520Y-84768817D01*
X148994515Y-84768818D01*
X148824247Y-84828398D01*
X148753605Y-84872785D01*
X148742419Y-84879815D01*
X148741338Y-84880494D01*
X148675366Y-84899500D01*
X147880296Y-84899500D01*
X147813257Y-84879815D01*
X147767502Y-84827011D01*
X147757076Y-84761616D01*
X147766835Y-84675002D01*
X147766835Y-84674996D01*
X147746639Y-84495750D01*
X147746638Y-84495745D01*
X147713927Y-84402262D01*
X147687059Y-84325478D01*
X147591086Y-84172738D01*
X147463532Y-84045184D01*
X147430154Y-84024211D01*
X147310793Y-83949211D01*
X147140524Y-83889631D01*
X147140519Y-83889630D01*
X146961274Y-83869435D01*
X146961266Y-83869435D01*
X146782020Y-83889630D01*
X146782015Y-83889631D01*
X146611746Y-83949211D01*
X146459006Y-84045185D01*
X146456173Y-84047445D01*
X146453994Y-84048334D01*
X146453112Y-84048889D01*
X146453014Y-84048734D01*
X146391487Y-84073855D01*
X146378858Y-84074500D01*
X141130739Y-84074500D01*
X141089818Y-84085464D01*
X141089818Y-84085465D01*
X141052550Y-84095451D01*
X140978013Y-84115423D01*
X140978012Y-84115424D01*
X140937266Y-84138948D01*
X140869366Y-84155418D01*
X140803339Y-84132565D01*
X140791535Y-84122579D01*
X140788532Y-84120184D01*
X140635793Y-84024211D01*
X140465524Y-83964631D01*
X140465519Y-83964630D01*
X140286274Y-83944435D01*
X140286266Y-83944435D01*
X140107020Y-83964630D01*
X140107015Y-83964631D01*
X139936746Y-84024211D01*
X139784006Y-84120185D01*
X139781173Y-84122445D01*
X139778994Y-84123334D01*
X139778112Y-84123889D01*
X139778014Y-84123734D01*
X139716487Y-84148855D01*
X139703858Y-84149500D01*
X136368682Y-84149500D01*
X136301643Y-84129815D01*
X136291367Y-84122445D01*
X136288533Y-84120185D01*
X136288532Y-84120184D01*
X136223384Y-84079249D01*
X136135793Y-84024211D01*
X135965524Y-83964631D01*
X135965519Y-83964630D01*
X135786274Y-83944435D01*
X135786266Y-83944435D01*
X135607020Y-83964630D01*
X135607015Y-83964631D01*
X135436746Y-84024211D01*
X135284007Y-84120184D01*
X135156454Y-84247737D01*
X135060481Y-84400476D01*
X135000901Y-84570745D01*
X135000900Y-84570750D01*
X134980705Y-84749996D01*
X134980705Y-84750003D01*
X135000900Y-84929249D01*
X135000901Y-84929254D01*
X135060481Y-85099523D01*
X135072220Y-85118205D01*
X135091220Y-85185442D01*
X135070852Y-85252277D01*
X135017584Y-85297491D01*
X134948328Y-85306728D01*
X134885072Y-85277057D01*
X134879545Y-85271858D01*
X132821044Y-83213357D01*
X132821042Y-83213354D01*
X132702171Y-83094483D01*
X132702170Y-83094482D01*
X132615358Y-83044362D01*
X132615358Y-83044361D01*
X132615354Y-83044360D01*
X132565239Y-83015425D01*
X132412511Y-82974501D01*
X132254397Y-82974501D01*
X132246801Y-82974501D01*
X132246785Y-82974502D01*
X129297938Y-82974502D01*
X129297922Y-82974501D01*
X129290326Y-82974501D01*
X129132211Y-82974501D01*
X129030393Y-83001783D01*
X128979483Y-83015425D01*
X128854458Y-83087608D01*
X128806342Y-83103440D01*
X128707020Y-83114630D01*
X128536748Y-83174210D01*
X128384007Y-83270184D01*
X128256454Y-83397737D01*
X128160481Y-83550476D01*
X128100901Y-83720745D01*
X128100900Y-83720750D01*
X128080705Y-83899996D01*
X125498888Y-83899996D01*
X125500453Y-79624097D01*
X125520162Y-79557067D01*
X125572983Y-79511332D01*
X125624095Y-79500146D01*
X128261916Y-79492610D01*
X128329011Y-79512102D01*
X128374917Y-79564776D01*
X128386270Y-79616609D01*
X128386270Y-82575000D01*
X135986270Y-82575000D01*
X135986270Y-79594186D01*
X136005955Y-79527147D01*
X136058759Y-79481392D01*
X136109912Y-79470187D01*
X160375100Y-79400858D01*
X160442194Y-79420350D01*
G37*
%TD.AperFunction*%
%TA.AperFunction,Conductor*%
G36*
X128355338Y-106322048D02*
G01*
X128399685Y-106350549D01*
X128865906Y-106816770D01*
X128891778Y-106779290D01*
X128947751Y-106631700D01*
X128949547Y-106624414D01*
X128951685Y-106624941D01*
X128974957Y-106570843D01*
X129032883Y-106531775D01*
X129100122Y-106529552D01*
X129183082Y-106550000D01*
X129305739Y-106550000D01*
X129372778Y-106569685D01*
X129418533Y-106622489D01*
X129428477Y-106691647D01*
X129399452Y-106755203D01*
X129387876Y-106766315D01*
X129256454Y-106897737D01*
X129160480Y-107050478D01*
X129144938Y-107094896D01*
X129103038Y-107214638D01*
X129062318Y-107271413D01*
X128997366Y-107297161D01*
X128985998Y-107297683D01*
X128646282Y-107297683D01*
X128579243Y-107277998D01*
X128533488Y-107225194D01*
X128523544Y-107156036D01*
X128552569Y-107092480D01*
X128588655Y-107063887D01*
X128654304Y-107029430D01*
X128312006Y-106687132D01*
X128312005Y-106687132D01*
X127969704Y-107029430D01*
X128035354Y-107063887D01*
X128085567Y-107112472D01*
X128101541Y-107180491D01*
X128078206Y-107246348D01*
X128022969Y-107289135D01*
X127977728Y-107297683D01*
X127341202Y-107297683D01*
X127274163Y-107277998D01*
X127228408Y-107225194D01*
X127218464Y-107156036D01*
X127220311Y-107146090D01*
X127221639Y-107140271D01*
X127241835Y-106961023D01*
X127241835Y-106961016D01*
X127221639Y-106781770D01*
X127221636Y-106781757D01*
X127198261Y-106714955D01*
X127194699Y-106645176D01*
X127229427Y-106584549D01*
X127291421Y-106552321D01*
X127315302Y-106550000D01*
X127440928Y-106550000D01*
X127523887Y-106529552D01*
X127593689Y-106532621D01*
X127650752Y-106572940D01*
X127672447Y-106624910D01*
X127674462Y-106624414D01*
X127676257Y-106631697D01*
X127732227Y-106779283D01*
X127732230Y-106779288D01*
X127758101Y-106816770D01*
X128119763Y-106455109D01*
X128212005Y-106455109D01*
X128212005Y-106494891D01*
X128227229Y-106531645D01*
X128255360Y-106559776D01*
X128292114Y-106575000D01*
X128331896Y-106575000D01*
X128368650Y-106559776D01*
X128396781Y-106531645D01*
X128412005Y-106494891D01*
X128412005Y-106455109D01*
X128396781Y-106418355D01*
X128368650Y-106390224D01*
X128331896Y-106375000D01*
X128292114Y-106375000D01*
X128255360Y-106390224D01*
X128227229Y-106418355D01*
X128212005Y-106455109D01*
X128119763Y-106455109D01*
X128224323Y-106350549D01*
X128285646Y-106317064D01*
X128355338Y-106322048D01*
G37*
%TD.AperFunction*%
%TD*%
M02*
