%TF.GenerationSoftware,KiCad,Pcbnew,8.0.4*%
%TF.CreationDate,2025-10-30T08:56:40-04:00*%
%TF.ProjectId,Official Schematic,4f666669-6369-4616-9c20-536368656d61,rev?*%
%TF.SameCoordinates,Original*%
%TF.FileFunction,Soldermask,Top*%
%TF.FilePolarity,Negative*%
%FSLAX46Y46*%
G04 Gerber Fmt 4.6, Leading zero omitted, Abs format (unit mm)*
G04 Created by KiCad (PCBNEW 8.0.4) date 2025-10-30 08:56:40*
%MOMM*%
%LPD*%
G01*
G04 APERTURE LIST*
G04 Aperture macros list*
%AMRoundRect*
0 Rectangle with rounded corners*
0 $1 Rounding radius*
0 $2 $3 $4 $5 $6 $7 $8 $9 X,Y pos of 4 corners*
0 Add a 4 corners polygon primitive as box body*
4,1,4,$2,$3,$4,$5,$6,$7,$8,$9,$2,$3,0*
0 Add four circle primitives for the rounded corners*
1,1,$1+$1,$2,$3*
1,1,$1+$1,$4,$5*
1,1,$1+$1,$6,$7*
1,1,$1+$1,$8,$9*
0 Add four rect primitives between the rounded corners*
20,1,$1+$1,$2,$3,$4,$5,0*
20,1,$1+$1,$4,$5,$6,$7,0*
20,1,$1+$1,$6,$7,$8,$9,0*
20,1,$1+$1,$8,$9,$2,$3,0*%
G04 Aperture macros list end*
%ADD10C,0.010000*%
%ADD11C,1.500000*%
%ADD12RoundRect,0.100000X0.100000X-0.217500X0.100000X0.217500X-0.100000X0.217500X-0.100000X-0.217500X0*%
%ADD13RoundRect,0.250000X-0.250000X-1.500000X0.250000X-1.500000X0.250000X1.500000X-0.250000X1.500000X0*%
%ADD14RoundRect,0.250001X-0.499999X-1.449999X0.499999X-1.449999X0.499999X1.449999X-0.499999X1.449999X0*%
%ADD15RoundRect,0.100000X0.217500X0.100000X-0.217500X0.100000X-0.217500X-0.100000X0.217500X-0.100000X0*%
%ADD16RoundRect,0.100000X-0.217500X-0.100000X0.217500X-0.100000X0.217500X0.100000X-0.217500X0.100000X0*%
%ADD17RoundRect,0.250000X0.625000X-0.350000X0.625000X0.350000X-0.625000X0.350000X-0.625000X-0.350000X0*%
%ADD18O,1.750000X1.200000*%
%ADD19RoundRect,0.102000X0.525000X-0.700000X0.525000X0.700000X-0.525000X0.700000X-0.525000X-0.700000X0*%
%ADD20RoundRect,0.100000X-0.100000X0.217500X-0.100000X-0.217500X0.100000X-0.217500X0.100000X0.217500X0*%
%ADD21RoundRect,0.102000X-0.635000X-0.279400X0.635000X-0.279400X0.635000X0.279400X-0.635000X0.279400X0*%
%ADD22R,0.350000X0.350000*%
%ADD23R,0.350000X0.300000*%
%ADD24R,0.300000X0.350000*%
%ADD25R,0.600000X0.600000*%
%ADD26R,0.430000X0.430000*%
%ADD27R,0.558800X0.812800*%
%ADD28R,0.400000X1.650000*%
%ADD29R,1.825000X0.700000*%
%ADD30R,2.000000X1.500000*%
%ADD31R,1.350000X2.000000*%
%ADD32O,1.350000X1.700000*%
%ADD33O,1.100000X1.500000*%
%ADD34R,1.430000X2.500000*%
%ADD35RoundRect,0.100000X-0.100000X0.130000X-0.100000X-0.130000X0.100000X-0.130000X0.100000X0.130000X0*%
%ADD36RoundRect,0.218750X0.218750X0.256250X-0.218750X0.256250X-0.218750X-0.256250X0.218750X-0.256250X0*%
%ADD37RoundRect,0.102000X-0.237500X-0.125000X0.237500X-0.125000X0.237500X0.125000X-0.237500X0.125000X0*%
%ADD38RoundRect,0.102000X-0.125000X-0.237500X0.125000X-0.237500X0.125000X0.237500X-0.125000X0.237500X0*%
G04 APERTURE END LIST*
D10*
%TO.C,U1*%
X127502005Y-104870000D02*
X127122005Y-104870000D01*
X127122005Y-104130000D01*
X127502005Y-104130000D01*
X127502005Y-104870000D01*
G36*
X127502005Y-104870000D02*
G01*
X127122005Y-104870000D01*
X127122005Y-104130000D01*
X127502005Y-104130000D01*
X127502005Y-104870000D01*
G37*
X127502005Y-107670000D02*
X127122005Y-107670000D01*
X127122005Y-106930000D01*
X127502005Y-106930000D01*
X127502005Y-107670000D01*
G36*
X127502005Y-107670000D02*
G01*
X127122005Y-107670000D01*
X127122005Y-106930000D01*
X127502005Y-106930000D01*
X127502005Y-107670000D01*
G37*
X128002005Y-104870000D02*
X127622005Y-104870000D01*
X127622005Y-104130000D01*
X128002005Y-104130000D01*
X128002005Y-104870000D01*
G36*
X128002005Y-104870000D02*
G01*
X127622005Y-104870000D01*
X127622005Y-104130000D01*
X128002005Y-104130000D01*
X128002005Y-104870000D01*
G37*
X128002005Y-107670000D02*
X127622005Y-107670000D01*
X127622005Y-106930000D01*
X128002005Y-106930000D01*
X128002005Y-107670000D01*
G36*
X128002005Y-107670000D02*
G01*
X127622005Y-107670000D01*
X127622005Y-106930000D01*
X128002005Y-106930000D01*
X128002005Y-107670000D01*
G37*
X128502005Y-104870000D02*
X128122005Y-104870000D01*
X128122005Y-104130000D01*
X128502005Y-104130000D01*
X128502005Y-104870000D01*
G36*
X128502005Y-104870000D02*
G01*
X128122005Y-104870000D01*
X128122005Y-104130000D01*
X128502005Y-104130000D01*
X128502005Y-104870000D01*
G37*
X128502005Y-107670000D02*
X128122005Y-107670000D01*
X128122005Y-106930000D01*
X128502005Y-106930000D01*
X128502005Y-107670000D01*
G36*
X128502005Y-107670000D02*
G01*
X128122005Y-107670000D01*
X128122005Y-106930000D01*
X128502005Y-106930000D01*
X128502005Y-107670000D01*
G37*
X129002005Y-104870000D02*
X128622005Y-104870000D01*
X128622005Y-104130000D01*
X129002005Y-104130000D01*
X129002005Y-104870000D01*
G36*
X129002005Y-104870000D02*
G01*
X128622005Y-104870000D01*
X128622005Y-104130000D01*
X129002005Y-104130000D01*
X129002005Y-104870000D01*
G37*
X129002005Y-107670000D02*
X128622005Y-107670000D01*
X128622005Y-106930000D01*
X129002005Y-106930000D01*
X129002005Y-107670000D01*
G36*
X129002005Y-107670000D02*
G01*
X128622005Y-107670000D01*
X128622005Y-106930000D01*
X129002005Y-106930000D01*
X129002005Y-107670000D01*
G37*
X129502005Y-104870000D02*
X129122005Y-104870000D01*
X129122005Y-104130000D01*
X129502005Y-104130000D01*
X129502005Y-104870000D01*
G36*
X129502005Y-104870000D02*
G01*
X129122005Y-104870000D01*
X129122005Y-104130000D01*
X129502005Y-104130000D01*
X129502005Y-104870000D01*
G37*
X129502005Y-107670000D02*
X129122005Y-107670000D01*
X129122005Y-106930000D01*
X129502005Y-106930000D01*
X129502005Y-107670000D01*
G36*
X129502005Y-107670000D02*
G01*
X129122005Y-107670000D01*
X129122005Y-106930000D01*
X129502005Y-106930000D01*
X129502005Y-107670000D01*
G37*
X129582005Y-105455000D02*
X130082005Y-105455000D01*
X130082005Y-105845000D01*
X129582005Y-105845000D01*
X129582005Y-105955000D01*
X130082005Y-105955000D01*
X130082005Y-106345000D01*
X129582005Y-106345000D01*
X129582005Y-106795000D01*
X127042005Y-106795000D01*
X127042005Y-106345000D01*
X126542005Y-106345000D01*
X126542005Y-105955000D01*
X127042005Y-105955000D01*
X127042005Y-105845000D01*
X126542005Y-105845000D01*
X126542005Y-105455000D01*
X127042005Y-105455000D01*
X127042005Y-105005000D01*
X129582005Y-105005000D01*
X129582005Y-105455000D01*
G36*
X129582005Y-105455000D02*
G01*
X130082005Y-105455000D01*
X130082005Y-105845000D01*
X129582005Y-105845000D01*
X129582005Y-105955000D01*
X130082005Y-105955000D01*
X130082005Y-106345000D01*
X129582005Y-106345000D01*
X129582005Y-106795000D01*
X127042005Y-106795000D01*
X127042005Y-106345000D01*
X126542005Y-106345000D01*
X126542005Y-105955000D01*
X127042005Y-105955000D01*
X127042005Y-105845000D01*
X126542005Y-105845000D01*
X126542005Y-105455000D01*
X127042005Y-105455000D01*
X127042005Y-105005000D01*
X129582005Y-105005000D01*
X129582005Y-105455000D01*
G37*
%TD*%
D11*
%TO.C,MISO1*%
X144500000Y-80800000D03*
%TD*%
D12*
%TO.C,C3*%
X132586270Y-106307500D03*
X132586270Y-105492500D03*
%TD*%
D13*
%TO.C,J1*%
X136893770Y-109492500D03*
X138893770Y-109492500D03*
D14*
X134543770Y-115242500D03*
X141243770Y-115242500D03*
%TD*%
D11*
%TO.C,GND1*%
X130186270Y-115800000D03*
%TD*%
%TO.C,MOSI1*%
X151086270Y-80800000D03*
%TD*%
%TO.C,TP1*%
X134643770Y-97992500D03*
%TD*%
D15*
%TO.C,R2*%
X139733770Y-100492500D03*
X138918770Y-100492500D03*
%TD*%
D16*
%TO.C,R1*%
X130286270Y-108500000D03*
X131101270Y-108500000D03*
%TD*%
D15*
%TO.C,C9*%
X150407500Y-89900000D03*
X149592500Y-89900000D03*
%TD*%
D17*
%TO.C,J4*%
X157300000Y-107800000D03*
D18*
X157300000Y-105800000D03*
X157300000Y-103800000D03*
X157300000Y-101800000D03*
X157300000Y-99800000D03*
X157300000Y-97800000D03*
%TD*%
D19*
%TO.C,S1*%
X158436270Y-94200000D03*
X158436270Y-90600000D03*
X159886270Y-94200000D03*
X159886270Y-90600000D03*
%TD*%
D20*
%TO.C,R4*%
X149936348Y-91953602D03*
X149936348Y-92768602D03*
%TD*%
D12*
%TO.C,C15*%
X151600000Y-88240000D03*
X151600000Y-87425000D03*
%TD*%
D15*
%TO.C,FB1*%
X127518770Y-83900000D03*
X126703770Y-83900000D03*
%TD*%
%TO.C,R3*%
X137368770Y-100492500D03*
X136553770Y-100492500D03*
%TD*%
D20*
%TO.C,R5*%
X149936348Y-94703602D03*
X149936348Y-95518602D03*
%TD*%
D12*
%TO.C,C5*%
X133886270Y-106307500D03*
X133886270Y-105492500D03*
%TD*%
D15*
%TO.C,L1*%
X128693770Y-103100000D03*
X127878770Y-103100000D03*
%TD*%
D17*
%TO.C,J3*%
X157286270Y-114900000D03*
D18*
X157286270Y-112900000D03*
%TD*%
D21*
%TO.C,U2*%
X136802970Y-102612900D03*
X136802970Y-103552700D03*
X136802970Y-104492500D03*
X139393770Y-104492500D03*
X139393770Y-102612900D03*
%TD*%
D22*
%TO.C,U4*%
X130161270Y-83500000D03*
D23*
X130161270Y-83975000D03*
X130161270Y-84425000D03*
X130161270Y-84875000D03*
X130161270Y-85325000D03*
X130161270Y-85775000D03*
X130161270Y-86225000D03*
X130161270Y-86675000D03*
X130161270Y-87125000D03*
X130161270Y-87575000D03*
X130161270Y-88025000D03*
X130161270Y-88475000D03*
X130161270Y-88925000D03*
X130161270Y-89375000D03*
X130161270Y-89825000D03*
X130161270Y-90275000D03*
D22*
X130161270Y-90750000D03*
D24*
X130636270Y-90750000D03*
X131086270Y-90750000D03*
X131536270Y-90750000D03*
X131986270Y-90750000D03*
X132436270Y-90750000D03*
X132886270Y-90750000D03*
X133336270Y-90750000D03*
X133786270Y-90750000D03*
X134236270Y-90750000D03*
X134686270Y-90750000D03*
X135136270Y-90750000D03*
X135586270Y-90750000D03*
X136036270Y-90750000D03*
D22*
X136511270Y-90750000D03*
D23*
X136511270Y-90275000D03*
X136511270Y-89825000D03*
X136511270Y-89375000D03*
X136511270Y-88925000D03*
X136511270Y-88475000D03*
X136511270Y-88025000D03*
X136511270Y-87575000D03*
X136511270Y-87125000D03*
X136511270Y-86675000D03*
X136511270Y-86225000D03*
X136511270Y-85775000D03*
X136511270Y-85325000D03*
X136511270Y-84875000D03*
X136511270Y-84425000D03*
X136511270Y-83975000D03*
D22*
X136511270Y-83500000D03*
D24*
X136036270Y-83500000D03*
X135586270Y-83500000D03*
X135136270Y-83500000D03*
X134686270Y-83500000D03*
X134236270Y-83500000D03*
X133786270Y-83500000D03*
X133336270Y-83500000D03*
X132886270Y-83500000D03*
X132436270Y-83500000D03*
X131986270Y-83500000D03*
X131536270Y-83500000D03*
X131086270Y-83500000D03*
X130636270Y-83500000D03*
D25*
X131986270Y-84875000D03*
X131986270Y-85775000D03*
X131986270Y-86675000D03*
X131986270Y-87575000D03*
X131986270Y-88475000D03*
X131986270Y-89375000D03*
X132886270Y-89375000D03*
X133786270Y-89375000D03*
X134686270Y-89375000D03*
X134686270Y-88475000D03*
X134686270Y-87575000D03*
X134686270Y-86675000D03*
X134686270Y-85775000D03*
X134686270Y-84875000D03*
X133786270Y-84875000D03*
X132886270Y-84875000D03*
X132886270Y-85775000D03*
X132886270Y-86675000D03*
X132886270Y-87575000D03*
X132886270Y-88475000D03*
X133786270Y-88475000D03*
X133786270Y-87575000D03*
X133786270Y-86675000D03*
X133786270Y-85775000D03*
D26*
X130286270Y-80540000D03*
X136386270Y-80540000D03*
%TD*%
D27*
%TO.C,D2*%
X152686348Y-94193600D03*
X153586270Y-94193600D03*
X153586270Y-95793602D03*
X152686348Y-95793602D03*
%TD*%
D16*
%TO.C,C12*%
X126746270Y-95700000D03*
X127561270Y-95700000D03*
%TD*%
D11*
%TO.C,SCX1*%
X154200000Y-80800000D03*
%TD*%
%TO.C,3.3V1*%
X158536270Y-88000000D03*
%TD*%
D28*
%TO.C,J5*%
X148363770Y-112112500D03*
X149013770Y-112112500D03*
X149663770Y-112112500D03*
X150313770Y-112112500D03*
X150963770Y-112112500D03*
D29*
X146713770Y-113312500D03*
D30*
X146813770Y-112012500D03*
D31*
X146933770Y-114062500D03*
D32*
X146933770Y-114992500D03*
D33*
X147243770Y-111992500D03*
D34*
X148703770Y-115262500D03*
X150623770Y-115262500D03*
D33*
X152083770Y-111992500D03*
D32*
X152393770Y-114992500D03*
D31*
X152413770Y-114062500D03*
D30*
X152563770Y-111992500D03*
D29*
X152663770Y-113312500D03*
%TD*%
D35*
%TO.C,R6*%
X149936348Y-97225000D03*
X149936348Y-97865000D03*
%TD*%
D15*
%TO.C,C7*%
X127561270Y-86950000D03*
X126746270Y-86950000D03*
%TD*%
%TO.C,C13*%
X127561270Y-90450000D03*
X126746270Y-90450000D03*
%TD*%
D12*
%TO.C,C14*%
X125886270Y-106307500D03*
X125886270Y-105492500D03*
%TD*%
D20*
%TO.C,C2*%
X130986270Y-105492500D03*
X130986270Y-106307500D03*
%TD*%
D15*
%TO.C,C6*%
X127536270Y-85500000D03*
X126721270Y-85500000D03*
%TD*%
D36*
%TO.C,D1*%
X147875000Y-100992500D03*
X146300000Y-100992500D03*
%TD*%
D12*
%TO.C,C1*%
X141643770Y-104400000D03*
X141643770Y-103585000D03*
%TD*%
D16*
%TO.C,C10*%
X126746270Y-92300000D03*
X127561270Y-92300000D03*
%TD*%
%TO.C,C11*%
X126746270Y-93950000D03*
X127561270Y-93950000D03*
%TD*%
D12*
%TO.C,C4*%
X134643770Y-104492500D03*
X134643770Y-103677500D03*
%TD*%
D37*
%TO.C,U3*%
X147961270Y-86500000D03*
X147961270Y-87000000D03*
X147961270Y-87500000D03*
X147961270Y-88000000D03*
D38*
X148623770Y-88162500D03*
X149123770Y-88162500D03*
X149623770Y-88162500D03*
D37*
X150286270Y-88000000D03*
X150286270Y-87500000D03*
X150286270Y-87000000D03*
X150286270Y-86500000D03*
D38*
X149623770Y-86337500D03*
X149123770Y-86337500D03*
X148623770Y-86337500D03*
%TD*%
D11*
%TO.C,CSB1*%
X158500000Y-80800000D03*
%TD*%
D15*
%TO.C,C8*%
X127561270Y-88450000D03*
X126746270Y-88450000D03*
%TD*%
M02*
