%TF.GenerationSoftware,KiCad,Pcbnew,8.0.4*%
%TF.CreationDate,2025-10-30T08:56:40-04:00*%
%TF.ProjectId,Official Schematic,4f666669-6369-4616-9c20-536368656d61,rev?*%
%TF.SameCoordinates,Original*%
%TF.FileFunction,Copper,L1,Top*%
%TF.FilePolarity,Positive*%
%FSLAX46Y46*%
G04 Gerber Fmt 4.6, Leading zero omitted, Abs format (unit mm)*
G04 Created by KiCad (PCBNEW 8.0.4) date 2025-10-30 08:56:40*
%MOMM*%
%LPD*%
G01*
G04 APERTURE LIST*
G04 Aperture macros list*
%AMRoundRect*
0 Rectangle with rounded corners*
0 $1 Rounding radius*
0 $2 $3 $4 $5 $6 $7 $8 $9 X,Y pos of 4 corners*
0 Add a 4 corners polygon primitive as box body*
4,1,4,$2,$3,$4,$5,$6,$7,$8,$9,$2,$3,0*
0 Add four circle primitives for the rounded corners*
1,1,$1+$1,$2,$3*
1,1,$1+$1,$4,$5*
1,1,$1+$1,$6,$7*
1,1,$1+$1,$8,$9*
0 Add four rect primitives between the rounded corners*
20,1,$1+$1,$2,$3,$4,$5,0*
20,1,$1+$1,$4,$5,$6,$7,0*
20,1,$1+$1,$6,$7,$8,$9,0*
20,1,$1+$1,$8,$9,$2,$3,0*%
%AMFreePoly0*
4,1,45,-0.121464,1.703536,-0.120000,1.700000,-0.120000,1.205000,0.120000,1.205000,0.120000,1.700000,0.121464,1.703536,0.125000,1.705000,0.375000,1.705000,0.378536,1.703536,0.380000,1.700000,0.380000,1.205000,0.825000,1.205000,0.828536,1.203536,0.830000,1.200000,0.830000,-1.200000,0.828536,-1.203536,0.825000,-1.205000,0.380000,-1.205000,0.380000,-1.700000,0.378536,-1.703536,
0.375000,-1.705000,0.125000,-1.705000,0.121464,-1.703536,0.120000,-1.700000,0.120000,-1.205000,-0.120000,-1.205000,-0.120000,-1.700000,-0.121464,-1.703536,-0.125000,-1.705000,-0.375000,-1.705000,-0.378536,-1.703536,-0.380000,-1.700000,-0.380000,-1.205000,-0.825000,-1.205000,-0.828536,-1.203536,-0.830000,-1.200000,-0.830000,1.200000,-0.828536,1.203536,-0.825000,1.205000,-0.380000,1.205000,
-0.380000,1.700000,-0.378536,1.703536,-0.375000,1.705000,-0.125000,1.705000,-0.121464,1.703536,-0.121464,1.703536,$1*%
G04 Aperture macros list end*
%TA.AperFunction,SMDPad,CuDef*%
%ADD10C,1.500000*%
%TD*%
%TA.AperFunction,SMDPad,CuDef*%
%ADD11RoundRect,0.100000X0.100000X-0.217500X0.100000X0.217500X-0.100000X0.217500X-0.100000X-0.217500X0*%
%TD*%
%TA.AperFunction,SMDPad,CuDef*%
%ADD12RoundRect,0.250000X-0.250000X-1.500000X0.250000X-1.500000X0.250000X1.500000X-0.250000X1.500000X0*%
%TD*%
%TA.AperFunction,SMDPad,CuDef*%
%ADD13RoundRect,0.250001X-0.499999X-1.449999X0.499999X-1.449999X0.499999X1.449999X-0.499999X1.449999X0*%
%TD*%
%TA.AperFunction,SMDPad,CuDef*%
%ADD14RoundRect,0.100000X0.217500X0.100000X-0.217500X0.100000X-0.217500X-0.100000X0.217500X-0.100000X0*%
%TD*%
%TA.AperFunction,SMDPad,CuDef*%
%ADD15RoundRect,0.100000X-0.217500X-0.100000X0.217500X-0.100000X0.217500X0.100000X-0.217500X0.100000X0*%
%TD*%
%TA.AperFunction,ComponentPad*%
%ADD16RoundRect,0.250000X0.625000X-0.350000X0.625000X0.350000X-0.625000X0.350000X-0.625000X-0.350000X0*%
%TD*%
%TA.AperFunction,ComponentPad*%
%ADD17O,1.750000X1.200000*%
%TD*%
%TA.AperFunction,SMDPad,CuDef*%
%ADD18R,1.050000X1.400000*%
%TD*%
%TA.AperFunction,SMDPad,CuDef*%
%ADD19RoundRect,0.100000X-0.100000X0.217500X-0.100000X-0.217500X0.100000X-0.217500X0.100000X0.217500X0*%
%TD*%
%TA.AperFunction,SMDPad,CuDef*%
%ADD20RoundRect,0.030000X0.090000X-0.270000X0.090000X0.270000X-0.090000X0.270000X-0.090000X-0.270000X0*%
%TD*%
%TA.AperFunction,SMDPad,CuDef*%
%ADD21FreePoly0,90.000000*%
%TD*%
%TA.AperFunction,ComponentPad*%
%ADD22C,0.300000*%
%TD*%
%TA.AperFunction,SMDPad,CuDef*%
%ADD23R,1.270000X0.558800*%
%TD*%
%TA.AperFunction,SMDPad,CuDef*%
%ADD24R,0.350000X0.350000*%
%TD*%
%TA.AperFunction,SMDPad,CuDef*%
%ADD25R,0.350000X0.300000*%
%TD*%
%TA.AperFunction,SMDPad,CuDef*%
%ADD26R,0.300000X0.350000*%
%TD*%
%TA.AperFunction,SMDPad,CuDef*%
%ADD27R,0.600000X0.600000*%
%TD*%
%TA.AperFunction,SMDPad,CuDef*%
%ADD28R,0.430000X0.430000*%
%TD*%
%TA.AperFunction,SMDPad,CuDef*%
%ADD29R,0.558800X0.812800*%
%TD*%
%TA.AperFunction,SMDPad,CuDef*%
%ADD30R,0.400000X1.650000*%
%TD*%
%TA.AperFunction,SMDPad,CuDef*%
%ADD31R,1.825000X0.700000*%
%TD*%
%TA.AperFunction,SMDPad,CuDef*%
%ADD32R,2.000000X1.500000*%
%TD*%
%TA.AperFunction,SMDPad,CuDef*%
%ADD33R,1.350000X2.000000*%
%TD*%
%TA.AperFunction,ComponentPad*%
%ADD34O,1.350000X1.700000*%
%TD*%
%TA.AperFunction,ComponentPad*%
%ADD35O,1.100000X1.500000*%
%TD*%
%TA.AperFunction,SMDPad,CuDef*%
%ADD36R,1.430000X2.500000*%
%TD*%
%TA.AperFunction,SMDPad,CuDef*%
%ADD37RoundRect,0.100000X-0.100000X0.130000X-0.100000X-0.130000X0.100000X-0.130000X0.100000X0.130000X0*%
%TD*%
%TA.AperFunction,SMDPad,CuDef*%
%ADD38RoundRect,0.218750X0.218750X0.256250X-0.218750X0.256250X-0.218750X-0.256250X0.218750X-0.256250X0*%
%TD*%
%TA.AperFunction,SMDPad,CuDef*%
%ADD39R,0.475000X0.250000*%
%TD*%
%TA.AperFunction,SMDPad,CuDef*%
%ADD40R,0.250000X0.475000*%
%TD*%
%TA.AperFunction,ViaPad*%
%ADD41C,0.600000*%
%TD*%
%TA.AperFunction,Conductor*%
%ADD42C,0.200000*%
%TD*%
G04 APERTURE END LIST*
D10*
%TO.P,MISO1,1,1*%
%TO.N,/SPI2 MISO*%
X144500000Y-80800000D03*
%TD*%
D11*
%TO.P,C3,1*%
%TO.N,+3.3V*%
X132586270Y-106307500D03*
%TO.P,C3,2*%
%TO.N,GND*%
X132586270Y-105492500D03*
%TD*%
D12*
%TO.P,J1,1,Pin_1*%
%TO.N,Net-(J1-Pin_1)*%
X136893770Y-109492500D03*
%TO.P,J1,2,Pin_2*%
%TO.N,GND*%
X138893770Y-109492500D03*
D13*
%TO.P,J1,MP*%
%TO.N,N/C*%
X134543770Y-115242500D03*
X141243770Y-115242500D03*
%TD*%
D10*
%TO.P,GND1,1,1*%
%TO.N,GND*%
X130186270Y-115800000D03*
%TD*%
%TO.P,MOSI1,1,1*%
%TO.N,/SPI2 MOSI*%
X151086270Y-80800000D03*
%TD*%
%TO.P,TP1,1,1*%
%TO.N,Net-(J1-Pin_1)*%
X134643770Y-97992500D03*
%TD*%
D14*
%TO.P,R2,1*%
%TO.N,Net-(U2-PROG)*%
X139733770Y-100492500D03*
%TO.P,R2,2*%
%TO.N,GND*%
X138918770Y-100492500D03*
%TD*%
D15*
%TO.P,R1,1*%
%TO.N,VBAT*%
X130286270Y-108500000D03*
%TO.P,R1,2*%
%TO.N,Net-(U1-EN)*%
X131101270Y-108500000D03*
%TD*%
D14*
%TO.P,C9,1*%
%TO.N,+3.3V*%
X150407500Y-89900000D03*
%TO.P,C9,2*%
%TO.N,GND*%
X149592500Y-89900000D03*
%TD*%
D16*
%TO.P,J4,1,Pin_1*%
%TO.N,+3.3V*%
X157300000Y-107800000D03*
D17*
%TO.P,J4,2,Pin_2*%
%TO.N,/SWDIO*%
X157300000Y-105800000D03*
%TO.P,J4,3,Pin_3*%
%TO.N,/SWCLK*%
X157300000Y-103800000D03*
%TO.P,J4,4,Pin_4*%
%TO.N,/SWO*%
X157300000Y-101800000D03*
%TO.P,J4,5,Pin_5*%
%TO.N,Net-(J4-Pin_5)*%
X157300000Y-99800000D03*
%TO.P,J4,6,Pin_6*%
%TO.N,GND*%
X157300000Y-97800000D03*
%TD*%
D18*
%TO.P,S1,1_1*%
%TO.N,/Switch*%
X158436270Y-94200000D03*
%TO.P,S1,1_2*%
X158436270Y-90600000D03*
%TO.P,S1,2_1*%
%TO.N,+3.3V*%
X159886270Y-94200000D03*
%TO.P,S1,2_2*%
X159886270Y-90600000D03*
%TD*%
D19*
%TO.P,R4,1*%
%TO.N,Net-(U4-PB8)*%
X149936348Y-91953602D03*
%TO.P,R4,2*%
%TO.N,Net-(D2-Pad1)*%
X149936348Y-92768602D03*
%TD*%
D11*
%TO.P,C15,1*%
%TO.N,+3.3V*%
X151600000Y-88240000D03*
%TO.P,C15,2*%
%TO.N,GND*%
X151600000Y-87425000D03*
%TD*%
D14*
%TO.P,FB1,1*%
%TO.N,+3.3V*%
X127518770Y-83900000D03*
%TO.P,FB1,2*%
X126703770Y-83900000D03*
%TD*%
%TO.P,R3,1*%
%TO.N,Net-(D1-K)*%
X137368770Y-100492500D03*
%TO.P,R3,2*%
%TO.N,Net-(U2-STAT)*%
X136553770Y-100492500D03*
%TD*%
D19*
%TO.P,R5,1*%
%TO.N,Net-(U4-PB4)*%
X149936348Y-94703602D03*
%TO.P,R5,2*%
%TO.N,Net-(D2-Pad2)*%
X149936348Y-95518602D03*
%TD*%
D11*
%TO.P,C5,1*%
%TO.N,+3.3V*%
X133886270Y-106307500D03*
%TO.P,C5,2*%
%TO.N,GND*%
X133886270Y-105492500D03*
%TD*%
D20*
%TO.P,U1,1,VOUT*%
%TO.N,+3.3V*%
X127312005Y-107300000D03*
%TO.P,U1,2,L2*%
%TO.N,Net-(U1-L2)*%
X127812005Y-107300000D03*
%TO.P,U1,3,PGND*%
%TO.N,GND*%
X128312005Y-107300000D03*
%TO.P,U1,4,L1*%
%TO.N,Net-(U1-L1)*%
X128812005Y-107300000D03*
%TO.P,U1,5,VIN*%
%TO.N,VBAT*%
X129312005Y-107300000D03*
%TO.P,U1,6,EN*%
%TO.N,Net-(U1-EN)*%
X129312005Y-104500000D03*
%TO.P,U1,7,PS/SYNC*%
X128812005Y-104500000D03*
%TO.P,U1,8,VINA*%
X128312005Y-104500000D03*
%TO.P,U1,9,GND*%
%TO.N,GND*%
X127812005Y-104500000D03*
%TO.P,U1,10,FB*%
%TO.N,+3.3V*%
X127312005Y-104500000D03*
D21*
%TO.P,U1,11,PGND*%
%TO.N,GND*%
X128312005Y-105900000D03*
D22*
%TO.P,U1,12*%
X129262005Y-105900000D03*
%TO.P,U1,13*%
X128312005Y-106475000D03*
%TO.P,U1,14*%
X128312005Y-105325000D03*
%TO.P,U1,15*%
X127362005Y-105900000D03*
%TD*%
D14*
%TO.P,L1,1,1*%
%TO.N,Net-(U1-L1)*%
X128693770Y-103100000D03*
%TO.P,L1,2,2*%
%TO.N,Net-(U1-L2)*%
X127878770Y-103100000D03*
%TD*%
D16*
%TO.P,J3,1,Pin_1*%
%TO.N,/Haptic Motor*%
X157286270Y-114900000D03*
D17*
%TO.P,J3,2,Pin_2*%
%TO.N,GND*%
X157286270Y-112900000D03*
%TD*%
D23*
%TO.P,U2,1,STAT*%
%TO.N,Net-(U2-STAT)*%
X136802970Y-102612900D03*
%TO.P,U2,2,VSS*%
%TO.N,GND*%
X136802970Y-103552700D03*
%TO.P,U2,3,VBAT*%
%TO.N,Net-(J1-Pin_1)*%
X136802970Y-104492500D03*
%TO.P,U2,4,VDD*%
%TO.N,Net-(D1-A)*%
X139393770Y-104492500D03*
%TO.P,U2,5,PROG*%
%TO.N,Net-(U2-PROG)*%
X139393770Y-102612900D03*
%TD*%
D24*
%TO.P,U4,1,PA2*%
%TO.N,unconnected-(U4-PA2-Pad1)*%
X130161270Y-83500000D03*
D25*
%TO.P,U4,2,PA1*%
%TO.N,unconnected-(U4-PA1-Pad2)*%
X130161270Y-83975000D03*
%TO.P,U4,3,PA0*%
%TO.N,unconnected-(U4-PA0-Pad3)*%
X130161270Y-84425000D03*
%TO.P,U4,4,VREF*%
%TO.N,unconnected-(U4-VREF-Pad4)*%
X130161270Y-84875000D03*
%TO.P,U4,5,VSS*%
%TO.N,GND*%
X130161270Y-85325000D03*
%TO.P,U4,6,VDDA*%
%TO.N,+3.3V*%
X130161270Y-85775000D03*
%TO.P,U4,7,PC3*%
%TO.N,unconnected-(U4-PC3-Pad7)*%
X130161270Y-86225000D03*
%TO.P,U4,8,PC2*%
%TO.N,unconnected-(U4-PC2-Pad8)*%
X130161270Y-86675000D03*
%TO.P,U4,9,PC1*%
%TO.N,unconnected-(U4-PC1-Pad9)*%
X130161270Y-87125000D03*
%TO.P,U4,10,NRST*%
%TO.N,Net-(J4-Pin_5)*%
X130161270Y-87575000D03*
%TO.P,U4,11,PB9*%
%TO.N,unconnected-(U4-PB9-Pad11)*%
X130161270Y-88025000D03*
%TO.P,U4,12,PC0*%
%TO.N,unconnected-(U4-PC0-Pad12)*%
X130161270Y-88475000D03*
%TO.P,U4,13,PH3-BOOT0*%
%TO.N,unconnected-(U4-PH3-BOOT0-Pad13)*%
X130161270Y-88925000D03*
%TO.P,U4,14,PB8*%
%TO.N,Net-(U4-PB8)*%
X130161270Y-89375000D03*
%TO.P,U4,15,VBAT*%
%TO.N,+3.3V*%
X130161270Y-89825000D03*
%TO.P,U4,16,VSSSMPS*%
%TO.N,GND*%
X130161270Y-90275000D03*
D24*
%TO.P,U4,17,VDDSMPS*%
%TO.N,unconnected-(U4-VDDSMPS-Pad17)*%
X130161270Y-90750000D03*
D26*
%TO.P,U4,18,PB7*%
%TO.N,unconnected-(U4-PB7-Pad18)*%
X130636270Y-90750000D03*
%TO.P,U4,19,PB5*%
%TO.N,unconnected-(U4-PB5-Pad19)*%
X131086270Y-90750000D03*
%TO.P,U4,20,PB4*%
%TO.N,Net-(U4-PB4)*%
X131536270Y-90750000D03*
%TO.P,U4,21,PB3*%
%TO.N,/SWO*%
X131986270Y-90750000D03*
%TO.P,U4,22,PC10*%
%TO.N,unconnected-(U4-PC10-Pad22)*%
X132436270Y-90750000D03*
%TO.P,U4,23,PC11*%
%TO.N,unconnected-(U4-PC11-Pad23)*%
X132886270Y-90750000D03*
%TO.P,U4,24,PC12*%
%TO.N,unconnected-(U4-PC12-Pad24)*%
X133336270Y-90750000D03*
%TO.P,U4,25,PA13*%
%TO.N,/SWDIO*%
X133786270Y-90750000D03*
%TO.P,U4,26,PA14*%
%TO.N,/SWCLK*%
X134236270Y-90750000D03*
%TO.P,U4,27,PA15*%
%TO.N,unconnected-(U4-PA15-Pad27)*%
X134686270Y-90750000D03*
%TO.P,U4,28,PA10*%
%TO.N,/Switch*%
X135136270Y-90750000D03*
%TO.P,U4,29,PA12*%
%TO.N,unconnected-(U4-PA12-Pad29)*%
X135586270Y-90750000D03*
%TO.P,U4,30,PA11*%
%TO.N,unconnected-(U4-PA11-Pad30)*%
X136036270Y-90750000D03*
D24*
%TO.P,U4,31,VSS*%
%TO.N,GND*%
X136511270Y-90750000D03*
D25*
%TO.P,U4,32,VDDUSB*%
%TO.N,unconnected-(U4-VDDUSB-Pad32)*%
X136511270Y-90275000D03*
%TO.P,U4,33,PD0*%
%TO.N,Net-(U3-CSB)*%
X136511270Y-89825000D03*
%TO.P,U4,34,PD1*%
%TO.N,Net-(U3-SCX)*%
X136511270Y-89375000D03*
%TO.P,U4,35,PB13*%
%TO.N,Net-(U4-PB13)*%
X136511270Y-88925000D03*
%TO.P,U4,36,PC6*%
%TO.N,unconnected-(U4-PC6-Pad36)*%
X136511270Y-88475000D03*
%TO.P,U4,37,PB14*%
%TO.N,/SPI2 MISO*%
X136511270Y-88025000D03*
%TO.P,U4,38,PB15*%
%TO.N,/SPI2 MOSI*%
X136511270Y-87575000D03*
%TO.P,U4,39,PB6*%
%TO.N,unconnected-(U4-PB6-Pad39)*%
X136511270Y-87125000D03*
%TO.P,U4,40,PC13*%
%TO.N,unconnected-(U4-PC13-Pad40)*%
X136511270Y-86675000D03*
%TO.P,U4,41,PB12*%
%TO.N,unconnected-(U4-PB12-Pad41)*%
X136511270Y-86225000D03*
%TO.P,U4,42,PE4*%
%TO.N,unconnected-(U4-PE4-Pad42)*%
X136511270Y-85775000D03*
%TO.P,U4,43,PB1*%
%TO.N,unconnected-(U4-PB1-Pad43)*%
X136511270Y-85325000D03*
%TO.P,U4,44,PB0*%
%TO.N,unconnected-(U4-PB0-Pad44)*%
X136511270Y-84875000D03*
%TO.P,U4,45,PC5*%
%TO.N,unconnected-(U4-PC5-Pad45)*%
X136511270Y-84425000D03*
%TO.P,U4,46,PB11*%
%TO.N,unconnected-(U4-PB11-Pad46)*%
X136511270Y-83975000D03*
D24*
%TO.P,U4,47,PB10*%
%TO.N,unconnected-(U4-PB10-Pad47)*%
X136511270Y-83500000D03*
D26*
%TO.P,U4,48,PB2*%
%TO.N,unconnected-(U4-PB2-Pad48)*%
X136036270Y-83500000D03*
%TO.P,U4,49,PC4*%
%TO.N,unconnected-(U4-PC4-Pad49)*%
X135586270Y-83500000D03*
%TO.P,U4,50,PA8*%
%TO.N,/Haptic Motor*%
X135136270Y-83500000D03*
%TO.P,U4,51,PA9*%
%TO.N,unconnected-(U4-PA9-Pad51)*%
X134686270Y-83500000D03*
%TO.P,U4,52,PA7*%
%TO.N,unconnected-(U4-PA7-Pad52)*%
X134236270Y-83500000D03*
%TO.P,U4,53,PA6*%
%TO.N,unconnected-(U4-PA6-Pad53)*%
X133786270Y-83500000D03*
%TO.P,U4,54,PA5*%
%TO.N,unconnected-(U4-PA5-Pad54)*%
X133336270Y-83500000D03*
%TO.P,U4,55,PA4*%
%TO.N,unconnected-(U4-PA4-Pad55)*%
X132886270Y-83500000D03*
%TO.P,U4,56,PA3*%
%TO.N,unconnected-(U4-PA3-Pad56)*%
X132436270Y-83500000D03*
%TO.P,U4,57,VSS*%
%TO.N,GND*%
X131986270Y-83500000D03*
%TO.P,U4,58,ANT_IN*%
%TO.N,unconnected-(U4-ANT_IN-Pad58)*%
X131536270Y-83500000D03*
%TO.P,U4,59,RF_OUT*%
%TO.N,unconnected-(U4-RF_OUT-Pad59)*%
X131086270Y-83500000D03*
%TO.P,U4,60,VSS*%
%TO.N,GND*%
X130636270Y-83500000D03*
D27*
%TO.P,U4,61,PH0*%
%TO.N,unconnected-(U4-PH0-Pad61)*%
X131986270Y-84875000D03*
%TO.P,U4,62,PH1*%
%TO.N,unconnected-(U4-PH1-Pad62)*%
X131986270Y-85775000D03*
%TO.P,U4,63,PD14*%
%TO.N,unconnected-(U4-PD14-Pad63)*%
X131986270Y-86675000D03*
%TO.P,U4,64,PE1*%
%TO.N,unconnected-(U4-PE1-Pad64)*%
X131986270Y-87575000D03*
%TO.P,U4,65,PD13*%
%TO.N,unconnected-(U4-PD13-Pad65)*%
X131986270Y-88475000D03*
%TO.P,U4,66,PD12*%
%TO.N,unconnected-(U4-PD12-Pad66)*%
X131986270Y-89375000D03*
%TO.P,U4,67,PD7*%
%TO.N,unconnected-(U4-PD7-Pad67)*%
X132886270Y-89375000D03*
%TO.P,U4,68,PD2*%
%TO.N,unconnected-(U4-PD2-Pad68)*%
X133786270Y-89375000D03*
%TO.P,U4,69,PC9*%
%TO.N,unconnected-(U4-PC9-Pad69)*%
X134686270Y-89375000D03*
%TO.P,U4,70,PD3*%
%TO.N,unconnected-(U4-PD3-Pad70)*%
X134686270Y-88475000D03*
%TO.P,U4,71,PC7*%
%TO.N,unconnected-(U4-PC7-Pad71)*%
X134686270Y-87575000D03*
%TO.P,U4,72,PE3*%
%TO.N,unconnected-(U4-PE3-Pad72)*%
X134686270Y-86675000D03*
%TO.P,U4,73,PD4*%
%TO.N,unconnected-(U4-PD4-Pad73)*%
X134686270Y-85775000D03*
%TO.P,U4,74,PD9*%
%TO.N,unconnected-(U4-PD9-Pad74)*%
X134686270Y-84875000D03*
%TO.P,U4,75,PD8*%
%TO.N,Net-(U3-INT1)*%
X133786270Y-84875000D03*
%TO.P,U4,76,PD15*%
%TO.N,unconnected-(U4-PD15-Pad76)*%
X132886270Y-84875000D03*
%TO.P,U4,77,PD10*%
%TO.N,unconnected-(U4-PD10-Pad77)*%
X132886270Y-85775000D03*
%TO.P,U4,78,PE2*%
%TO.N,unconnected-(U4-PE2-Pad78)*%
X132886270Y-86675000D03*
%TO.P,U4,79,PE0*%
%TO.N,unconnected-(U4-PE0-Pad79)*%
X132886270Y-87575000D03*
%TO.P,U4,80,PD5*%
%TO.N,unconnected-(U4-PD5-Pad80)*%
X132886270Y-88475000D03*
%TO.P,U4,81,PD6*%
%TO.N,unconnected-(U4-PD6-Pad81)*%
X133786270Y-88475000D03*
%TO.P,U4,82,PD11*%
%TO.N,unconnected-(U4-PD11-Pad82)*%
X133786270Y-87575000D03*
%TO.P,U4,83,PC8*%
%TO.N,unconnected-(U4-PC8-Pad83)*%
X133786270Y-86675000D03*
%TO.P,U4,84,VSS*%
%TO.N,GND*%
X133786270Y-85775000D03*
D28*
%TO.P,U4,85,ANT_NC*%
%TO.N,unconnected-(U4-ANT_NC-Pad85)*%
X130286270Y-80540000D03*
%TO.P,U4,86,VSS*%
%TO.N,GND*%
X136386270Y-80540000D03*
%TD*%
D29*
%TO.P,D2,1*%
%TO.N,Net-(D2-Pad1)*%
X152686348Y-94193600D03*
%TO.P,D2,2*%
%TO.N,Net-(D2-Pad2)*%
X153586270Y-94193600D03*
%TO.P,D2,3*%
%TO.N,+3.3V*%
X153586270Y-95793602D03*
%TO.P,D2,4*%
%TO.N,Net-(D2-Pad4)*%
X152686348Y-95793602D03*
%TD*%
D15*
%TO.P,C12,1*%
%TO.N,+3.3V*%
X126746270Y-95700000D03*
%TO.P,C12,2*%
%TO.N,GND*%
X127561270Y-95700000D03*
%TD*%
D10*
%TO.P,SCX1,1,1*%
%TO.N,Net-(U3-SCX)*%
X154200000Y-80800000D03*
%TD*%
%TO.P,3.3V1,1,1*%
%TO.N,+3.3V*%
X158536270Y-88000000D03*
%TD*%
D30*
%TO.P,J5,1,VBUS*%
%TO.N,Net-(D1-A)*%
X148363770Y-112112500D03*
%TO.P,J5,2,D-*%
%TO.N,unconnected-(J5-D--Pad2)*%
X149013770Y-112112500D03*
%TO.P,J5,3,D+*%
%TO.N,unconnected-(J5-D+-Pad3)*%
X149663770Y-112112500D03*
%TO.P,J5,4,ID*%
%TO.N,unconnected-(J5-ID-Pad4)*%
X150313770Y-112112500D03*
%TO.P,J5,5,GND*%
%TO.N,GND*%
X150963770Y-112112500D03*
D31*
%TO.P,J5,6,Shield*%
%TO.N,unconnected-(J5-Shield-Pad6)_11*%
X146713770Y-113312500D03*
D32*
%TO.N,unconnected-(J5-Shield-Pad6)_1*%
X146813770Y-112012500D03*
D33*
%TO.N,unconnected-(J5-Shield-Pad6)_6*%
X146933770Y-114062500D03*
D34*
%TO.N,unconnected-(J5-Shield-Pad6)_3*%
X146933770Y-114992500D03*
D35*
%TO.N,unconnected-(J5-Shield-Pad6)_10*%
X147243770Y-111992500D03*
D36*
%TO.N,unconnected-(J5-Shield-Pad6)_4*%
X148703770Y-115262500D03*
%TO.N,unconnected-(J5-Shield-Pad6)_7*%
X150623770Y-115262500D03*
D35*
%TO.N,unconnected-(J5-Shield-Pad6)_8*%
X152083770Y-111992500D03*
D34*
%TO.N,unconnected-(J5-Shield-Pad6)_9*%
X152393770Y-114992500D03*
D33*
%TO.N,unconnected-(J5-Shield-Pad6)*%
X152413770Y-114062500D03*
D32*
%TO.N,unconnected-(J5-Shield-Pad6)_5*%
X152563770Y-111992500D03*
D31*
%TO.N,unconnected-(J5-Shield-Pad6)_2*%
X152663770Y-113312500D03*
%TD*%
D37*
%TO.P,R6,1*%
%TO.N,Net-(U4-PB13)*%
X149936348Y-97225000D03*
%TO.P,R6,2*%
%TO.N,Net-(D2-Pad4)*%
X149936348Y-97865000D03*
%TD*%
D14*
%TO.P,C7,1*%
%TO.N,+3.3V*%
X127561270Y-86950000D03*
%TO.P,C7,2*%
%TO.N,GND*%
X126746270Y-86950000D03*
%TD*%
%TO.P,C13,1*%
%TO.N,Net-(J4-Pin_5)*%
X127561270Y-90450000D03*
%TO.P,C13,2*%
%TO.N,GND*%
X126746270Y-90450000D03*
%TD*%
D11*
%TO.P,C14,1*%
%TO.N,VBAT*%
X125886270Y-106307500D03*
%TO.P,C14,2*%
%TO.N,GND*%
X125886270Y-105492500D03*
%TD*%
D19*
%TO.P,C2,1*%
%TO.N,Net-(U1-EN)*%
X130986270Y-105492500D03*
%TO.P,C2,2*%
%TO.N,GND*%
X130986270Y-106307500D03*
%TD*%
D14*
%TO.P,C6,1*%
%TO.N,+3.3V*%
X127536270Y-85500000D03*
%TO.P,C6,2*%
%TO.N,GND*%
X126721270Y-85500000D03*
%TD*%
D38*
%TO.P,D1,1,K*%
%TO.N,Net-(D1-K)*%
X147875000Y-100992500D03*
%TO.P,D1,2,A*%
%TO.N,Net-(D1-A)*%
X146300000Y-100992500D03*
%TD*%
D11*
%TO.P,C1,1*%
%TO.N,Net-(D1-A)*%
X141643770Y-104400000D03*
%TO.P,C1,2*%
%TO.N,GND*%
X141643770Y-103585000D03*
%TD*%
D15*
%TO.P,C10,1*%
%TO.N,+3.3V*%
X126746270Y-92300000D03*
%TO.P,C10,2*%
%TO.N,GND*%
X127561270Y-92300000D03*
%TD*%
%TO.P,C11,1*%
%TO.N,+3.3V*%
X126746270Y-93950000D03*
%TO.P,C11,2*%
%TO.N,GND*%
X127561270Y-93950000D03*
%TD*%
D11*
%TO.P,C4,1*%
%TO.N,Net-(J1-Pin_1)*%
X134643770Y-104492500D03*
%TO.P,C4,2*%
%TO.N,GND*%
X134643770Y-103677500D03*
%TD*%
D39*
%TO.P,U3,1,SDO*%
%TO.N,/SPI2 MISO*%
X147961270Y-86500000D03*
%TO.P,U3,2,NC*%
%TO.N,unconnected-(U3-NC-Pad2)*%
X147961270Y-87000000D03*
%TO.P,U3,3,NC*%
%TO.N,unconnected-(U3-NC-Pad3)*%
X147961270Y-87500000D03*
%TO.P,U3,4,INT1*%
%TO.N,Net-(U3-INT1)*%
X147961270Y-88000000D03*
D40*
%TO.P,U3,5,VDDIO*%
%TO.N,unconnected-(U3-VDDIO-Pad5)*%
X148623770Y-88162500D03*
%TO.P,U3,6,GNDIO*%
%TO.N,unconnected-(U3-GNDIO-Pad6)*%
X149123770Y-88162500D03*
%TO.P,U3,7,GND*%
%TO.N,GND*%
X149623770Y-88162500D03*
D39*
%TO.P,U3,8,VDD*%
%TO.N,+3.3V*%
X150286270Y-88000000D03*
%TO.P,U3,9,INT2*%
%TO.N,unconnected-(U3-INT2-Pad9)*%
X150286270Y-87500000D03*
%TO.P,U3,10,NC*%
%TO.N,unconnected-(U3-NC-Pad10)*%
X150286270Y-87000000D03*
%TO.P,U3,11,NC*%
%TO.N,unconnected-(U3-NC-Pad11)*%
X150286270Y-86500000D03*
D40*
%TO.P,U3,12,CSB*%
%TO.N,Net-(U3-CSB)*%
X149623770Y-86337500D03*
%TO.P,U3,13,SCX*%
%TO.N,Net-(U3-SCX)*%
X149123770Y-86337500D03*
%TO.P,U3,14,SDX*%
%TO.N,/SPI2 MOSI*%
X148623770Y-86337500D03*
%TD*%
D10*
%TO.P,CSB1,1,1*%
%TO.N,Net-(U3-CSB)*%
X158500000Y-80800000D03*
%TD*%
D14*
%TO.P,C8,1*%
%TO.N,+3.3V*%
X127561270Y-88450000D03*
%TO.P,C8,2*%
%TO.N,GND*%
X126746270Y-88450000D03*
%TD*%
D41*
%TO.N,+3.3V*%
X129000000Y-87000000D03*
X128886270Y-83900000D03*
X150500000Y-89200000D03*
X126486270Y-103700000D03*
X148800000Y-89200000D03*
X128986270Y-89094145D03*
X127486270Y-89450000D03*
X126436270Y-106961020D03*
X141300000Y-87000000D03*
X126786270Y-91450000D03*
%TO.N,GND*%
X134693770Y-101200000D03*
X126800000Y-84700000D03*
X129700000Y-92200000D03*
X128300000Y-84700000D03*
X149598768Y-87025002D03*
X148648772Y-87433343D03*
X146393770Y-110492500D03*
X151600000Y-86625000D03*
X139700000Y-90500000D03*
X128286270Y-113000000D03*
X150893770Y-110492500D03*
X128610339Y-108750000D03*
X127561270Y-93200000D03*
X131012005Y-99650000D03*
X133790317Y-85809683D03*
%TO.N,Net-(U1-EN)*%
X131586270Y-107600000D03*
X131586270Y-104600000D03*
%TO.N,Net-(U3-CSB)*%
X155286270Y-89750000D03*
X141286270Y-89750000D03*
%TO.N,/Haptic Motor*%
X131236268Y-87500000D03*
%TO.N,/SWDIO*%
X136586270Y-97100000D03*
X133886270Y-94900000D03*
%TO.N,/SWCLK*%
X134386270Y-93500000D03*
X152400000Y-103900000D03*
X138486270Y-97700000D03*
X154250000Y-103850000D03*
%TO.N,Net-(U1-L2)*%
X130886270Y-102400000D03*
X130886270Y-111700000D03*
X127862005Y-108700000D03*
X127736270Y-111700000D03*
%TO.N,Net-(U1-L1)*%
X129886270Y-103100000D03*
X129386270Y-108750000D03*
%TO.N,/SPI2 MOSI*%
X146961270Y-84675000D03*
X135786270Y-86250000D03*
%TO.N,VBAT*%
X129886270Y-107400000D03*
X126486270Y-109900000D03*
%TO.N,Net-(U4-PB8)*%
X146886270Y-92200000D03*
X131536269Y-90099266D03*
%TO.N,Net-(U4-PB4)*%
X131536270Y-92900000D03*
X148886270Y-94300000D03*
%TO.N,/Switch*%
X141300000Y-90800000D03*
X145020953Y-90679047D03*
%TO.N,Net-(U3-SCX)*%
X141286270Y-88500000D03*
X149173770Y-85554187D03*
%TO.N,Net-(U3-INT1)*%
X135786270Y-84750000D03*
X140286270Y-84750000D03*
%TO.N,/SWO*%
X136800000Y-95100000D03*
X135300000Y-93500000D03*
%TD*%
D42*
%TO.N,+3.3V*%
X141300000Y-87000000D02*
X143453730Y-89153730D01*
X127486270Y-89450000D02*
X127486270Y-88525000D01*
X131586270Y-109300000D02*
X132586270Y-108300000D01*
X130161270Y-89825000D02*
X129717125Y-89825000D01*
X150526270Y-88240000D02*
X150286270Y-88000000D01*
X150807500Y-90300000D02*
X156236270Y-90300000D01*
X150407500Y-89900000D02*
X150407500Y-89292500D01*
X127536270Y-83917500D02*
X127518770Y-83900000D01*
X151600000Y-88240000D02*
X150526270Y-88240000D01*
X130161270Y-85775000D02*
X127811270Y-85775000D01*
X150407500Y-89900000D02*
X150807500Y-90300000D01*
X127312005Y-103925735D02*
X127312005Y-104500000D01*
X128886270Y-83900000D02*
X127518770Y-83900000D01*
X127312005Y-107300000D02*
X126775250Y-107300000D01*
X127486270Y-88525000D02*
X127561270Y-88450000D01*
X126775250Y-107300000D02*
X126436270Y-106961020D01*
X132586270Y-108300000D02*
X132586270Y-106307500D01*
X127486270Y-109300000D02*
X131586270Y-109300000D01*
X127312005Y-109125735D02*
X127486270Y-109300000D01*
X126786270Y-95740000D02*
X126746270Y-95700000D01*
X150500000Y-88213730D02*
X150286270Y-88000000D01*
X150407500Y-89292500D02*
X150500000Y-89200000D01*
X126746270Y-91490000D02*
X126786270Y-91450000D01*
X127811270Y-85775000D02*
X127536270Y-85500000D01*
X127536270Y-85500000D02*
X127536270Y-83917500D01*
X156236270Y-90300000D02*
X158536270Y-88000000D01*
X126746270Y-93950000D02*
X126746270Y-92200000D01*
X129717125Y-89825000D02*
X128986270Y-89094145D01*
X126486270Y-103700000D02*
X127086270Y-103700000D01*
X148753730Y-89153730D02*
X148800000Y-89200000D01*
X127086270Y-103700000D02*
X127312005Y-103925735D01*
X129000000Y-87000000D02*
X128950000Y-86950000D01*
X150500000Y-89200000D02*
X150500000Y-88213730D01*
X126746270Y-92200000D02*
X126746270Y-91490000D01*
X126746270Y-95700000D02*
X126746270Y-93950000D01*
X127312005Y-107300000D02*
X127312005Y-109125735D01*
X127561270Y-88450000D02*
X127561270Y-86950000D01*
X132586270Y-106307500D02*
X133886270Y-106307500D01*
X126721270Y-83750000D02*
X127536270Y-83750000D01*
X143453730Y-89153730D02*
X148753730Y-89153730D01*
X128950000Y-86950000D02*
X127561270Y-86950000D01*
%TO.N,GND*%
X128312005Y-107300000D02*
X128432005Y-107420000D01*
X149592500Y-89900000D02*
X149592500Y-88193770D01*
X130536270Y-85325000D02*
X130161270Y-85325000D01*
X125886270Y-105492500D02*
X126293770Y-105900000D01*
X129537005Y-99650000D02*
X131012005Y-99650000D01*
X126746270Y-86950000D02*
X126746270Y-88450000D01*
X134643770Y-103677500D02*
X136678170Y-103677500D01*
X141643770Y-101492500D02*
X141643770Y-103585000D01*
X127561270Y-93200000D02*
X127561270Y-92200000D01*
X128432005Y-108571666D02*
X128610339Y-108750000D01*
X138458770Y-102731900D02*
X138458770Y-100952500D01*
X126800000Y-84700000D02*
X126800000Y-85421270D01*
X131011270Y-83925000D02*
X130636270Y-84300000D01*
X132586270Y-105492500D02*
X133886270Y-105492500D01*
X126746270Y-90520956D02*
X126746270Y-90450000D01*
X131936270Y-83925000D02*
X131011270Y-83925000D01*
X146393770Y-110293770D02*
X146393770Y-110492500D01*
X130186270Y-115800000D02*
X128286270Y-113900000D01*
X149623770Y-87837500D02*
X149219613Y-87433343D01*
X129669505Y-106307500D02*
X129262005Y-105900000D01*
X132186270Y-105492500D02*
X132586270Y-105492500D01*
X134643770Y-101250000D02*
X134693770Y-101200000D01*
X138918770Y-100292501D02*
X139218771Y-99992500D01*
X150893770Y-110492500D02*
X150963770Y-110562500D01*
X130886270Y-106307500D02*
X131371270Y-106307500D01*
X140143770Y-99992500D02*
X141643770Y-101492500D01*
X136802970Y-103552700D02*
X137637970Y-103552700D01*
X130161270Y-85325000D02*
X128925000Y-85325000D01*
X131986270Y-83875000D02*
X131936270Y-83925000D01*
X126721270Y-86925000D02*
X126746270Y-86950000D01*
X131986270Y-83500000D02*
X131986270Y-83875000D01*
X127862005Y-104550000D02*
X127862005Y-105511396D01*
X149592500Y-88193770D02*
X149623770Y-88162500D01*
X136511270Y-90750000D02*
X139450000Y-90750000D01*
X127561270Y-95700000D02*
X127561270Y-93950000D01*
X137637970Y-103552700D02*
X138458770Y-102731900D01*
X130636270Y-85225000D02*
X130536270Y-85325000D01*
X126746270Y-88450000D02*
X126746270Y-90450000D01*
X139218771Y-99992500D02*
X140143770Y-99992500D01*
X150963770Y-110562500D02*
X150963770Y-112862500D01*
X129786270Y-90275000D02*
X130161270Y-90275000D01*
X136386270Y-80540000D02*
X136386270Y-82316422D01*
X128286270Y-113900000D02*
X128286270Y-113000000D01*
X127561270Y-95150000D02*
X127561270Y-97674265D01*
X129700000Y-92200000D02*
X129736270Y-92163730D01*
X127812005Y-104500000D02*
X127862005Y-104550000D01*
X127561270Y-92200000D02*
X127561270Y-91335956D01*
X130636270Y-83125000D02*
X130636270Y-83500000D01*
X130886270Y-106307500D02*
X129669505Y-106307500D01*
X139450000Y-90750000D02*
X139700000Y-90500000D01*
X129736270Y-92163730D02*
X129736270Y-90325000D01*
X126293770Y-105900000D02*
X128312005Y-105900000D01*
X127561270Y-97674265D02*
X129537005Y-99650000D01*
X129736270Y-90325000D02*
X129786270Y-90275000D01*
X136678170Y-103677500D02*
X136802970Y-103552700D01*
X149598768Y-87812498D02*
X149598768Y-87025002D01*
X149219613Y-87433343D02*
X148648772Y-87433343D01*
X128250609Y-105900000D02*
X128312005Y-105900000D01*
X130636270Y-84300000D02*
X130636270Y-85225000D01*
X126800000Y-85421270D02*
X126721270Y-85500000D01*
X128925000Y-85325000D02*
X128300000Y-84700000D01*
X135902692Y-82800000D02*
X130961270Y-82800000D01*
X127862005Y-105511396D02*
X128250609Y-105900000D01*
X149623770Y-87837500D02*
X149623770Y-88162500D01*
X136386270Y-82316422D02*
X135902692Y-82800000D01*
X131371270Y-106307500D02*
X132186270Y-105492500D01*
X130961270Y-82800000D02*
X130636270Y-83125000D01*
X133786270Y-85805636D02*
X133790317Y-85809683D01*
X127561270Y-91335956D02*
X126746270Y-90520956D01*
X138458770Y-100952500D02*
X138918770Y-100492500D01*
X145592500Y-109492500D02*
X146393770Y-110293770D01*
X149623770Y-87837500D02*
X149598768Y-87812498D01*
X138893770Y-109492500D02*
X145592500Y-109492500D01*
X128432005Y-107420000D02*
X128432005Y-108571666D01*
X151600000Y-86625000D02*
X151600000Y-87425000D01*
X126721270Y-85500000D02*
X126721270Y-86925000D01*
X127561270Y-93950000D02*
X127561270Y-93200000D01*
X133786270Y-85775000D02*
X133786270Y-85805636D01*
X134643770Y-103677500D02*
X134643770Y-101250000D01*
X138918770Y-100492500D02*
X138918770Y-100292501D01*
X130636270Y-83500000D02*
X130636270Y-84300000D01*
%TO.N,Net-(D1-A)*%
X142892500Y-104400000D02*
X142800000Y-104400000D01*
X142892500Y-104400000D02*
X144100000Y-104400000D01*
X148363770Y-108663770D02*
X148363770Y-112862500D01*
X142800000Y-104400000D02*
X141643770Y-104400000D01*
X146300000Y-100992500D02*
X142892500Y-104400000D01*
X141643770Y-104400000D02*
X139486270Y-104400000D01*
X139486270Y-104400000D02*
X139393770Y-104492500D01*
X144100000Y-104400000D02*
X148363770Y-108663770D01*
%TO.N,Net-(U1-EN)*%
X130986270Y-104986270D02*
X130986270Y-105492500D01*
X130986270Y-105200000D02*
X131586270Y-104600000D01*
X129312005Y-104500000D02*
X130500000Y-104500000D01*
X128712005Y-103900000D02*
X128312005Y-103900000D01*
X130986270Y-105492500D02*
X130986270Y-105200000D01*
X129312005Y-104500000D02*
X128712005Y-103900000D01*
X128312005Y-104500000D02*
X128312005Y-103900000D01*
X131101270Y-108085000D02*
X131586270Y-107600000D01*
X131101270Y-108500000D02*
X131101270Y-108085000D01*
X130500000Y-104500000D02*
X130986270Y-104986270D01*
%TO.N,Net-(J1-Pin_1)*%
X136893770Y-109892500D02*
X136893770Y-104583300D01*
X134643770Y-104492500D02*
X134443771Y-104492500D01*
X134643770Y-104492500D02*
X136802970Y-104492500D01*
X134143770Y-104192499D02*
X134143770Y-98492500D01*
X136893770Y-104583300D02*
X136802970Y-104492500D01*
X134143770Y-98492500D02*
X134643770Y-97992500D01*
X134443771Y-104492500D02*
X134143770Y-104192499D01*
%TO.N,Net-(J4-Pin_5)*%
X128436270Y-88803556D02*
X129664826Y-87575000D01*
X129558452Y-97050000D02*
X130558452Y-97050000D01*
X128436270Y-89575000D02*
X128436270Y-88803556D01*
X145100000Y-94100000D02*
X150800000Y-99800000D01*
X128186270Y-95677818D02*
X129558452Y-97050000D01*
X131308452Y-96291548D02*
X131700000Y-95900000D01*
X130558452Y-97050000D02*
X131308452Y-96300000D01*
X136300000Y-94100000D02*
X145100000Y-94100000D01*
X150800000Y-99800000D02*
X157300000Y-99800000D01*
X128186270Y-91075000D02*
X128186270Y-95677818D01*
X131308452Y-96300000D02*
X131308452Y-96291548D01*
X127561270Y-90450000D02*
X128436270Y-89575000D01*
X129664826Y-87575000D02*
X130161270Y-87575000D01*
X131700000Y-95900000D02*
X134500000Y-95900000D01*
X127561270Y-90450000D02*
X128186270Y-91075000D01*
X134500000Y-95900000D02*
X136300000Y-94100000D01*
%TO.N,Net-(U3-CSB)*%
X141211270Y-89825000D02*
X141286270Y-89750000D01*
X136511270Y-89825000D02*
X141211270Y-89825000D01*
X155286270Y-89750000D02*
X155286270Y-87188730D01*
X155286270Y-87188730D02*
X156400000Y-86075000D01*
X156400000Y-86075000D02*
X149886270Y-86075000D01*
X156400000Y-86075000D02*
X158500000Y-83975000D01*
X158500000Y-83975000D02*
X158500000Y-80800000D01*
X149886270Y-86075000D02*
X149623770Y-86337500D01*
%TO.N,Net-(D1-K)*%
X138268770Y-99592500D02*
X147568770Y-99592500D01*
X147568770Y-99592500D02*
X147875000Y-99898730D01*
X147875000Y-99898730D02*
X147875000Y-100992500D01*
X137368770Y-100492500D02*
X138268770Y-99592500D01*
%TO.N,Net-(D2-Pad2)*%
X152294150Y-94900000D02*
X153486270Y-94900000D01*
X151675548Y-95518602D02*
X152294150Y-94900000D01*
X153486270Y-94900000D02*
X153586270Y-94800000D01*
X153586270Y-94800000D02*
X153586270Y-94193600D01*
X149936348Y-95518602D02*
X151675548Y-95518602D01*
%TO.N,Net-(D2-Pad4)*%
X149936348Y-97865000D02*
X151335000Y-97865000D01*
X151335000Y-97865000D02*
X152686348Y-96513652D01*
X152686348Y-96513652D02*
X152686348Y-95793602D01*
%TO.N,Net-(D2-Pad1)*%
X151361346Y-94193600D02*
X152686348Y-94193600D01*
X149936348Y-92768602D02*
X151361346Y-94193600D01*
%TO.N,/Haptic Motor*%
X131461270Y-84300000D02*
X133366295Y-84300000D01*
X131236268Y-87500000D02*
X131236268Y-84525002D01*
X133741295Y-83925000D02*
X135086270Y-83925000D01*
X133366295Y-84300000D02*
X133741295Y-83925000D01*
X131236268Y-84525002D02*
X131461270Y-84300000D01*
X135136270Y-83875000D02*
X135136270Y-83500000D01*
X135086270Y-83925000D02*
X135136270Y-83875000D01*
%TO.N,/SWDIO*%
X157300000Y-105800000D02*
X155415219Y-105800000D01*
X133786270Y-94800000D02*
X133786270Y-90750000D01*
X136586270Y-97100000D02*
X136800000Y-97100000D01*
X137900000Y-96000000D02*
X145615218Y-96000000D01*
X136800000Y-97100000D02*
X137900000Y-96000000D01*
X145615218Y-96000000D02*
X155415219Y-105800000D01*
X133886270Y-94900000D02*
X133786270Y-94800000D01*
%TO.N,/SWCLK*%
X146820244Y-97700000D02*
X138486270Y-97700000D01*
X134386270Y-93500000D02*
X134236270Y-93350000D01*
X152400000Y-103279756D02*
X146820244Y-97700000D01*
X154250000Y-103850000D02*
X154300000Y-103800000D01*
X134236270Y-93350000D02*
X134236270Y-90750000D01*
X152400000Y-103900000D02*
X152400000Y-103279756D01*
X154300000Y-103800000D02*
X157300000Y-103800000D01*
%TO.N,Net-(U1-L2)*%
X128186270Y-102400000D02*
X127878770Y-102707500D01*
X127878770Y-102707500D02*
X127878770Y-103100000D01*
X130886270Y-111700000D02*
X127736270Y-111700000D01*
X127812005Y-108650000D02*
X127862005Y-108700000D01*
X128186270Y-102400000D02*
X130886270Y-102400000D01*
X127812005Y-107300000D02*
X127812005Y-108650000D01*
%TO.N,Net-(U1-L1)*%
X129886270Y-103100000D02*
X128693770Y-103100000D01*
X129386270Y-108415246D02*
X129386270Y-108750000D01*
X128812005Y-107840981D02*
X129386270Y-108415246D01*
X128812005Y-107300000D02*
X128812005Y-107840981D01*
%TO.N,/SPI2 MISO*%
X136886270Y-88025000D02*
X137661270Y-87250000D01*
X136511270Y-88025000D02*
X136886270Y-88025000D01*
X147961270Y-86452818D02*
X145054226Y-83545774D01*
X144500000Y-82991548D02*
X144500000Y-80800000D01*
X137661270Y-87250000D02*
X139050000Y-87250000D01*
X139200000Y-87100000D02*
X139200000Y-85058452D01*
X145050000Y-83550000D02*
X145054226Y-83545774D01*
X140708452Y-83550000D02*
X145050000Y-83550000D01*
X145054226Y-83545774D02*
X144500000Y-82991548D01*
X139050000Y-87250000D02*
X139200000Y-87100000D01*
X139200000Y-85058452D02*
X140708452Y-83550000D01*
X147961270Y-86500000D02*
X147961270Y-86452818D01*
%TO.N,/SPI2 MOSI*%
X136511270Y-87575000D02*
X136136270Y-87575000D01*
X148623770Y-85062500D02*
X148623770Y-86337500D01*
X135786270Y-87225000D02*
X135786270Y-86250000D01*
X151086270Y-82600000D02*
X148623770Y-85062500D01*
X148623770Y-86337500D02*
X146961270Y-84675000D01*
X136136270Y-87575000D02*
X135786270Y-87225000D01*
X151086270Y-80800000D02*
X151086270Y-82600000D01*
%TO.N,VBAT*%
X129886270Y-107400000D02*
X130286270Y-107800000D01*
X129312005Y-107525735D02*
X130286270Y-108500000D01*
X129312005Y-107300000D02*
X129312005Y-107525735D01*
X125986270Y-109900000D02*
X125886270Y-109800000D01*
X126486270Y-109900000D02*
X125986270Y-109900000D01*
X125886270Y-109800000D02*
X125886270Y-106307500D01*
X130286270Y-107800000D02*
X130286270Y-108500000D01*
%TO.N,Net-(U2-PROG)*%
X139733770Y-102272900D02*
X139393770Y-102612900D01*
X139733770Y-100492500D02*
X139733770Y-102272900D01*
%TO.N,Net-(U2-STAT)*%
X136553770Y-102363700D02*
X136553770Y-100492500D01*
X136802970Y-102612900D02*
X136553770Y-102363700D01*
%TO.N,Net-(U4-PB8)*%
X130812003Y-89375000D02*
X130161270Y-89375000D01*
X149936348Y-91953602D02*
X149689950Y-92200000D01*
X131536269Y-90099266D02*
X130812003Y-89375000D01*
X149689950Y-92200000D02*
X146886270Y-92200000D01*
%TO.N,Net-(U4-PB4)*%
X131536270Y-90750000D02*
X131536270Y-92900000D01*
X148886270Y-94300000D02*
X149532746Y-94300000D01*
X149532746Y-94300000D02*
X149936348Y-94703602D01*
%TO.N,Net-(U4-PB13)*%
X137861270Y-87950000D02*
X136886270Y-88925000D01*
X148672260Y-95108172D02*
X141514088Y-87950000D01*
X148672260Y-95960912D02*
X148672260Y-95108172D01*
X141514088Y-87950000D02*
X137861270Y-87950000D01*
X149936348Y-97225000D02*
X148672260Y-95960912D01*
X136886270Y-88925000D02*
X136511270Y-88925000D01*
%TO.N,/Switch*%
X135186270Y-91175000D02*
X135136270Y-91125000D01*
X141300000Y-90800000D02*
X140800000Y-90800000D01*
X140425000Y-91175000D02*
X135186270Y-91175000D01*
X158386270Y-90650000D02*
X145050000Y-90650000D01*
X158436270Y-90600000D02*
X158436270Y-94200000D01*
X145050000Y-90650000D02*
X145020953Y-90679047D01*
X140800000Y-90800000D02*
X140425000Y-91175000D01*
X158436270Y-90600000D02*
X158386270Y-90650000D01*
X135136270Y-91125000D02*
X135136270Y-90750000D01*
%TO.N,Net-(U3-SCX)*%
X141286270Y-88500000D02*
X141211270Y-88575000D01*
X149173770Y-85504187D02*
X149123770Y-85554187D01*
X153800000Y-85500000D02*
X153400000Y-85500000D01*
X136986270Y-89375000D02*
X136511270Y-89375000D01*
X154200000Y-85100000D02*
X153800000Y-85500000D01*
X141211270Y-88575000D02*
X137786270Y-88575000D01*
X154200000Y-80800000D02*
X154200000Y-85100000D01*
X153400000Y-85500000D02*
X153395813Y-85504187D01*
X153395813Y-85504187D02*
X149173770Y-85504187D01*
X149123770Y-85554187D02*
X149123770Y-86337500D01*
X137786270Y-88575000D02*
X136986270Y-89375000D01*
%TO.N,Net-(U3-INT1)*%
X133786270Y-84375000D02*
X133886270Y-84275000D01*
X133886270Y-84275000D02*
X135311270Y-84275000D01*
X135311270Y-84275000D02*
X135786270Y-84750000D01*
X133786270Y-84875000D02*
X133786270Y-84375000D01*
X140286270Y-84750000D02*
X143536270Y-88000000D01*
X143536270Y-88000000D02*
X147961270Y-88000000D01*
%TO.N,/SWO*%
X133658452Y-95450000D02*
X132100000Y-93891548D01*
X152100000Y-101800000D02*
X145400000Y-95100000D01*
X132100000Y-93891548D02*
X132100000Y-91175000D01*
X135300000Y-93500000D02*
X135300000Y-94264088D01*
X131986270Y-91061270D02*
X131986270Y-90750000D01*
X134114088Y-95450000D02*
X133658452Y-95450000D01*
X132100000Y-91175000D02*
X131986270Y-91061270D01*
X157300000Y-101800000D02*
X152100000Y-101800000D01*
X145400000Y-95100000D02*
X136800000Y-95100000D01*
X135300000Y-94264088D02*
X134114088Y-95450000D01*
%TD*%
%TA.AperFunction,Conductor*%
%TO.N,+3.3V*%
G36*
X135789654Y-105112685D02*
G01*
X135810296Y-105129319D01*
X135810420Y-105129443D01*
X135810423Y-105129445D01*
X135810424Y-105129446D01*
X135925639Y-105215696D01*
X135925640Y-105215696D01*
X135925641Y-105215697D01*
X135945790Y-105223212D01*
X136060487Y-105265991D01*
X136120097Y-105272400D01*
X136169270Y-105272399D01*
X136236307Y-105292082D01*
X136282063Y-105344885D01*
X136293270Y-105396399D01*
X136293270Y-107257701D01*
X136273585Y-107324740D01*
X136234368Y-107363239D01*
X136175114Y-107399787D01*
X136051059Y-107523842D01*
X135958957Y-107673163D01*
X135958956Y-107673166D01*
X135903771Y-107839703D01*
X135903771Y-107839704D01*
X135903770Y-107839704D01*
X135893270Y-107942483D01*
X135893270Y-111042501D01*
X135893271Y-111042518D01*
X135903770Y-111145296D01*
X135903771Y-111145299D01*
X135958955Y-111311831D01*
X135958957Y-111311836D01*
X135970489Y-111330532D01*
X136051058Y-111461156D01*
X136175114Y-111585212D01*
X136324436Y-111677314D01*
X136490973Y-111732499D01*
X136593761Y-111743000D01*
X137193778Y-111742999D01*
X137193786Y-111742998D01*
X137193789Y-111742998D01*
X137250072Y-111737248D01*
X137296567Y-111732499D01*
X137463104Y-111677314D01*
X137612426Y-111585212D01*
X137736482Y-111461156D01*
X137788231Y-111377256D01*
X137840179Y-111330532D01*
X137909141Y-111319309D01*
X137973224Y-111347153D01*
X137999308Y-111377256D01*
X138051058Y-111461156D01*
X138175114Y-111585212D01*
X138324436Y-111677314D01*
X138490973Y-111732499D01*
X138593761Y-111743000D01*
X139193778Y-111742999D01*
X139193786Y-111742998D01*
X139193789Y-111742998D01*
X139250072Y-111737248D01*
X139296567Y-111732499D01*
X139463104Y-111677314D01*
X139612426Y-111585212D01*
X139736482Y-111461156D01*
X139828584Y-111311834D01*
X139883769Y-111145297D01*
X139894270Y-111042509D01*
X139894270Y-110217000D01*
X139913955Y-110149961D01*
X139966759Y-110104206D01*
X140018270Y-110093000D01*
X145292403Y-110093000D01*
X145359442Y-110112685D01*
X145380084Y-110129319D01*
X145561681Y-110310916D01*
X145595166Y-110372239D01*
X145597220Y-110412479D01*
X145588205Y-110492495D01*
X145588205Y-110492503D01*
X145608400Y-110671749D01*
X145608404Y-110671766D01*
X145611465Y-110680514D01*
X145615024Y-110750293D01*
X145580292Y-110810919D01*
X145568733Y-110820729D01*
X145456225Y-110904952D01*
X145456222Y-110904955D01*
X145369976Y-111020164D01*
X145369972Y-111020171D01*
X145319678Y-111155017D01*
X145313271Y-111214616D01*
X145313270Y-111214635D01*
X145313271Y-112813692D01*
X145312560Y-112813692D01*
X145307449Y-112847110D01*
X145308963Y-112847468D01*
X145307178Y-112855020D01*
X145300771Y-112914616D01*
X145300771Y-112914623D01*
X145300770Y-112914635D01*
X145300770Y-113710370D01*
X145300771Y-113710376D01*
X145307178Y-113769983D01*
X145357472Y-113904828D01*
X145357476Y-113904835D01*
X145443722Y-114020044D01*
X145443725Y-114020047D01*
X145558934Y-114106293D01*
X145558941Y-114106297D01*
X145677603Y-114150555D01*
X145733537Y-114192426D01*
X145757954Y-114257890D01*
X145758270Y-114266737D01*
X145758270Y-114724980D01*
X145758270Y-114724986D01*
X145758270Y-115260014D01*
X145764605Y-115300009D01*
X145787215Y-115442765D01*
X145844389Y-115618732D01*
X145844390Y-115618735D01*
X145928392Y-115783596D01*
X146037149Y-115933287D01*
X146167983Y-116064121D01*
X146317674Y-116172878D01*
X146398533Y-116214077D01*
X146482534Y-116256879D01*
X146482537Y-116256880D01*
X146526792Y-116271259D01*
X146658506Y-116314055D01*
X146841256Y-116343000D01*
X146841257Y-116343000D01*
X147026283Y-116343000D01*
X147026284Y-116343000D01*
X147209034Y-116314055D01*
X147325953Y-116276065D01*
X147395793Y-116274071D01*
X147455626Y-116310151D01*
X147486454Y-116372852D01*
X147488270Y-116393996D01*
X147488270Y-116560369D01*
X147488271Y-116560376D01*
X147494678Y-116619983D01*
X147544972Y-116754828D01*
X147544976Y-116754835D01*
X147579677Y-116801189D01*
X147604095Y-116866653D01*
X147589244Y-116934926D01*
X147539839Y-116984332D01*
X147480411Y-116999500D01*
X142604113Y-116999500D01*
X142537074Y-116979815D01*
X142491319Y-116927011D01*
X142481375Y-116857853D01*
X142482860Y-116849544D01*
X142483766Y-116845303D01*
X142483769Y-116845297D01*
X142494270Y-116742508D01*
X142494270Y-113742492D01*
X142483769Y-113639703D01*
X142428584Y-113473166D01*
X142422313Y-113463000D01*
X142336483Y-113323848D01*
X142336480Y-113323844D01*
X142212425Y-113199789D01*
X142212421Y-113199786D01*
X142063107Y-113107687D01*
X142063105Y-113107686D01*
X141979835Y-113080093D01*
X141896567Y-113052501D01*
X141896565Y-113052500D01*
X141793785Y-113042000D01*
X141793778Y-113042000D01*
X140693762Y-113042000D01*
X140693754Y-113042000D01*
X140590974Y-113052500D01*
X140590973Y-113052501D01*
X140424434Y-113107686D01*
X140424432Y-113107687D01*
X140275118Y-113199786D01*
X140275114Y-113199789D01*
X140151059Y-113323844D01*
X140151056Y-113323848D01*
X140058957Y-113473162D01*
X140058956Y-113473164D01*
X140003771Y-113639703D01*
X140003770Y-113639704D01*
X139993270Y-113742484D01*
X139993270Y-116742515D01*
X140003771Y-116845298D01*
X140004680Y-116849544D01*
X139999464Y-116919219D01*
X139957407Y-116975013D01*
X139891862Y-116999213D01*
X139883427Y-116999500D01*
X135904113Y-116999500D01*
X135837074Y-116979815D01*
X135791319Y-116927011D01*
X135781375Y-116857853D01*
X135782860Y-116849544D01*
X135783766Y-116845303D01*
X135783769Y-116845297D01*
X135794270Y-116742508D01*
X135794270Y-113742492D01*
X135783769Y-113639703D01*
X135728584Y-113473166D01*
X135722313Y-113463000D01*
X135636483Y-113323848D01*
X135636480Y-113323844D01*
X135512425Y-113199789D01*
X135512421Y-113199786D01*
X135363107Y-113107687D01*
X135363105Y-113107686D01*
X135279835Y-113080093D01*
X135196567Y-113052501D01*
X135196565Y-113052500D01*
X135093785Y-113042000D01*
X135093778Y-113042000D01*
X133993762Y-113042000D01*
X133993754Y-113042000D01*
X133890974Y-113052500D01*
X133890973Y-113052501D01*
X133724434Y-113107686D01*
X133724432Y-113107687D01*
X133575118Y-113199786D01*
X133575114Y-113199789D01*
X133451059Y-113323844D01*
X133451056Y-113323848D01*
X133358957Y-113473162D01*
X133358956Y-113473164D01*
X133303771Y-113639703D01*
X133303770Y-113639704D01*
X133293270Y-113742484D01*
X133293270Y-116742515D01*
X133303771Y-116845298D01*
X133304680Y-116849544D01*
X133299464Y-116919219D01*
X133257407Y-116975013D01*
X133191862Y-116999213D01*
X133183427Y-116999500D01*
X131046665Y-116999500D01*
X130979626Y-116979815D01*
X130933871Y-116927011D01*
X130923927Y-116857853D01*
X130952952Y-116794297D01*
X130975537Y-116773928D01*
X130993147Y-116761598D01*
X131147868Y-116606877D01*
X131273372Y-116427639D01*
X131365845Y-116229330D01*
X131422477Y-116017977D01*
X131441547Y-115800000D01*
X131422477Y-115582023D01*
X131365845Y-115370670D01*
X131273372Y-115172362D01*
X131273370Y-115172359D01*
X131273369Y-115172357D01*
X131147869Y-114993124D01*
X131147868Y-114993123D01*
X130993147Y-114838402D01*
X130855248Y-114741844D01*
X130813908Y-114712897D01*
X130714754Y-114666661D01*
X130615600Y-114620425D01*
X130615596Y-114620424D01*
X130615592Y-114620422D01*
X130404247Y-114563793D01*
X130186272Y-114544723D01*
X130186268Y-114544723D01*
X129968299Y-114563792D01*
X129968295Y-114563792D01*
X129968293Y-114563793D01*
X129968287Y-114563794D01*
X129968285Y-114563795D01*
X129904161Y-114580976D01*
X129834311Y-114579312D01*
X129784388Y-114548882D01*
X128923089Y-113687583D01*
X128889604Y-113626260D01*
X128886770Y-113599902D01*
X128886770Y-113582412D01*
X128906455Y-113515373D01*
X128913825Y-113505097D01*
X128916080Y-113502267D01*
X128916086Y-113502262D01*
X129012059Y-113349522D01*
X129071638Y-113179255D01*
X129091835Y-113000000D01*
X129090326Y-112986611D01*
X129071639Y-112820750D01*
X129071638Y-112820745D01*
X129012058Y-112650476D01*
X128912381Y-112491842D01*
X128914679Y-112490397D01*
X128892929Y-112437151D01*
X128905671Y-112368453D01*
X128953531Y-112317550D01*
X129016282Y-112300500D01*
X130303858Y-112300500D01*
X130370897Y-112320185D01*
X130381173Y-112327555D01*
X130384006Y-112329814D01*
X130384008Y-112329816D01*
X130536748Y-112425789D01*
X130569219Y-112437151D01*
X130707015Y-112485368D01*
X130707020Y-112485369D01*
X130886266Y-112505565D01*
X130886270Y-112505565D01*
X130886274Y-112505565D01*
X131065519Y-112485369D01*
X131065522Y-112485368D01*
X131065525Y-112485368D01*
X131235792Y-112425789D01*
X131388532Y-112329816D01*
X131516086Y-112202262D01*
X131612059Y-112049522D01*
X131671638Y-111879255D01*
X131686990Y-111743000D01*
X131691835Y-111700003D01*
X131691835Y-111699996D01*
X131671639Y-111520750D01*
X131671638Y-111520745D01*
X131650787Y-111461156D01*
X131612059Y-111350478D01*
X131587775Y-111311831D01*
X131516085Y-111197737D01*
X131388532Y-111070184D01*
X131235793Y-110974211D01*
X131065524Y-110914631D01*
X131065519Y-110914630D01*
X130886274Y-110894435D01*
X130886266Y-110894435D01*
X130707020Y-110914630D01*
X130707015Y-110914631D01*
X130536746Y-110974211D01*
X130384006Y-111070185D01*
X130381173Y-111072445D01*
X130378994Y-111073334D01*
X130378112Y-111073889D01*
X130378014Y-111073734D01*
X130316487Y-111098855D01*
X130303858Y-111099500D01*
X128318682Y-111099500D01*
X128251643Y-111079815D01*
X128241367Y-111072445D01*
X128238533Y-111070185D01*
X128238532Y-111070184D01*
X128158926Y-111020164D01*
X128085793Y-110974211D01*
X127915524Y-110914631D01*
X127915519Y-110914630D01*
X127736274Y-110894435D01*
X127736266Y-110894435D01*
X127557020Y-110914630D01*
X127557015Y-110914631D01*
X127386746Y-110974211D01*
X127234007Y-111070184D01*
X127106454Y-111197737D01*
X127010481Y-111350476D01*
X126950901Y-111520745D01*
X126950900Y-111520750D01*
X126930705Y-111699996D01*
X126930705Y-111700003D01*
X126950900Y-111879249D01*
X126950901Y-111879254D01*
X127010481Y-112049523D01*
X127017434Y-112060588D01*
X127106454Y-112202262D01*
X127234008Y-112329816D01*
X127386748Y-112425789D01*
X127498136Y-112464765D01*
X127554912Y-112505487D01*
X127580660Y-112570439D01*
X127567204Y-112639001D01*
X127562179Y-112647774D01*
X127560482Y-112650474D01*
X127500901Y-112820745D01*
X127500900Y-112820750D01*
X127480705Y-112999996D01*
X127480705Y-113000003D01*
X127500900Y-113179249D01*
X127500901Y-113179254D01*
X127560481Y-113349523D01*
X127607943Y-113425057D01*
X127638170Y-113473164D01*
X127656455Y-113502263D01*
X127658715Y-113505097D01*
X127659604Y-113507275D01*
X127660159Y-113508158D01*
X127660004Y-113508255D01*
X127685125Y-113569783D01*
X127685770Y-113582412D01*
X127685770Y-113813330D01*
X127685769Y-113813348D01*
X127685769Y-113979054D01*
X127685768Y-113979054D01*
X127685769Y-113979057D01*
X127726693Y-114131785D01*
X127726694Y-114131786D01*
X127741014Y-114156591D01*
X127741015Y-114156592D01*
X127805745Y-114268709D01*
X127805751Y-114268717D01*
X127924619Y-114387585D01*
X127924625Y-114387590D01*
X128935152Y-115398118D01*
X128968637Y-115459441D01*
X128967246Y-115517891D01*
X128950065Y-115582015D01*
X128950062Y-115582029D01*
X128930993Y-115799997D01*
X128930993Y-115800002D01*
X128950063Y-116017975D01*
X128950063Y-116017979D01*
X129006692Y-116229322D01*
X129006694Y-116229326D01*
X129006695Y-116229330D01*
X129046203Y-116314055D01*
X129099167Y-116427638D01*
X129099168Y-116427639D01*
X129224672Y-116606877D01*
X129379393Y-116761598D01*
X129397001Y-116773927D01*
X129440624Y-116828504D01*
X129447816Y-116898002D01*
X129416293Y-116960356D01*
X129356063Y-116995769D01*
X129325875Y-116999500D01*
X125610815Y-116999500D01*
X125543776Y-116979815D01*
X125498021Y-116927011D01*
X125486815Y-116875455D01*
X125486817Y-116870046D01*
X125489141Y-110521108D01*
X125508850Y-110454077D01*
X125561671Y-110408342D01*
X125630833Y-110398424D01*
X125675140Y-110413767D01*
X125754486Y-110459577D01*
X125866289Y-110489534D01*
X125907212Y-110500500D01*
X125907213Y-110500500D01*
X125907216Y-110500500D01*
X125915270Y-110501561D01*
X125914979Y-110503765D01*
X125970897Y-110520185D01*
X125981173Y-110527555D01*
X125984006Y-110529814D01*
X125984008Y-110529816D01*
X126136748Y-110625789D01*
X126268094Y-110671749D01*
X126307015Y-110685368D01*
X126307020Y-110685369D01*
X126486266Y-110705565D01*
X126486270Y-110705565D01*
X126486274Y-110705565D01*
X126665519Y-110685369D01*
X126665522Y-110685368D01*
X126665525Y-110685368D01*
X126835792Y-110625789D01*
X126988532Y-110529816D01*
X127116086Y-110402262D01*
X127212059Y-110249522D01*
X127271638Y-110079255D01*
X127291835Y-109900000D01*
X127276817Y-109766712D01*
X127271639Y-109720750D01*
X127271638Y-109720745D01*
X127259807Y-109686935D01*
X127212059Y-109550478D01*
X127174108Y-109490080D01*
X127155109Y-109422845D01*
X127175477Y-109356009D01*
X127228744Y-109310795D01*
X127298001Y-109301557D01*
X127356420Y-109327165D01*
X127359736Y-109329809D01*
X127359743Y-109329816D01*
X127467840Y-109397738D01*
X127507797Y-109422845D01*
X127512483Y-109425789D01*
X127655372Y-109475788D01*
X127682750Y-109485368D01*
X127682755Y-109485369D01*
X127862001Y-109505565D01*
X127862005Y-109505565D01*
X127862009Y-109505565D01*
X128041256Y-109485369D01*
X128041258Y-109485368D01*
X128041260Y-109485368D01*
X128135710Y-109452317D01*
X128205489Y-109448756D01*
X128242634Y-109464363D01*
X128260817Y-109475789D01*
X128431078Y-109535366D01*
X128431084Y-109535368D01*
X128431089Y-109535369D01*
X128610335Y-109555565D01*
X128610339Y-109555565D01*
X128610343Y-109555565D01*
X128789588Y-109535369D01*
X128789590Y-109535368D01*
X128789594Y-109535368D01*
X128789597Y-109535366D01*
X128789601Y-109535366D01*
X128885495Y-109501810D01*
X128957349Y-109476667D01*
X129027126Y-109473105D01*
X129039258Y-109476668D01*
X129207007Y-109535366D01*
X129207013Y-109535367D01*
X129207015Y-109535368D01*
X129207016Y-109535368D01*
X129207020Y-109535369D01*
X129386266Y-109555565D01*
X129386270Y-109555565D01*
X129386274Y-109555565D01*
X129565519Y-109535369D01*
X129565522Y-109535368D01*
X129565525Y-109535368D01*
X129735792Y-109475789D01*
X129888532Y-109379816D01*
X130016086Y-109252262D01*
X130016089Y-109252258D01*
X130020132Y-109247189D01*
X130077319Y-109207047D01*
X130117081Y-109200499D01*
X130543133Y-109200499D01*
X130660525Y-109185045D01*
X130660525Y-109185044D01*
X130660532Y-109185044D01*
X130660537Y-109185041D01*
X130661670Y-109184739D01*
X130662855Y-109184738D01*
X130668591Y-109183984D01*
X130668690Y-109184738D01*
X130718850Y-109184737D01*
X130718950Y-109183983D01*
X130724677Y-109184737D01*
X130725861Y-109184737D01*
X130727004Y-109185043D01*
X130727006Y-109185043D01*
X130727008Y-109185044D01*
X130844409Y-109200500D01*
X131358130Y-109200499D01*
X131358133Y-109200499D01*
X131475523Y-109185046D01*
X131475527Y-109185044D01*
X131475532Y-109185044D01*
X131621611Y-109124536D01*
X131747052Y-109028282D01*
X131843306Y-108902841D01*
X131903814Y-108756762D01*
X131919270Y-108639361D01*
X131919269Y-108404703D01*
X131938953Y-108337664D01*
X131977295Y-108299710D01*
X132088532Y-108229816D01*
X132216086Y-108102262D01*
X132312059Y-107949522D01*
X132371638Y-107779255D01*
X132371639Y-107779249D01*
X132391835Y-107600003D01*
X132391835Y-107599996D01*
X132371639Y-107420750D01*
X132371636Y-107420737D01*
X132321392Y-107277148D01*
X132317830Y-107207369D01*
X132352558Y-107146742D01*
X132356674Y-107142965D01*
X132386270Y-107117010D01*
X132386270Y-106434499D01*
X132405955Y-106367460D01*
X132458759Y-106321705D01*
X132510266Y-106310499D01*
X132683908Y-106310499D01*
X132750947Y-106330184D01*
X132796702Y-106382988D01*
X132806646Y-106452146D01*
X132786270Y-106496763D01*
X132786270Y-107117010D01*
X132786271Y-107117011D01*
X132842897Y-107109557D01*
X132842903Y-107109555D01*
X132988855Y-107049100D01*
X133114196Y-106952923D01*
X133137894Y-106922039D01*
X133194321Y-106880836D01*
X133264067Y-106876681D01*
X133324988Y-106910893D01*
X133334646Y-106922039D01*
X133358343Y-106952923D01*
X133483684Y-107049100D01*
X133629636Y-107109555D01*
X133629642Y-107109557D01*
X133686268Y-107117011D01*
X133686270Y-107117010D01*
X133686270Y-106495295D01*
X133667465Y-106460857D01*
X133672449Y-106391165D01*
X133714321Y-106335232D01*
X133779785Y-106310815D01*
X133788607Y-106310499D01*
X133983908Y-106310499D01*
X134050947Y-106330184D01*
X134096702Y-106382988D01*
X134106646Y-106452146D01*
X134086270Y-106496763D01*
X134086270Y-107117010D01*
X134086271Y-107117011D01*
X134142897Y-107109557D01*
X134142903Y-107109555D01*
X134288855Y-107049100D01*
X134414194Y-106952924D01*
X134510370Y-106827586D01*
X134570824Y-106681634D01*
X134570825Y-106681630D01*
X134586269Y-106564330D01*
X134586270Y-106564316D01*
X134586270Y-106507500D01*
X134253507Y-106507500D01*
X134186468Y-106487815D01*
X134140713Y-106435011D01*
X134130769Y-106365853D01*
X134159794Y-106302297D01*
X134206055Y-106268939D01*
X134213302Y-106265936D01*
X134289111Y-106234536D01*
X134414552Y-106138282D01*
X134414553Y-106138279D01*
X134420999Y-106133334D01*
X134423130Y-106136111D01*
X134470338Y-106110334D01*
X134496696Y-106107500D01*
X134586269Y-106107500D01*
X134586269Y-106050677D01*
X134570825Y-105933371D01*
X134570745Y-105933069D01*
X134570745Y-105932756D01*
X134569765Y-105925312D01*
X134570745Y-105925182D01*
X134570745Y-105874884D01*
X134570253Y-105874820D01*
X134570745Y-105871075D01*
X134570746Y-105868879D01*
X134571310Y-105866771D01*
X134571314Y-105866762D01*
X134586770Y-105749361D01*
X134586769Y-105434498D01*
X134606453Y-105367460D01*
X134659257Y-105321705D01*
X134710769Y-105310499D01*
X134783133Y-105310499D01*
X134900523Y-105295046D01*
X134900527Y-105295044D01*
X134900532Y-105295044D01*
X135046611Y-105234536D01*
X135172052Y-105138282D01*
X135172056Y-105138277D01*
X135177799Y-105132535D01*
X135179515Y-105134251D01*
X135226006Y-105100309D01*
X135267948Y-105093000D01*
X135722615Y-105093000D01*
X135789654Y-105112685D01*
G37*
%TD.AperFunction*%
%TA.AperFunction,Conductor*%
G36*
X160442194Y-79420350D02*
G01*
X160488100Y-79473024D01*
X160499453Y-79524902D01*
X160495893Y-89276045D01*
X160476184Y-89343078D01*
X160423363Y-89388813D01*
X160371893Y-89400000D01*
X160136270Y-89400000D01*
X160136270Y-91800000D01*
X160370925Y-91800000D01*
X160437964Y-91819685D01*
X160483719Y-91872489D01*
X160494925Y-91924045D01*
X160494578Y-92876045D01*
X160474869Y-92943077D01*
X160422048Y-92988813D01*
X160370578Y-93000000D01*
X160136270Y-93000000D01*
X160136270Y-95400000D01*
X160369611Y-95400000D01*
X160436650Y-95419685D01*
X160482405Y-95472489D01*
X160493611Y-95524045D01*
X160485815Y-116875545D01*
X160466106Y-116942578D01*
X160413285Y-116988313D01*
X160361815Y-116999500D01*
X151847129Y-116999500D01*
X151780090Y-116979815D01*
X151734335Y-116927011D01*
X151724391Y-116857853D01*
X151747863Y-116801189D01*
X151782563Y-116754835D01*
X151782562Y-116754835D01*
X151782566Y-116754831D01*
X151832861Y-116619983D01*
X151839270Y-116560373D01*
X151839269Y-116393996D01*
X151858953Y-116326958D01*
X151911757Y-116281203D01*
X151980915Y-116271259D01*
X152001586Y-116276065D01*
X152118506Y-116314055D01*
X152301256Y-116343000D01*
X152301257Y-116343000D01*
X152486283Y-116343000D01*
X152486284Y-116343000D01*
X152669034Y-116314055D01*
X152845005Y-116256879D01*
X153009866Y-116172878D01*
X153159557Y-116064121D01*
X153290391Y-115933287D01*
X153399148Y-115783596D01*
X153483149Y-115618735D01*
X153540325Y-115442764D01*
X153569270Y-115260014D01*
X153569270Y-115228794D01*
X153577089Y-115185458D01*
X153582861Y-115169983D01*
X153589270Y-115110373D01*
X153589269Y-114277030D01*
X153608953Y-114209992D01*
X153661757Y-114164237D01*
X153680225Y-114157906D01*
X153683749Y-114156591D01*
X153683753Y-114156591D01*
X153818601Y-114106296D01*
X153933816Y-114020046D01*
X154020066Y-113904831D01*
X154070361Y-113769983D01*
X154076770Y-113710373D01*
X154076769Y-112914628D01*
X154070361Y-112855017D01*
X154070361Y-112855016D01*
X154068578Y-112847472D01*
X154069465Y-112847262D01*
X154065210Y-112813389D01*
X155910770Y-112813389D01*
X155910770Y-112986610D01*
X155929946Y-113107687D01*
X155937868Y-113157701D01*
X155991397Y-113322445D01*
X156070038Y-113476788D01*
X156171856Y-113616928D01*
X156171858Y-113616930D01*
X156279397Y-113724469D01*
X156312882Y-113785792D01*
X156307898Y-113855484D01*
X156266026Y-113911417D01*
X156256814Y-113917688D01*
X156192614Y-113957287D01*
X156068559Y-114081342D01*
X155976457Y-114230663D01*
X155976456Y-114230666D01*
X155921271Y-114397203D01*
X155921271Y-114397204D01*
X155921270Y-114397204D01*
X155910770Y-114499983D01*
X155910770Y-115300001D01*
X155910771Y-115300019D01*
X155921270Y-115402796D01*
X155921271Y-115402799D01*
X155976455Y-115569331D01*
X155976457Y-115569336D01*
X155984283Y-115582024D01*
X156068558Y-115718656D01*
X156192614Y-115842712D01*
X156341936Y-115934814D01*
X156508473Y-115989999D01*
X156611261Y-116000500D01*
X157961278Y-116000499D01*
X158064067Y-115989999D01*
X158230604Y-115934814D01*
X158379926Y-115842712D01*
X158503982Y-115718656D01*
X158596084Y-115569334D01*
X158651269Y-115402797D01*
X158661770Y-115300009D01*
X158661769Y-114499992D01*
X158651269Y-114397203D01*
X158596084Y-114230666D01*
X158503982Y-114081344D01*
X158379926Y-113957288D01*
X158379922Y-113957285D01*
X158315726Y-113917688D01*
X158269001Y-113865740D01*
X158257780Y-113796777D01*
X158285623Y-113732695D01*
X158293120Y-113724491D01*
X158400684Y-113616928D01*
X158502502Y-113476788D01*
X158581143Y-113322445D01*
X158634672Y-113157701D01*
X158661770Y-112986611D01*
X158661770Y-112813389D01*
X158634672Y-112642299D01*
X158581143Y-112477555D01*
X158502502Y-112323212D01*
X158400684Y-112183072D01*
X158278198Y-112060586D01*
X158138058Y-111958768D01*
X157983715Y-111880127D01*
X157818971Y-111826598D01*
X157818969Y-111826597D01*
X157818968Y-111826597D01*
X157687541Y-111805781D01*
X157647881Y-111799500D01*
X156924659Y-111799500D01*
X156884998Y-111805781D01*
X156753572Y-111826597D01*
X156588822Y-111880128D01*
X156434481Y-111958768D01*
X156354526Y-112016859D01*
X156294342Y-112060586D01*
X156294340Y-112060588D01*
X156294339Y-112060588D01*
X156171858Y-112183069D01*
X156171858Y-112183070D01*
X156171856Y-112183072D01*
X156157914Y-112202262D01*
X156070038Y-112323211D01*
X155991398Y-112477552D01*
X155937867Y-112642302D01*
X155910770Y-112813389D01*
X154065210Y-112813389D01*
X154063370Y-112798737D01*
X154064270Y-112790373D01*
X154064269Y-111194628D01*
X154057861Y-111135017D01*
X154044373Y-111098855D01*
X154007567Y-111000171D01*
X154007563Y-111000164D01*
X153921317Y-110884955D01*
X153921314Y-110884952D01*
X153806105Y-110798706D01*
X153806098Y-110798702D01*
X153671252Y-110748408D01*
X153671253Y-110748408D01*
X153611653Y-110742001D01*
X153611651Y-110742000D01*
X153611643Y-110742000D01*
X153611635Y-110742000D01*
X151809980Y-110742000D01*
X151742941Y-110722315D01*
X151697186Y-110669511D01*
X151686760Y-110604117D01*
X151699335Y-110492504D01*
X151699335Y-110492496D01*
X151679139Y-110313250D01*
X151679138Y-110313245D01*
X151663557Y-110268716D01*
X151619559Y-110142978D01*
X151610976Y-110129319D01*
X151523585Y-109990237D01*
X151396032Y-109862684D01*
X151243293Y-109766711D01*
X151073024Y-109707131D01*
X151073019Y-109707130D01*
X150893774Y-109686935D01*
X150893766Y-109686935D01*
X150714520Y-109707130D01*
X150714515Y-109707131D01*
X150544246Y-109766711D01*
X150391507Y-109862684D01*
X150263954Y-109990237D01*
X150167981Y-110142976D01*
X150108401Y-110313245D01*
X150108400Y-110313250D01*
X150088205Y-110492496D01*
X150088205Y-110492504D01*
X150106639Y-110656119D01*
X150094584Y-110724941D01*
X150047235Y-110776320D01*
X149979624Y-110793944D01*
X149970165Y-110793292D01*
X149968633Y-110793127D01*
X149911643Y-110787000D01*
X149911635Y-110787000D01*
X149415899Y-110787000D01*
X149415890Y-110787001D01*
X149352018Y-110793867D01*
X149325512Y-110793867D01*
X149321253Y-110793409D01*
X149261643Y-110787000D01*
X149261637Y-110787000D01*
X149088270Y-110787000D01*
X149021231Y-110767315D01*
X148975476Y-110714511D01*
X148964270Y-110663000D01*
X148964270Y-108584713D01*
X148962754Y-108579058D01*
X148962751Y-108579046D01*
X148946452Y-108518215D01*
X148923347Y-108431986D01*
X148882156Y-108360640D01*
X148844294Y-108295060D01*
X148844291Y-108295056D01*
X148844290Y-108295054D01*
X148732486Y-108183250D01*
X148732485Y-108183249D01*
X148728155Y-108178919D01*
X148728144Y-108178909D01*
X144587590Y-104038355D01*
X144587588Y-104038352D01*
X144468715Y-103919479D01*
X144452414Y-103910068D01*
X144404199Y-103859500D01*
X144390977Y-103790893D01*
X144416945Y-103726029D01*
X144426725Y-103715009D01*
X146137417Y-102004319D01*
X146198740Y-101970834D01*
X146225098Y-101968000D01*
X146566669Y-101968000D01*
X146566674Y-101968000D01*
X146665185Y-101957936D01*
X146824787Y-101905049D01*
X146967891Y-101816781D01*
X146999819Y-101784853D01*
X147061142Y-101751368D01*
X147130834Y-101756352D01*
X147175181Y-101784853D01*
X147207108Y-101816780D01*
X147207112Y-101816783D01*
X147350204Y-101905044D01*
X147350207Y-101905045D01*
X147350213Y-101905049D01*
X147509815Y-101957936D01*
X147608326Y-101968000D01*
X147608331Y-101968000D01*
X148141669Y-101968000D01*
X148141674Y-101968000D01*
X148240185Y-101957936D01*
X148399787Y-101905049D01*
X148542891Y-101816781D01*
X148661781Y-101697891D01*
X148750049Y-101554787D01*
X148802936Y-101395185D01*
X148813000Y-101296674D01*
X148813000Y-100841353D01*
X148832685Y-100774314D01*
X148885489Y-100728559D01*
X148954647Y-100718615D01*
X149018203Y-100747640D01*
X149024679Y-100753670D01*
X150362172Y-102091164D01*
X151661117Y-103390109D01*
X151694602Y-103451432D01*
X151689618Y-103521124D01*
X151678435Y-103543754D01*
X151674209Y-103550479D01*
X151614633Y-103720737D01*
X151614630Y-103720750D01*
X151594435Y-103899996D01*
X151594435Y-103900003D01*
X151614630Y-104079249D01*
X151614631Y-104079254D01*
X151674211Y-104249523D01*
X151754178Y-104376788D01*
X151770184Y-104402262D01*
X151897738Y-104529816D01*
X151952751Y-104564383D01*
X152012635Y-104602011D01*
X152050478Y-104625789D01*
X152189686Y-104674500D01*
X152220745Y-104685368D01*
X152220750Y-104685369D01*
X152399996Y-104705565D01*
X152400000Y-104705565D01*
X152400004Y-104705565D01*
X152579249Y-104685369D01*
X152579252Y-104685368D01*
X152579255Y-104685368D01*
X152749522Y-104625789D01*
X152902262Y-104529816D01*
X153011352Y-104420725D01*
X153072671Y-104387243D01*
X153142363Y-104392227D01*
X153186711Y-104420728D01*
X155046503Y-106280520D01*
X155046505Y-106280521D01*
X155046509Y-106280524D01*
X155183428Y-106359573D01*
X155183435Y-106359577D01*
X155336162Y-106400501D01*
X155336164Y-106400501D01*
X155501873Y-106400501D01*
X155501889Y-106400500D01*
X156037815Y-106400500D01*
X156104854Y-106420185D01*
X156138131Y-106451612D01*
X156185586Y-106516928D01*
X156185588Y-106516930D01*
X156293491Y-106624833D01*
X156326976Y-106686156D01*
X156321992Y-106755848D01*
X156280120Y-106811781D01*
X156270907Y-106818053D01*
X156206654Y-106857684D01*
X156082684Y-106981654D01*
X155990643Y-107130875D01*
X155990641Y-107130880D01*
X155935494Y-107297302D01*
X155935493Y-107297309D01*
X155925000Y-107400013D01*
X155925000Y-107550000D01*
X157019670Y-107550000D01*
X156999925Y-107569745D01*
X156950556Y-107655255D01*
X156925000Y-107750630D01*
X156925000Y-107849370D01*
X156950556Y-107944745D01*
X156999925Y-108030255D01*
X157019670Y-108050000D01*
X155925001Y-108050000D01*
X155925001Y-108199986D01*
X155935494Y-108302697D01*
X155990641Y-108469119D01*
X155990643Y-108469124D01*
X156082684Y-108618345D01*
X156206654Y-108742315D01*
X156355875Y-108834356D01*
X156355880Y-108834358D01*
X156522302Y-108889505D01*
X156522309Y-108889506D01*
X156625019Y-108899999D01*
X157049999Y-108899999D01*
X157050000Y-108899998D01*
X157050000Y-108080330D01*
X157069745Y-108100075D01*
X157155255Y-108149444D01*
X157250630Y-108175000D01*
X157349370Y-108175000D01*
X157444745Y-108149444D01*
X157530255Y-108100075D01*
X157550000Y-108080330D01*
X157550000Y-108899999D01*
X157974972Y-108899999D01*
X157974986Y-108899998D01*
X158077697Y-108889505D01*
X158244119Y-108834358D01*
X158244124Y-108834356D01*
X158393345Y-108742315D01*
X158517315Y-108618345D01*
X158609356Y-108469124D01*
X158609358Y-108469119D01*
X158664505Y-108302697D01*
X158664506Y-108302690D01*
X158674999Y-108199986D01*
X158675000Y-108199973D01*
X158675000Y-108050000D01*
X157580330Y-108050000D01*
X157600075Y-108030255D01*
X157649444Y-107944745D01*
X157675000Y-107849370D01*
X157675000Y-107750630D01*
X157649444Y-107655255D01*
X157600075Y-107569745D01*
X157580330Y-107550000D01*
X158674999Y-107550000D01*
X158674999Y-107400028D01*
X158674998Y-107400013D01*
X158664505Y-107297302D01*
X158609358Y-107130880D01*
X158609356Y-107130875D01*
X158517315Y-106981654D01*
X158393343Y-106857682D01*
X158329093Y-106818053D01*
X158282368Y-106766105D01*
X158271145Y-106697143D01*
X158298988Y-106633061D01*
X158306486Y-106624855D01*
X158414414Y-106516928D01*
X158516232Y-106376788D01*
X158594873Y-106222445D01*
X158648402Y-106057701D01*
X158675500Y-105886611D01*
X158675500Y-105713389D01*
X158648402Y-105542299D01*
X158594873Y-105377555D01*
X158516232Y-105223212D01*
X158414414Y-105083072D01*
X158291928Y-104960586D01*
X158208975Y-104900317D01*
X158166311Y-104844988D01*
X158160332Y-104775374D01*
X158192938Y-104713579D01*
X158208976Y-104699682D01*
X158291928Y-104639414D01*
X158414414Y-104516928D01*
X158516232Y-104376788D01*
X158594873Y-104222445D01*
X158648402Y-104057701D01*
X158675500Y-103886611D01*
X158675500Y-103713389D01*
X158648402Y-103542299D01*
X158594873Y-103377555D01*
X158516232Y-103223212D01*
X158414414Y-103083072D01*
X158291928Y-102960586D01*
X158208975Y-102900317D01*
X158166311Y-102844988D01*
X158160332Y-102775374D01*
X158192938Y-102713579D01*
X158208976Y-102699682D01*
X158291928Y-102639414D01*
X158414414Y-102516928D01*
X158516232Y-102376788D01*
X158594873Y-102222445D01*
X158648402Y-102057701D01*
X158675500Y-101886611D01*
X158675500Y-101713389D01*
X158648402Y-101542299D01*
X158594873Y-101377555D01*
X158516232Y-101223212D01*
X158414414Y-101083072D01*
X158291928Y-100960586D01*
X158208975Y-100900317D01*
X158166311Y-100844988D01*
X158160332Y-100775374D01*
X158192938Y-100713579D01*
X158208976Y-100699682D01*
X158211652Y-100697738D01*
X158291928Y-100639414D01*
X158414414Y-100516928D01*
X158516232Y-100376788D01*
X158594873Y-100222445D01*
X158648402Y-100057701D01*
X158675500Y-99886611D01*
X158675500Y-99713389D01*
X158648402Y-99542299D01*
X158594873Y-99377555D01*
X158516232Y-99223212D01*
X158414414Y-99083072D01*
X158291928Y-98960586D01*
X158208975Y-98900317D01*
X158166311Y-98844988D01*
X158160332Y-98775374D01*
X158192938Y-98713579D01*
X158208976Y-98699682D01*
X158291928Y-98639414D01*
X158414414Y-98516928D01*
X158516232Y-98376788D01*
X158594873Y-98222445D01*
X158648402Y-98057701D01*
X158675500Y-97886611D01*
X158675500Y-97713389D01*
X158648402Y-97542299D01*
X158594873Y-97377555D01*
X158516232Y-97223212D01*
X158414414Y-97083072D01*
X158291928Y-96960586D01*
X158151788Y-96858768D01*
X157997445Y-96780127D01*
X157832701Y-96726598D01*
X157832699Y-96726597D01*
X157832698Y-96726597D01*
X157701271Y-96705781D01*
X157661611Y-96699500D01*
X156938389Y-96699500D01*
X156898728Y-96705781D01*
X156767302Y-96726597D01*
X156602552Y-96780128D01*
X156448211Y-96858768D01*
X156384029Y-96905400D01*
X156308072Y-96960586D01*
X156308070Y-96960588D01*
X156308069Y-96960588D01*
X156185588Y-97083069D01*
X156185588Y-97083070D01*
X156185586Y-97083072D01*
X156173287Y-97100000D01*
X156083768Y-97223211D01*
X156005128Y-97377552D01*
X155951597Y-97542302D01*
X155924500Y-97713389D01*
X155924500Y-97886610D01*
X155950302Y-98049523D01*
X155951598Y-98057701D01*
X156005127Y-98222445D01*
X156083768Y-98376788D01*
X156185586Y-98516928D01*
X156308072Y-98639414D01*
X156308078Y-98639418D01*
X156391023Y-98699683D01*
X156433689Y-98755013D01*
X156439667Y-98824626D01*
X156407061Y-98886421D01*
X156391023Y-98900317D01*
X156308078Y-98960581D01*
X156308069Y-98960588D01*
X156185588Y-99083069D01*
X156185588Y-99083070D01*
X156185586Y-99083072D01*
X156138133Y-99148386D01*
X156082803Y-99191051D01*
X156037815Y-99199500D01*
X151100097Y-99199500D01*
X151033058Y-99179815D01*
X151012416Y-99163181D01*
X150526416Y-98677181D01*
X150492931Y-98615858D01*
X150497915Y-98546166D01*
X150539787Y-98490233D01*
X150605251Y-98465816D01*
X150614097Y-98465500D01*
X151248331Y-98465500D01*
X151248347Y-98465501D01*
X151255943Y-98465501D01*
X151414054Y-98465501D01*
X151414057Y-98465501D01*
X151566785Y-98424577D01*
X151616904Y-98395639D01*
X151703716Y-98345520D01*
X151815520Y-98233716D01*
X151815520Y-98233714D01*
X151825728Y-98223507D01*
X151825729Y-98223504D01*
X153166868Y-96882368D01*
X153225669Y-96780521D01*
X153236361Y-96762002D01*
X153286927Y-96713787D01*
X153333874Y-96702397D01*
X153336270Y-96700002D01*
X153836270Y-96700002D01*
X153913498Y-96700002D01*
X153913514Y-96700001D01*
X153973042Y-96693600D01*
X153973049Y-96693598D01*
X154107756Y-96643356D01*
X154107763Y-96643352D01*
X154222857Y-96557192D01*
X154222860Y-96557189D01*
X154309020Y-96442095D01*
X154309024Y-96442088D01*
X154359266Y-96307381D01*
X154359268Y-96307374D01*
X154365669Y-96247846D01*
X154365670Y-96247829D01*
X154365670Y-96043602D01*
X153836270Y-96043602D01*
X153836270Y-96700002D01*
X153336270Y-96700002D01*
X153336270Y-96581486D01*
X153355955Y-96514447D01*
X153361003Y-96507175D01*
X153409544Y-96442333D01*
X153459839Y-96307485D01*
X153466248Y-96247875D01*
X153466247Y-95667601D01*
X153485931Y-95600563D01*
X153538735Y-95554808D01*
X153590247Y-95543602D01*
X154365670Y-95543602D01*
X154365670Y-95339374D01*
X154365669Y-95339357D01*
X154359268Y-95279829D01*
X154359266Y-95279822D01*
X154309024Y-95145115D01*
X154309020Y-95145108D01*
X154251543Y-95068329D01*
X154227125Y-95002865D01*
X154241976Y-94934592D01*
X154251542Y-94919707D01*
X154309466Y-94842331D01*
X154359761Y-94707483D01*
X154366170Y-94647873D01*
X154366169Y-93739328D01*
X154360760Y-93689014D01*
X154359761Y-93679716D01*
X154309467Y-93544871D01*
X154309463Y-93544864D01*
X154223217Y-93429655D01*
X154223214Y-93429652D01*
X154108005Y-93343406D01*
X154107998Y-93343402D01*
X153973156Y-93293110D01*
X153973155Y-93293109D01*
X153973153Y-93293109D01*
X153913543Y-93286700D01*
X153913533Y-93286700D01*
X153258999Y-93286700D01*
X153258993Y-93286701D01*
X153199388Y-93293108D01*
X153179640Y-93300474D01*
X153109948Y-93305457D01*
X153092977Y-93300473D01*
X153073236Y-93293110D01*
X153073232Y-93293109D01*
X153073231Y-93293109D01*
X153013621Y-93286700D01*
X153013611Y-93286700D01*
X152359077Y-93286700D01*
X152359071Y-93286701D01*
X152299464Y-93293108D01*
X152164619Y-93343402D01*
X152164612Y-93343406D01*
X152049404Y-93429652D01*
X152049403Y-93429653D01*
X152049402Y-93429654D01*
X151964242Y-93543411D01*
X151908310Y-93585282D01*
X151864977Y-93593100D01*
X151661443Y-93593100D01*
X151594404Y-93573415D01*
X151573762Y-93556781D01*
X150673166Y-92656185D01*
X150639681Y-92594862D01*
X150636847Y-92568504D01*
X150636847Y-92511738D01*
X150621393Y-92394346D01*
X150621392Y-92394344D01*
X150621392Y-92394340D01*
X150621390Y-92394335D01*
X150621086Y-92393198D01*
X150621085Y-92392008D01*
X150620332Y-92386281D01*
X150621085Y-92386181D01*
X150621085Y-92336021D01*
X150620331Y-92335922D01*
X150621085Y-92330194D01*
X150621085Y-92329007D01*
X150621388Y-92327873D01*
X150621392Y-92327864D01*
X150636848Y-92210463D01*
X150636847Y-91696742D01*
X150636847Y-91696738D01*
X150621394Y-91579348D01*
X150621392Y-91579343D01*
X150621392Y-91579340D01*
X150560884Y-91433261D01*
X150560883Y-91433260D01*
X150557774Y-91425753D01*
X150559930Y-91424859D01*
X150546281Y-91368602D01*
X150569133Y-91302574D01*
X150624053Y-91259383D01*
X150670141Y-91250500D01*
X157288919Y-91250500D01*
X157355958Y-91270185D01*
X157401713Y-91322989D01*
X157412209Y-91361248D01*
X157417178Y-91407483D01*
X157467472Y-91542328D01*
X157467476Y-91542335D01*
X157553722Y-91657544D01*
X157553725Y-91657547D01*
X157668934Y-91743793D01*
X157668941Y-91743797D01*
X157725460Y-91764877D01*
X157753904Y-91775486D01*
X157755103Y-91775933D01*
X157811036Y-91817804D01*
X157835454Y-91883268D01*
X157835770Y-91892115D01*
X157835770Y-92907884D01*
X157816085Y-92974923D01*
X157763281Y-93020678D01*
X157755104Y-93024066D01*
X157668939Y-93056203D01*
X157668934Y-93056206D01*
X157553725Y-93142452D01*
X157553722Y-93142455D01*
X157467476Y-93257664D01*
X157467472Y-93257671D01*
X157417178Y-93392517D01*
X157410771Y-93452116D01*
X157410770Y-93452135D01*
X157410770Y-94947870D01*
X157410771Y-94947876D01*
X157417178Y-95007483D01*
X157467472Y-95142328D01*
X157467476Y-95142335D01*
X157553722Y-95257544D01*
X157553725Y-95257547D01*
X157668934Y-95343793D01*
X157668941Y-95343797D01*
X157803787Y-95394091D01*
X157803786Y-95394091D01*
X157810714Y-95394835D01*
X157863397Y-95400500D01*
X159009142Y-95400499D01*
X159068753Y-95394091D01*
X159118652Y-95375479D01*
X159188339Y-95370494D01*
X159205318Y-95375479D01*
X159253898Y-95393598D01*
X159253897Y-95393598D01*
X159313425Y-95399999D01*
X159313442Y-95400000D01*
X159636270Y-95400000D01*
X159636270Y-93000000D01*
X159313425Y-93000000D01*
X159253897Y-93006401D01*
X159253890Y-93006403D01*
X159205314Y-93024520D01*
X159135622Y-93029503D01*
X159118685Y-93024532D01*
X159117472Y-93024080D01*
X159061526Y-92982226D01*
X159037089Y-92916769D01*
X159036770Y-92907885D01*
X159036770Y-91892114D01*
X159056455Y-91825075D01*
X159109259Y-91779320D01*
X159117410Y-91775943D01*
X159118636Y-91775485D01*
X159188324Y-91770491D01*
X159205318Y-91775479D01*
X159253898Y-91793598D01*
X159253897Y-91793598D01*
X159313425Y-91799999D01*
X159313442Y-91800000D01*
X159636270Y-91800000D01*
X159636270Y-89400000D01*
X159313425Y-89400000D01*
X159253897Y-89406401D01*
X159253893Y-89406402D01*
X159205316Y-89424520D01*
X159135624Y-89429503D01*
X159118652Y-89424519D01*
X159068755Y-89405909D01*
X159068754Y-89405908D01*
X159032049Y-89401962D01*
X158967498Y-89375223D01*
X158927651Y-89317830D01*
X158925158Y-89248005D01*
X158960812Y-89187916D01*
X158992902Y-89166290D01*
X159163658Y-89086666D01*
X159225841Y-89043124D01*
X158536271Y-88353553D01*
X158536270Y-88353553D01*
X157846697Y-89043124D01*
X157908883Y-89086667D01*
X157908885Y-89086668D01*
X158072833Y-89163118D01*
X158125273Y-89209290D01*
X158144425Y-89276483D01*
X158124210Y-89343365D01*
X158071044Y-89388699D01*
X158020430Y-89399500D01*
X157863400Y-89399500D01*
X157863393Y-89399501D01*
X157803786Y-89405908D01*
X157668941Y-89456202D01*
X157668934Y-89456206D01*
X157553725Y-89542452D01*
X157553722Y-89542455D01*
X157467476Y-89657664D01*
X157467472Y-89657671D01*
X157417178Y-89792517D01*
X157410771Y-89852116D01*
X157410770Y-89852127D01*
X157410770Y-89925500D01*
X157391085Y-89992539D01*
X157338281Y-90038294D01*
X157286770Y-90049500D01*
X156196846Y-90049500D01*
X156129807Y-90029815D01*
X156084052Y-89977011D01*
X156073626Y-89911617D01*
X156091835Y-89750003D01*
X156091835Y-89749996D01*
X156071639Y-89570750D01*
X156071638Y-89570745D01*
X156031558Y-89456204D01*
X156012059Y-89400478D01*
X156011444Y-89399500D01*
X155960128Y-89317830D01*
X155916086Y-89247738D01*
X155916084Y-89247736D01*
X155916083Y-89247734D01*
X155913820Y-89244896D01*
X155912929Y-89242715D01*
X155912381Y-89241842D01*
X155912534Y-89241745D01*
X155887414Y-89180209D01*
X155886770Y-89167587D01*
X155886770Y-87999999D01*
X157281495Y-87999999D01*
X157281495Y-88000000D01*
X157300557Y-88217884D01*
X157300559Y-88217894D01*
X157357164Y-88429150D01*
X157357168Y-88429159D01*
X157449603Y-88627387D01*
X157493144Y-88689571D01*
X158182716Y-88000000D01*
X158182715Y-87999999D01*
X158889823Y-87999999D01*
X158889823Y-88000000D01*
X159579394Y-88689570D01*
X159622938Y-88627385D01*
X159622939Y-88627383D01*
X159715370Y-88429164D01*
X159715375Y-88429150D01*
X159771980Y-88217894D01*
X159771982Y-88217884D01*
X159791045Y-88000000D01*
X159791045Y-87999999D01*
X159771982Y-87782115D01*
X159771980Y-87782105D01*
X159715375Y-87570849D01*
X159715371Y-87570840D01*
X159622937Y-87372614D01*
X159622936Y-87372612D01*
X159579394Y-87310428D01*
X159579394Y-87310427D01*
X158889823Y-87999999D01*
X158182715Y-87999999D01*
X157493144Y-87310428D01*
X157449603Y-87372613D01*
X157357168Y-87570840D01*
X157357164Y-87570849D01*
X157300559Y-87782105D01*
X157300557Y-87782115D01*
X157281495Y-87999999D01*
X155886770Y-87999999D01*
X155886770Y-87488826D01*
X155906455Y-87421787D01*
X155923085Y-87401149D01*
X156367359Y-86956874D01*
X157846698Y-86956874D01*
X158536270Y-87646446D01*
X158536271Y-87646446D01*
X159225841Y-86956874D01*
X159163657Y-86913333D01*
X158965429Y-86820898D01*
X158965420Y-86820894D01*
X158754164Y-86764289D01*
X158754154Y-86764287D01*
X158536271Y-86745225D01*
X158536269Y-86745225D01*
X158318385Y-86764287D01*
X158318375Y-86764289D01*
X158107119Y-86820894D01*
X158107110Y-86820898D01*
X157908883Y-86913333D01*
X157846698Y-86956874D01*
X156367359Y-86956874D01*
X156758506Y-86565727D01*
X156758511Y-86565724D01*
X156768714Y-86555520D01*
X156768716Y-86555520D01*
X156880520Y-86443716D01*
X156880520Y-86443714D01*
X156890724Y-86433511D01*
X156890728Y-86433506D01*
X158858506Y-84465728D01*
X158858511Y-84465724D01*
X158868714Y-84455520D01*
X158868716Y-84455520D01*
X158980520Y-84343716D01*
X159059577Y-84206784D01*
X159096706Y-84068216D01*
X159100500Y-84054058D01*
X159100500Y-83895943D01*
X159100500Y-81970655D01*
X159120185Y-81903616D01*
X159153373Y-81869082D01*
X159306877Y-81761598D01*
X159461598Y-81606877D01*
X159587102Y-81427639D01*
X159679575Y-81229330D01*
X159736207Y-81017977D01*
X159755026Y-80802873D01*
X159755277Y-80800002D01*
X159755277Y-80799997D01*
X159751569Y-80757618D01*
X159736207Y-80582023D01*
X159679575Y-80370670D01*
X159587102Y-80172362D01*
X159587100Y-80172359D01*
X159587099Y-80172357D01*
X159461599Y-79993124D01*
X159435927Y-79967452D01*
X159306877Y-79838402D01*
X159127639Y-79712898D01*
X159127640Y-79712898D01*
X159127638Y-79712897D01*
X158973656Y-79641094D01*
X158921217Y-79594921D01*
X158902065Y-79527728D01*
X158922281Y-79460847D01*
X158975446Y-79415512D01*
X159025703Y-79404713D01*
X160375100Y-79400858D01*
X160442194Y-79420350D01*
G37*
%TD.AperFunction*%
%TA.AperFunction,Conductor*%
G36*
X133342883Y-106127185D02*
G01*
X133351148Y-106133845D01*
X133351541Y-106133334D01*
X133357986Y-106138279D01*
X133357988Y-106138282D01*
X133483429Y-106234536D01*
X133483430Y-106234536D01*
X133483431Y-106234537D01*
X133566485Y-106268939D01*
X133620889Y-106312780D01*
X133642954Y-106379074D01*
X133625675Y-106446773D01*
X133574538Y-106494384D01*
X133519033Y-106507500D01*
X132953507Y-106507500D01*
X132886468Y-106487815D01*
X132840713Y-106435011D01*
X132830769Y-106365853D01*
X132859794Y-106302297D01*
X132906055Y-106268939D01*
X132913302Y-106265936D01*
X132989111Y-106234536D01*
X133114552Y-106138282D01*
X133114553Y-106138279D01*
X133120999Y-106133334D01*
X133123130Y-106136111D01*
X133170338Y-106110334D01*
X133196696Y-106107500D01*
X133275844Y-106107500D01*
X133342883Y-106127185D01*
G37*
%TD.AperFunction*%
%TA.AperFunction,Conductor*%
G36*
X128329011Y-79512102D02*
G01*
X128374917Y-79564776D01*
X128386270Y-79616609D01*
X128386270Y-82575000D01*
X130045640Y-82575000D01*
X130112679Y-82594685D01*
X130158434Y-82647489D01*
X130168378Y-82716647D01*
X130152997Y-82761052D01*
X130152130Y-82762552D01*
X130101539Y-82810743D01*
X130044774Y-82824500D01*
X129938400Y-82824500D01*
X129938393Y-82824501D01*
X129878786Y-82830908D01*
X129743941Y-82881202D01*
X129743934Y-82881206D01*
X129628725Y-82967452D01*
X129628722Y-82967455D01*
X129542476Y-83082664D01*
X129542472Y-83082671D01*
X129492556Y-83216505D01*
X129492179Y-83217517D01*
X129485770Y-83277127D01*
X129485770Y-83277134D01*
X129485770Y-83277135D01*
X129485770Y-83722866D01*
X129485771Y-83722873D01*
X129487262Y-83736748D01*
X129487262Y-83763239D01*
X129485770Y-83777122D01*
X129485770Y-84172866D01*
X129485771Y-84172873D01*
X129487262Y-84186748D01*
X129487262Y-84213239D01*
X129485770Y-84227122D01*
X129485770Y-84227127D01*
X129485770Y-84419669D01*
X129485771Y-84600500D01*
X129466087Y-84667539D01*
X129413283Y-84713294D01*
X129361771Y-84724500D01*
X129225097Y-84724500D01*
X129158058Y-84704815D01*
X129137416Y-84688181D01*
X129130700Y-84681465D01*
X129097215Y-84620142D01*
X129095163Y-84607686D01*
X129085368Y-84520745D01*
X129025789Y-84350478D01*
X128929816Y-84197738D01*
X128802262Y-84070184D01*
X128711043Y-84012867D01*
X128649521Y-83974210D01*
X128501849Y-83922538D01*
X128479255Y-83914632D01*
X128479254Y-83914631D01*
X128479249Y-83914630D01*
X128446383Y-83910927D01*
X128381970Y-83883859D01*
X128342416Y-83826263D01*
X128336269Y-83787707D01*
X128336269Y-83760675D01*
X128320827Y-83643371D01*
X128320825Y-83643366D01*
X128260370Y-83497414D01*
X128164194Y-83372075D01*
X128038856Y-83275899D01*
X127892904Y-83215445D01*
X127892900Y-83215444D01*
X127775600Y-83200000D01*
X127718770Y-83200000D01*
X127718770Y-83976000D01*
X127699085Y-84043039D01*
X127646281Y-84088794D01*
X127594770Y-84100000D01*
X127383039Y-84100000D01*
X127316000Y-84080315D01*
X127305724Y-84072945D01*
X127302263Y-84070185D01*
X127302262Y-84070184D01*
X127211043Y-84012867D01*
X127149521Y-83974210D01*
X127054731Y-83941042D01*
X126997954Y-83900320D01*
X126972207Y-83835367D01*
X126985663Y-83766806D01*
X127034050Y-83716403D01*
X127095685Y-83700000D01*
X127318770Y-83700000D01*
X127318770Y-83200000D01*
X127318769Y-83199999D01*
X127261946Y-83200000D01*
X127144639Y-83215443D01*
X127143352Y-83215788D01*
X127142019Y-83215788D01*
X127136581Y-83216504D01*
X127136486Y-83215788D01*
X127086051Y-83215788D01*
X127085957Y-83216505D01*
X127080518Y-83215788D01*
X127079191Y-83215789D01*
X127077907Y-83215445D01*
X126960600Y-83200000D01*
X126903770Y-83200000D01*
X126903770Y-83714337D01*
X126920009Y-83744077D01*
X126915025Y-83813769D01*
X126873153Y-83869702D01*
X126807689Y-83894119D01*
X126800531Y-83894374D01*
X126620750Y-83914630D01*
X126613953Y-83916182D01*
X126613500Y-83914200D01*
X126582460Y-83915778D01*
X126545269Y-83941042D01*
X126450478Y-83974210D01*
X126297736Y-84070185D01*
X126294276Y-84072945D01*
X126229590Y-84099355D01*
X126216961Y-84100000D01*
X125894260Y-84100000D01*
X125894258Y-84100001D01*
X125901712Y-84156627D01*
X125901714Y-84156633D01*
X125962169Y-84302586D01*
X126009826Y-84364693D01*
X126035020Y-84429862D01*
X126028492Y-84481134D01*
X126014631Y-84520747D01*
X125994435Y-84699996D01*
X125994435Y-84700003D01*
X126014631Y-84879252D01*
X126033775Y-84933964D01*
X126037336Y-85003743D01*
X126015110Y-85050403D01*
X125979234Y-85097158D01*
X125918726Y-85243237D01*
X125918725Y-85243239D01*
X125903270Y-85360638D01*
X125903270Y-85639363D01*
X125918723Y-85756753D01*
X125918726Y-85756762D01*
X125979129Y-85902589D01*
X125979234Y-85902841D01*
X126075488Y-86028282D01*
X126075490Y-86028283D01*
X126075492Y-86028286D01*
X126081235Y-86034029D01*
X126079515Y-86035748D01*
X126113453Y-86082213D01*
X126120770Y-86124177D01*
X126120770Y-86353194D01*
X126101085Y-86420233D01*
X126095146Y-86428680D01*
X126004234Y-86547157D01*
X125943726Y-86693237D01*
X125943725Y-86693239D01*
X125928270Y-86810638D01*
X125928270Y-87089363D01*
X125943723Y-87206753D01*
X125943726Y-87206762D01*
X125986665Y-87310427D01*
X126004234Y-87352841D01*
X126100488Y-87478282D01*
X126100490Y-87478283D01*
X126100492Y-87478286D01*
X126106235Y-87484029D01*
X126104515Y-87485748D01*
X126138453Y-87532213D01*
X126145770Y-87574177D01*
X126145770Y-87825822D01*
X126126085Y-87892861D01*
X126105500Y-87915238D01*
X126106234Y-87915972D01*
X126100492Y-87921713D01*
X126100488Y-87921717D01*
X126100488Y-87921718D01*
X126063258Y-87970237D01*
X126004233Y-88047160D01*
X125943726Y-88193237D01*
X125943725Y-88193239D01*
X125928270Y-88310638D01*
X125928270Y-88589363D01*
X125943723Y-88706753D01*
X125943726Y-88706762D01*
X125965813Y-88760086D01*
X126004234Y-88852841D01*
X126100488Y-88978282D01*
X126100490Y-88978283D01*
X126100492Y-88978286D01*
X126106235Y-88984029D01*
X126104515Y-88985748D01*
X126138453Y-89032213D01*
X126145770Y-89074177D01*
X126145770Y-89825822D01*
X126126085Y-89892861D01*
X126105500Y-89915238D01*
X126106234Y-89915972D01*
X126100492Y-89921713D01*
X126100488Y-89921717D01*
X126100488Y-89921718D01*
X126094705Y-89929255D01*
X126004233Y-90047160D01*
X125943726Y-90193237D01*
X125943725Y-90193239D01*
X125928270Y-90310638D01*
X125928270Y-90589363D01*
X125943723Y-90706753D01*
X125943726Y-90706762D01*
X125982346Y-90800000D01*
X126004234Y-90852841D01*
X126100488Y-90978282D01*
X126225929Y-91074536D01*
X126372008Y-91135044D01*
X126489409Y-91150500D01*
X126489410Y-91150499D01*
X126490482Y-91150641D01*
X126554379Y-91178907D01*
X126561978Y-91185899D01*
X126909951Y-91533872D01*
X126943436Y-91595195D01*
X126946270Y-91621553D01*
X126946270Y-91689573D01*
X126926585Y-91756612D01*
X126919924Y-91764877D01*
X126920435Y-91765270D01*
X126819234Y-91897157D01*
X126784831Y-91980215D01*
X126740990Y-92034618D01*
X126674696Y-92056683D01*
X126606996Y-92039404D01*
X126559386Y-91988266D01*
X126546270Y-91932762D01*
X126546270Y-91600000D01*
X126546269Y-91599999D01*
X126489446Y-91600000D01*
X126372141Y-91615442D01*
X126372136Y-91615444D01*
X126226184Y-91675899D01*
X126100845Y-91772075D01*
X126004669Y-91897413D01*
X125944214Y-92043368D01*
X125936757Y-92100000D01*
X126558473Y-92100000D01*
X126592909Y-92081195D01*
X126662601Y-92086178D01*
X126718535Y-92128048D01*
X126742954Y-92193512D01*
X126743270Y-92202360D01*
X126743271Y-92375999D01*
X126723587Y-92443039D01*
X126670783Y-92488794D01*
X126619271Y-92500000D01*
X125936760Y-92500000D01*
X125936758Y-92500001D01*
X125944212Y-92556627D01*
X125944214Y-92556633D01*
X126004669Y-92702585D01*
X126100845Y-92827924D01*
X126226183Y-92924100D01*
X126372135Y-92984554D01*
X126372139Y-92984555D01*
X126489446Y-92999999D01*
X126639482Y-92999999D01*
X126706522Y-93019683D01*
X126752277Y-93072487D01*
X126762700Y-93137916D01*
X126762474Y-93139917D01*
X126735390Y-93204323D01*
X126677784Y-93243863D01*
X126639258Y-93250000D01*
X126489446Y-93250000D01*
X126372141Y-93265442D01*
X126372136Y-93265444D01*
X126226184Y-93325899D01*
X126100845Y-93422075D01*
X126004669Y-93547413D01*
X125944214Y-93693368D01*
X125936757Y-93750000D01*
X126619270Y-93750000D01*
X126686309Y-93769685D01*
X126732064Y-93822489D01*
X126743270Y-93874000D01*
X126743270Y-94047638D01*
X126723585Y-94114677D01*
X126670781Y-94160432D01*
X126601623Y-94170376D01*
X126557006Y-94150000D01*
X125936760Y-94150000D01*
X125936758Y-94150001D01*
X125944212Y-94206627D01*
X125944214Y-94206633D01*
X126004669Y-94352585D01*
X126100845Y-94477924D01*
X126226183Y-94574100D01*
X126372135Y-94634554D01*
X126372139Y-94634555D01*
X126489446Y-94649999D01*
X126546269Y-94649998D01*
X126546270Y-94649998D01*
X126546270Y-94317237D01*
X126565955Y-94250198D01*
X126618759Y-94204443D01*
X126687917Y-94194499D01*
X126751473Y-94223524D01*
X126784831Y-94269785D01*
X126819233Y-94352840D01*
X126920436Y-94484731D01*
X126917623Y-94486888D01*
X126943373Y-94533779D01*
X126946270Y-94560426D01*
X126946270Y-94668138D01*
X126957936Y-94689503D01*
X126960770Y-94715861D01*
X126960770Y-94934138D01*
X126946270Y-94983519D01*
X126946270Y-95089573D01*
X126926585Y-95156612D01*
X126919924Y-95164877D01*
X126920435Y-95165270D01*
X126819234Y-95297157D01*
X126784831Y-95380215D01*
X126740990Y-95434618D01*
X126674696Y-95456683D01*
X126606996Y-95439404D01*
X126559386Y-95388266D01*
X126546270Y-95332762D01*
X126546270Y-95000000D01*
X126546269Y-94999999D01*
X126489446Y-95000000D01*
X126372141Y-95015442D01*
X126372136Y-95015444D01*
X126226184Y-95075899D01*
X126100845Y-95172075D01*
X126004669Y-95297413D01*
X125944214Y-95443368D01*
X125936757Y-95500000D01*
X126558473Y-95500000D01*
X126592909Y-95481195D01*
X126662601Y-95486178D01*
X126718535Y-95528048D01*
X126742954Y-95593512D01*
X126743270Y-95602361D01*
X126743270Y-95797638D01*
X126723585Y-95864677D01*
X126670781Y-95910432D01*
X126601623Y-95920376D01*
X126557006Y-95900000D01*
X125936760Y-95900000D01*
X125936758Y-95900001D01*
X125944212Y-95956627D01*
X125944214Y-95956633D01*
X126004669Y-96102585D01*
X126100845Y-96227924D01*
X126226183Y-96324100D01*
X126372135Y-96384554D01*
X126372139Y-96384555D01*
X126489446Y-96399999D01*
X126546269Y-96399998D01*
X126546270Y-96399998D01*
X126546270Y-96067237D01*
X126565955Y-96000198D01*
X126618759Y-95954443D01*
X126687917Y-95944499D01*
X126751473Y-95973524D01*
X126784831Y-96019785D01*
X126819233Y-96102840D01*
X126920436Y-96234731D01*
X126917623Y-96236888D01*
X126943373Y-96283779D01*
X126946270Y-96310426D01*
X126946270Y-96418138D01*
X126957936Y-96439503D01*
X126960770Y-96465861D01*
X126960770Y-97587595D01*
X126960769Y-97587613D01*
X126960769Y-97753319D01*
X126960768Y-97753319D01*
X126994512Y-97879249D01*
X127001693Y-97906050D01*
X127021320Y-97940044D01*
X127051605Y-97992500D01*
X127080749Y-98042980D01*
X127199619Y-98161850D01*
X127199625Y-98161855D01*
X129052144Y-100014374D01*
X129052154Y-100014385D01*
X129056484Y-100018715D01*
X129056485Y-100018716D01*
X129168289Y-100130520D01*
X129234447Y-100168716D01*
X129305220Y-100209577D01*
X129457947Y-100250500D01*
X129457948Y-100250500D01*
X130429593Y-100250500D01*
X130496632Y-100270185D01*
X130506908Y-100277555D01*
X130509741Y-100279814D01*
X130509743Y-100279816D01*
X130662483Y-100375789D01*
X130803786Y-100425233D01*
X130832750Y-100435368D01*
X130832755Y-100435369D01*
X131012001Y-100455565D01*
X131012005Y-100455565D01*
X131012009Y-100455565D01*
X131191254Y-100435369D01*
X131191257Y-100435368D01*
X131191260Y-100435368D01*
X131361527Y-100375789D01*
X131514267Y-100279816D01*
X131641821Y-100152262D01*
X131737794Y-99999522D01*
X131797373Y-99829255D01*
X131799710Y-99808516D01*
X131817570Y-99650003D01*
X131817570Y-99649996D01*
X131797374Y-99470750D01*
X131797373Y-99470745D01*
X131737793Y-99300476D01*
X131689604Y-99223784D01*
X131641821Y-99147738D01*
X131514267Y-99020184D01*
X131503122Y-99013181D01*
X131361528Y-98924211D01*
X131191259Y-98864631D01*
X131191254Y-98864630D01*
X131012009Y-98844435D01*
X131012001Y-98844435D01*
X130832755Y-98864630D01*
X130832750Y-98864631D01*
X130662481Y-98924211D01*
X130509741Y-99020185D01*
X130506908Y-99022445D01*
X130504729Y-99023334D01*
X130503847Y-99023889D01*
X130503749Y-99023734D01*
X130442222Y-99048855D01*
X130429593Y-99049500D01*
X129837102Y-99049500D01*
X129770063Y-99029815D01*
X129749421Y-99013181D01*
X128198089Y-97461849D01*
X128164604Y-97400526D01*
X128161770Y-97374168D01*
X128161770Y-96801915D01*
X128181455Y-96734876D01*
X128234259Y-96689121D01*
X128303417Y-96679177D01*
X128366973Y-96708202D01*
X128373451Y-96714234D01*
X129073591Y-97414374D01*
X129073601Y-97414385D01*
X129077931Y-97418715D01*
X129077932Y-97418716D01*
X129189736Y-97530520D01*
X129189738Y-97530521D01*
X129189742Y-97530524D01*
X129288625Y-97587613D01*
X129326668Y-97609577D01*
X129437533Y-97639283D01*
X129479394Y-97650500D01*
X129479395Y-97650500D01*
X130471783Y-97650500D01*
X130471799Y-97650501D01*
X130479395Y-97650501D01*
X130637506Y-97650501D01*
X130637509Y-97650501D01*
X130790237Y-97609577D01*
X130844517Y-97578238D01*
X130927168Y-97530520D01*
X131038972Y-97418716D01*
X131038972Y-97418714D01*
X131049176Y-97408511D01*
X131049180Y-97408506D01*
X131666958Y-96790728D01*
X131666963Y-96790724D01*
X131677166Y-96780520D01*
X131677168Y-96780520D01*
X131788972Y-96668716D01*
X131792354Y-96662856D01*
X131812062Y-96637172D01*
X131912418Y-96536818D01*
X131973741Y-96503334D01*
X132000098Y-96500500D01*
X134413331Y-96500500D01*
X134413347Y-96500501D01*
X134509447Y-96500501D01*
X134566717Y-96517317D01*
X134591874Y-96497857D01*
X134604935Y-96493566D01*
X134731785Y-96459577D01*
X134781904Y-96430639D01*
X134868716Y-96380520D01*
X134980520Y-96268716D01*
X134980520Y-96268714D01*
X134990728Y-96258507D01*
X134990730Y-96258504D01*
X135863515Y-95385718D01*
X135924836Y-95352235D01*
X135994528Y-95357219D01*
X136050461Y-95399091D01*
X136068236Y-95432447D01*
X136074210Y-95449521D01*
X136164686Y-95593512D01*
X136170184Y-95602262D01*
X136297738Y-95729816D01*
X136388080Y-95786582D01*
X136426987Y-95811029D01*
X136450478Y-95825789D01*
X136489262Y-95839360D01*
X136620745Y-95885368D01*
X136620750Y-95885369D01*
X136799996Y-95905565D01*
X136799999Y-95905565D01*
X136799999Y-95905564D01*
X136800000Y-95905565D01*
X136836890Y-95901408D01*
X136905709Y-95913461D01*
X136957089Y-95960809D01*
X136974715Y-96028419D01*
X136952990Y-96094826D01*
X136938454Y-96112309D01*
X136781333Y-96269430D01*
X136720010Y-96302915D01*
X136679769Y-96304969D01*
X136586273Y-96294435D01*
X136586266Y-96294435D01*
X136407020Y-96314630D01*
X136407015Y-96314631D01*
X136236746Y-96374211D01*
X136084007Y-96470184D01*
X135956454Y-96597737D01*
X135860481Y-96750476D01*
X135800901Y-96920745D01*
X135800900Y-96920749D01*
X135783108Y-97078664D01*
X135756041Y-97143078D01*
X135698446Y-97182633D01*
X135628609Y-97184770D01*
X135572207Y-97152462D01*
X135518929Y-97099184D01*
X135450647Y-97030902D01*
X135312748Y-96934344D01*
X135271408Y-96905397D01*
X135171411Y-96858768D01*
X135073100Y-96812925D01*
X135073096Y-96812924D01*
X135073092Y-96812922D01*
X134861747Y-96756293D01*
X134643772Y-96737223D01*
X134638356Y-96737223D01*
X134638356Y-96734959D01*
X134579344Y-96723097D01*
X134578048Y-96721841D01*
X134544382Y-96743478D01*
X134520254Y-96748028D01*
X134425793Y-96756293D01*
X134425790Y-96756293D01*
X134214447Y-96812922D01*
X134214438Y-96812926D01*
X134016131Y-96905398D01*
X134016127Y-96905400D01*
X133836891Y-97030902D01*
X133682172Y-97185621D01*
X133556670Y-97364857D01*
X133556668Y-97364861D01*
X133464196Y-97563168D01*
X133464192Y-97563177D01*
X133407563Y-97774520D01*
X133407563Y-97774524D01*
X133388493Y-97992497D01*
X133388493Y-97992502D01*
X133407563Y-98210475D01*
X133407563Y-98210479D01*
X133464192Y-98421822D01*
X133464194Y-98421826D01*
X133464195Y-98421830D01*
X133503767Y-98506692D01*
X133531652Y-98566491D01*
X133543270Y-98618896D01*
X133543270Y-104105829D01*
X133543269Y-104105847D01*
X133543269Y-104271553D01*
X133543268Y-104271553D01*
X133571466Y-104376788D01*
X133584193Y-104424284D01*
X133611132Y-104470943D01*
X133637681Y-104516928D01*
X133646025Y-104531380D01*
X133662496Y-104599280D01*
X133639644Y-104665307D01*
X133586090Y-104707940D01*
X133483430Y-104750463D01*
X133357983Y-104846722D01*
X133352241Y-104852465D01*
X133350524Y-104850748D01*
X133304034Y-104884691D01*
X133262092Y-104892000D01*
X133210448Y-104892000D01*
X133143409Y-104872315D01*
X133121032Y-104851731D01*
X133120299Y-104852465D01*
X133114556Y-104846722D01*
X133114553Y-104846720D01*
X133114552Y-104846718D01*
X132989111Y-104750464D01*
X132880715Y-104705565D01*
X132843032Y-104689956D01*
X132843030Y-104689955D01*
X132725632Y-104674500D01*
X132511042Y-104674500D01*
X132444003Y-104654815D01*
X132398248Y-104602011D01*
X132387822Y-104564383D01*
X132371639Y-104420750D01*
X132371638Y-104420745D01*
X132371442Y-104420185D01*
X132312059Y-104250478D01*
X132311458Y-104249522D01*
X132221170Y-104105829D01*
X132216086Y-104097738D01*
X132088532Y-103970184D01*
X132084342Y-103967551D01*
X131935793Y-103874211D01*
X131765524Y-103814631D01*
X131765519Y-103814630D01*
X131586274Y-103794435D01*
X131586266Y-103794435D01*
X131407020Y-103814630D01*
X131407015Y-103814631D01*
X131236746Y-103874211D01*
X131084007Y-103970184D01*
X131039395Y-104014797D01*
X130978072Y-104048282D01*
X130908380Y-104043298D01*
X130876434Y-104022766D01*
X130875161Y-104024426D01*
X130868718Y-104019482D01*
X130868716Y-104019480D01*
X130778773Y-103967552D01*
X130778772Y-103967551D01*
X130731783Y-103940422D01*
X130660851Y-103921416D01*
X130579057Y-103899499D01*
X130518211Y-103899499D01*
X130451172Y-103879814D01*
X130405417Y-103827010D01*
X130395473Y-103757852D01*
X130424498Y-103694296D01*
X130430530Y-103687818D01*
X130465713Y-103652635D01*
X130516086Y-103602262D01*
X130612059Y-103449522D01*
X130671638Y-103279255D01*
X130671637Y-103279255D01*
X130671926Y-103278432D01*
X130712648Y-103221655D01*
X130777601Y-103195908D01*
X130802850Y-103196165D01*
X130832441Y-103199500D01*
X130886268Y-103205565D01*
X130886270Y-103205565D01*
X130886274Y-103205565D01*
X131065519Y-103185369D01*
X131065522Y-103185368D01*
X131065525Y-103185368D01*
X131235792Y-103125789D01*
X131388532Y-103029816D01*
X131516086Y-102902262D01*
X131612059Y-102749522D01*
X131671638Y-102579255D01*
X131671639Y-102579249D01*
X131691835Y-102400003D01*
X131691835Y-102399996D01*
X131671639Y-102220750D01*
X131671638Y-102220745D01*
X131626297Y-102091169D01*
X131612059Y-102050478D01*
X131516086Y-101897738D01*
X131388532Y-101770184D01*
X131342460Y-101741235D01*
X131235793Y-101674211D01*
X131065524Y-101614631D01*
X131065519Y-101614630D01*
X130886274Y-101594435D01*
X130886266Y-101594435D01*
X130707020Y-101614630D01*
X130707015Y-101614631D01*
X130536746Y-101674211D01*
X130384006Y-101770185D01*
X130381173Y-101772445D01*
X130378994Y-101773334D01*
X130378112Y-101773889D01*
X130378014Y-101773734D01*
X130316487Y-101798855D01*
X130303858Y-101799500D01*
X128272940Y-101799500D01*
X128272924Y-101799499D01*
X128265328Y-101799499D01*
X128107213Y-101799499D01*
X128042721Y-101816780D01*
X127954484Y-101840423D01*
X127954479Y-101840426D01*
X127817560Y-101919475D01*
X127817552Y-101919481D01*
X127502987Y-102234046D01*
X127502984Y-102234048D01*
X127502985Y-102234049D01*
X127398248Y-102338786D01*
X127364836Y-102396658D01*
X127351254Y-102420185D01*
X127348131Y-102425594D01*
X127348130Y-102425595D01*
X127319192Y-102475717D01*
X127316080Y-102483229D01*
X127314070Y-102482396D01*
X127283647Y-102532303D01*
X127275730Y-102538920D01*
X127232990Y-102571715D01*
X127136733Y-102697160D01*
X127076226Y-102843237D01*
X127076225Y-102843239D01*
X127060770Y-102960638D01*
X127060770Y-103239363D01*
X127076223Y-103356753D01*
X127076226Y-103356762D01*
X127136734Y-103502842D01*
X127149149Y-103519021D01*
X127174344Y-103584190D01*
X127160306Y-103652635D01*
X127111492Y-103702625D01*
X127096264Y-103709862D01*
X126959807Y-103763674D01*
X126959805Y-103763675D01*
X126843715Y-103851710D01*
X126755681Y-103967798D01*
X126702232Y-104103336D01*
X126692005Y-104188512D01*
X126692005Y-104749297D01*
X126674646Y-104812570D01*
X126651411Y-104851731D01*
X126643289Y-104865420D01*
X126592150Y-104913029D01*
X126523391Y-104925433D01*
X126458840Y-104898694D01*
X126438273Y-104877632D01*
X126434193Y-104872315D01*
X126414552Y-104846718D01*
X126289111Y-104750464D01*
X126180715Y-104705565D01*
X126143032Y-104689956D01*
X126143030Y-104689955D01*
X126025631Y-104674500D01*
X125746906Y-104674500D01*
X125631505Y-104689692D01*
X125562470Y-104678926D01*
X125510215Y-104632545D01*
X125491322Y-104566708D01*
X125491374Y-104424284D01*
X125498961Y-83700000D01*
X125894257Y-83700000D01*
X126503769Y-83700000D01*
X126503770Y-83699999D01*
X126503770Y-83200000D01*
X126503769Y-83199999D01*
X126446946Y-83200000D01*
X126329641Y-83215442D01*
X126329636Y-83215444D01*
X126183684Y-83275899D01*
X126058345Y-83372075D01*
X125962169Y-83497413D01*
X125901714Y-83643368D01*
X125894257Y-83700000D01*
X125498961Y-83700000D01*
X125500453Y-79624097D01*
X125520162Y-79557067D01*
X125572983Y-79511332D01*
X125624095Y-79500146D01*
X128261916Y-79492610D01*
X128329011Y-79512102D01*
G37*
%TD.AperFunction*%
%TA.AperFunction,Conductor*%
G36*
X129405104Y-88786470D02*
G01*
X129461037Y-88828342D01*
X129485454Y-88893806D01*
X129485770Y-88902651D01*
X129485770Y-89122865D01*
X129485771Y-89122873D01*
X129487262Y-89136748D01*
X129487262Y-89163239D01*
X129485770Y-89177122D01*
X129485770Y-89572868D01*
X129485771Y-89572881D01*
X129487514Y-89589092D01*
X129487514Y-89615594D01*
X129486270Y-89627162D01*
X129486270Y-89683215D01*
X129466585Y-89750254D01*
X129424273Y-89790600D01*
X129417553Y-89794480D01*
X129367555Y-89844479D01*
X129367554Y-89844480D01*
X129255751Y-89956282D01*
X129255747Y-89956287D01*
X129207786Y-90039360D01*
X129207786Y-90039361D01*
X129176693Y-90093214D01*
X129176693Y-90093215D01*
X129135769Y-90245943D01*
X129135769Y-90245945D01*
X129135769Y-90414046D01*
X129135770Y-90414059D01*
X129135770Y-91580790D01*
X129116085Y-91647829D01*
X129099451Y-91668471D01*
X129070184Y-91697737D01*
X129070182Y-91697739D01*
X129015763Y-91784347D01*
X128963428Y-91830637D01*
X128894375Y-91841285D01*
X128830527Y-91812910D01*
X128792155Y-91754520D01*
X128786770Y-91718374D01*
X128786770Y-90995942D01*
X128782976Y-90981784D01*
X128782975Y-90981781D01*
X128767895Y-90925501D01*
X128745846Y-90843214D01*
X128745843Y-90843209D01*
X128666794Y-90706290D01*
X128666791Y-90706286D01*
X128666790Y-90706284D01*
X128554986Y-90594480D01*
X128554985Y-90594479D01*
X128550655Y-90590149D01*
X128550644Y-90590139D01*
X128498185Y-90537680D01*
X128464700Y-90476357D01*
X128469684Y-90406665D01*
X128498181Y-90362322D01*
X128794776Y-90065727D01*
X128794781Y-90065724D01*
X128804984Y-90055520D01*
X128804986Y-90055520D01*
X128916790Y-89943716D01*
X128969668Y-89852128D01*
X128974085Y-89844479D01*
X128995844Y-89806790D01*
X128995845Y-89806789D01*
X128995845Y-89806787D01*
X128995847Y-89806785D01*
X129036771Y-89654057D01*
X129036771Y-89495943D01*
X129036771Y-89488348D01*
X129036770Y-89488330D01*
X129036770Y-89103652D01*
X129056455Y-89036613D01*
X129073085Y-89015975D01*
X129274090Y-88814970D01*
X129335412Y-88781486D01*
X129405104Y-88786470D01*
G37*
%TD.AperFunction*%
%TA.AperFunction,Conductor*%
G36*
X143298536Y-88557982D02*
G01*
X143304481Y-88559575D01*
X143304485Y-88559577D01*
X143457213Y-88600500D01*
X147544070Y-88600500D01*
X147587402Y-88608317D01*
X147602986Y-88614130D01*
X147614962Y-88618597D01*
X147616287Y-88619091D01*
X147675897Y-88625500D01*
X147980304Y-88625499D01*
X148047343Y-88645183D01*
X148079570Y-88675188D01*
X148141222Y-88757544D01*
X148141225Y-88757547D01*
X148256434Y-88843793D01*
X148256441Y-88843797D01*
X148280687Y-88852840D01*
X148391287Y-88894091D01*
X148450897Y-88900500D01*
X148796642Y-88900499D01*
X148854745Y-88894253D01*
X148923504Y-88906658D01*
X148974642Y-88954268D01*
X148992000Y-89017542D01*
X148992000Y-89275822D01*
X148972315Y-89342861D01*
X148951730Y-89365238D01*
X148952464Y-89365972D01*
X148946722Y-89371713D01*
X148850463Y-89497160D01*
X148789956Y-89643237D01*
X148789955Y-89643239D01*
X148775900Y-89750003D01*
X148774500Y-89760639D01*
X148774500Y-89893679D01*
X148774501Y-89925499D01*
X148754817Y-89992539D01*
X148702013Y-90038294D01*
X148650501Y-90049500D01*
X145559367Y-90049500D01*
X145493395Y-90030494D01*
X145492314Y-90029815D01*
X145446407Y-90000969D01*
X145370476Y-89953258D01*
X145200207Y-89893678D01*
X145200202Y-89893677D01*
X145020957Y-89873482D01*
X145020949Y-89873482D01*
X144841703Y-89893677D01*
X144841698Y-89893678D01*
X144671429Y-89953258D01*
X144567945Y-90018282D01*
X144500708Y-90037282D01*
X144433873Y-90016914D01*
X144414292Y-90000969D01*
X143178761Y-88765438D01*
X143145276Y-88704115D01*
X143150260Y-88634423D01*
X143192132Y-88578490D01*
X143257596Y-88554073D01*
X143298536Y-88557982D01*
G37*
%TD.AperFunction*%
%TA.AperFunction,Conductor*%
G36*
X154741451Y-86695185D02*
G01*
X154787206Y-86747989D01*
X154797150Y-86817147D01*
X154781798Y-86861501D01*
X154762999Y-86894060D01*
X154726693Y-86956945D01*
X154685769Y-87109673D01*
X154685769Y-87109675D01*
X154685769Y-87277776D01*
X154685770Y-87277789D01*
X154685770Y-89167587D01*
X154666085Y-89234626D01*
X154658720Y-89244896D01*
X154656456Y-89247734D01*
X154560481Y-89400476D01*
X154500901Y-89570745D01*
X154500900Y-89570750D01*
X154480705Y-89749996D01*
X154480705Y-89750003D01*
X154498914Y-89911617D01*
X154486859Y-89980439D01*
X154439510Y-90031818D01*
X154375694Y-90049500D01*
X150534500Y-90049500D01*
X150467461Y-90029815D01*
X150421706Y-89977011D01*
X150410500Y-89925501D01*
X150410499Y-89802362D01*
X150430183Y-89735322D01*
X150482987Y-89689567D01*
X150552145Y-89679623D01*
X150596766Y-89700000D01*
X151217010Y-89700000D01*
X151217011Y-89699998D01*
X151209557Y-89643372D01*
X151209555Y-89643366D01*
X151149100Y-89497414D01*
X151052924Y-89372075D01*
X150927586Y-89275899D01*
X150781634Y-89215445D01*
X150781630Y-89215444D01*
X150664330Y-89200000D01*
X150607500Y-89200000D01*
X150607500Y-89532762D01*
X150587815Y-89599801D01*
X150535011Y-89645556D01*
X150465853Y-89655500D01*
X150402297Y-89626475D01*
X150368939Y-89580215D01*
X150345964Y-89524748D01*
X150334536Y-89497159D01*
X150334535Y-89497158D01*
X150334535Y-89497157D01*
X150233335Y-89365270D01*
X150236111Y-89363139D01*
X150210334Y-89315931D01*
X150207500Y-89289573D01*
X150207500Y-89181860D01*
X150195834Y-89160496D01*
X150193000Y-89134138D01*
X150193000Y-88706092D01*
X150212685Y-88639053D01*
X150265489Y-88593298D01*
X150334647Y-88583354D01*
X150398203Y-88612379D01*
X150404681Y-88618411D01*
X150411270Y-88625000D01*
X150571598Y-88625000D01*
X150571614Y-88624999D01*
X150631142Y-88618598D01*
X150631146Y-88618597D01*
X150766895Y-88567966D01*
X150836587Y-88562982D01*
X150897910Y-88596467D01*
X150924790Y-88636696D01*
X150975899Y-88760085D01*
X151072075Y-88885424D01*
X151197414Y-88981600D01*
X151343366Y-89042055D01*
X151343372Y-89042057D01*
X151399998Y-89049511D01*
X151400000Y-89049510D01*
X151400000Y-88366999D01*
X151419685Y-88299960D01*
X151472489Y-88254205D01*
X151523996Y-88242999D01*
X151697638Y-88242999D01*
X151764677Y-88262684D01*
X151810432Y-88315488D01*
X151820376Y-88384646D01*
X151800000Y-88429263D01*
X151800000Y-89049510D01*
X151800001Y-89049511D01*
X151856627Y-89042057D01*
X151856633Y-89042055D01*
X152002585Y-88981600D01*
X152127924Y-88885424D01*
X152224100Y-88760086D01*
X152284554Y-88614134D01*
X152284555Y-88614130D01*
X152299999Y-88496830D01*
X152300000Y-88496816D01*
X152300000Y-88440000D01*
X151967237Y-88440000D01*
X151900198Y-88420315D01*
X151854443Y-88367511D01*
X151844499Y-88298353D01*
X151873524Y-88234797D01*
X151919785Y-88201439D01*
X151939586Y-88193237D01*
X152002841Y-88167036D01*
X152128282Y-88070782D01*
X152128283Y-88070779D01*
X152134729Y-88065834D01*
X152136860Y-88068611D01*
X152184068Y-88042834D01*
X152210426Y-88040000D01*
X152299999Y-88040000D01*
X152299999Y-87983177D01*
X152284555Y-87865871D01*
X152284475Y-87865569D01*
X152284475Y-87865256D01*
X152283495Y-87857812D01*
X152284475Y-87857682D01*
X152284475Y-87807384D01*
X152283983Y-87807320D01*
X152284475Y-87803575D01*
X152284476Y-87801379D01*
X152285040Y-87799271D01*
X152285044Y-87799262D01*
X152300500Y-87681861D01*
X152300499Y-87168140D01*
X152292803Y-87109675D01*
X152289640Y-87085647D01*
X152300406Y-87016611D01*
X152307576Y-87003506D01*
X152325789Y-86974522D01*
X152377365Y-86827127D01*
X152385366Y-86804262D01*
X152385369Y-86804250D01*
X152387469Y-86785615D01*
X152414536Y-86721201D01*
X152472132Y-86681647D01*
X152510689Y-86675500D01*
X154674412Y-86675500D01*
X154741451Y-86695185D01*
G37*
%TD.AperFunction*%
%TA.AperFunction,Conductor*%
G36*
X127700543Y-88710595D02*
G01*
X127748154Y-88761732D01*
X127761270Y-88817237D01*
X127761270Y-89149999D01*
X127797589Y-89186318D01*
X127795249Y-89188657D01*
X127824564Y-89222488D01*
X127835770Y-89273999D01*
X127835770Y-89274902D01*
X127816085Y-89341941D01*
X127799451Y-89362583D01*
X127558451Y-89603583D01*
X127497128Y-89637068D01*
X127427436Y-89632084D01*
X127371503Y-89590212D01*
X127347086Y-89524748D01*
X127346770Y-89515902D01*
X127346770Y-89215861D01*
X127361270Y-89166479D01*
X127361270Y-89060426D01*
X127380955Y-88993387D01*
X127387624Y-88985130D01*
X127387104Y-88984731D01*
X127447011Y-88906658D01*
X127488306Y-88852841D01*
X127522709Y-88769785D01*
X127566550Y-88715381D01*
X127632844Y-88693316D01*
X127700543Y-88710595D01*
G37*
%TD.AperFunction*%
%TA.AperFunction,Conductor*%
G36*
X128494660Y-85749344D02*
G01*
X128519069Y-85768305D01*
X128556284Y-85805520D01*
X128556286Y-85805521D01*
X128556290Y-85805524D01*
X128663182Y-85867237D01*
X128693216Y-85884577D01*
X128805019Y-85914534D01*
X128845942Y-85925500D01*
X128845943Y-85925500D01*
X129361770Y-85925500D01*
X129428809Y-85945185D01*
X129474564Y-85997989D01*
X129485770Y-86049500D01*
X129485770Y-86422865D01*
X129485771Y-86422873D01*
X129487262Y-86436748D01*
X129487262Y-86463239D01*
X129485770Y-86477122D01*
X129485770Y-86872866D01*
X129485771Y-86872873D01*
X129487262Y-86886748D01*
X129487261Y-86913244D01*
X129485872Y-86926169D01*
X129459137Y-86990721D01*
X129424582Y-87020306D01*
X129296113Y-87094477D01*
X129296108Y-87094481D01*
X128420351Y-87970237D01*
X128359028Y-88003722D01*
X128289336Y-87998738D01*
X128234295Y-87958044D01*
X128206695Y-87922076D01*
X128081356Y-87825899D01*
X128053982Y-87814561D01*
X127999578Y-87770721D01*
X127977513Y-87704427D01*
X127994792Y-87636727D01*
X128045929Y-87589116D01*
X128053982Y-87585439D01*
X128081356Y-87574100D01*
X128206694Y-87477924D01*
X128302870Y-87352586D01*
X128363325Y-87206631D01*
X128370782Y-87150000D01*
X127688270Y-87150000D01*
X127621231Y-87130315D01*
X127575476Y-87077511D01*
X127564270Y-87026001D01*
X127564269Y-86852362D01*
X127583953Y-86785322D01*
X127636757Y-86739567D01*
X127705915Y-86729623D01*
X127750534Y-86750000D01*
X128370780Y-86750000D01*
X128370781Y-86749998D01*
X128363327Y-86693372D01*
X128363325Y-86693366D01*
X128302870Y-86547414D01*
X128206694Y-86422075D01*
X128081357Y-86325900D01*
X128077733Y-86323808D01*
X128075286Y-86321242D01*
X128074911Y-86320954D01*
X128074955Y-86320895D01*
X128029518Y-86273240D01*
X128016296Y-86204633D01*
X128042264Y-86139768D01*
X128064248Y-86118045D01*
X128181693Y-86027926D01*
X128277868Y-85902589D01*
X128316826Y-85808534D01*
X128360667Y-85754131D01*
X128426961Y-85732065D01*
X128494660Y-85749344D01*
G37*
%TD.AperFunction*%
%TA.AperFunction,Conductor*%
G36*
X139965455Y-85485834D02*
G01*
X140107011Y-85535367D01*
X140107012Y-85535367D01*
X140107015Y-85535368D01*
X140193939Y-85545161D01*
X140258350Y-85572226D01*
X140267735Y-85580700D01*
X141871596Y-87184561D01*
X141905081Y-87245884D01*
X141900097Y-87315576D01*
X141858225Y-87371509D01*
X141792761Y-87395926D01*
X141751821Y-87392017D01*
X141745873Y-87390423D01*
X141593145Y-87349499D01*
X141435031Y-87349499D01*
X141427435Y-87349499D01*
X141427419Y-87349500D01*
X139916430Y-87349500D01*
X139849391Y-87329815D01*
X139803636Y-87277011D01*
X139793692Y-87207853D01*
X139796653Y-87193414D01*
X139800501Y-87179057D01*
X139800501Y-87020943D01*
X139800501Y-87013348D01*
X139800500Y-87013330D01*
X139800500Y-85602875D01*
X139820185Y-85535836D01*
X139872989Y-85490081D01*
X139942147Y-85480137D01*
X139965455Y-85485834D01*
G37*
%TD.AperFunction*%
%TA.AperFunction,Conductor*%
G36*
X127675543Y-85760595D02*
G01*
X127723154Y-85811732D01*
X127736270Y-85867237D01*
X127736270Y-86209409D01*
X127758436Y-86250003D01*
X127761270Y-86276361D01*
X127761270Y-86582762D01*
X127741585Y-86649801D01*
X127688781Y-86695556D01*
X127619623Y-86705500D01*
X127556067Y-86676475D01*
X127522709Y-86630215D01*
X127491769Y-86555520D01*
X127488306Y-86547159D01*
X127488305Y-86547158D01*
X127488305Y-86547157D01*
X127387105Y-86415270D01*
X127389881Y-86413139D01*
X127364104Y-86365931D01*
X127361270Y-86339573D01*
X127361270Y-86240589D01*
X127339104Y-86199996D01*
X127336270Y-86173638D01*
X127336270Y-86110426D01*
X127355955Y-86043387D01*
X127362624Y-86035130D01*
X127362104Y-86034731D01*
X127445919Y-85925500D01*
X127463306Y-85902841D01*
X127497709Y-85819785D01*
X127541550Y-85765381D01*
X127607844Y-85743316D01*
X127675543Y-85760595D01*
G37*
%TD.AperFunction*%
%TD*%
M02*
