%TF.GenerationSoftware,KiCad,Pcbnew,8.0.4*%
%TF.CreationDate,2025-10-30T08:56:40-04:00*%
%TF.ProjectId,Official Schematic,4f666669-6369-4616-9c20-536368656d61,rev?*%
%TF.SameCoordinates,Original*%
%TF.FileFunction,Legend,Top*%
%TF.FilePolarity,Positive*%
%FSLAX46Y46*%
G04 Gerber Fmt 4.6, Leading zero omitted, Abs format (unit mm)*
G04 Created by KiCad (PCBNEW 8.0.4) date 2025-10-30 08:56:40*
%MOMM*%
%LPD*%
G01*
G04 APERTURE LIST*
%ADD10C,0.120000*%
%ADD11C,0.127000*%
%ADD12C,0.200000*%
%ADD13C,0.152400*%
%ADD14C,0.100000*%
%ADD15C,0.150000*%
G04 APERTURE END LIST*
D10*
%TO.C,MISO1*%
X145450000Y-80800000D02*
G75*
G02*
X143550000Y-80800000I-950000J0D01*
G01*
X143550000Y-80800000D02*
G75*
G02*
X145450000Y-80800000I950000J0D01*
G01*
%TO.C,J1*%
X133833770Y-109032500D02*
X134853770Y-109032500D01*
X133833770Y-113282500D02*
X133833770Y-109032500D01*
X134853770Y-109032500D02*
X134853770Y-110632500D01*
X134853770Y-110632500D02*
X136133770Y-110632500D01*
X135553770Y-116852500D02*
X140233770Y-116852500D01*
X136133770Y-110632500D02*
X136133770Y-107742500D01*
X140933770Y-109032500D02*
X140933770Y-110632500D01*
X140933770Y-110632500D02*
X139653770Y-110632500D01*
X141953770Y-109032500D02*
X140933770Y-109032500D01*
X141953770Y-113282500D02*
X141953770Y-109032500D01*
%TO.C,GND1*%
X131136270Y-115800000D02*
G75*
G02*
X129236270Y-115800000I-950000J0D01*
G01*
X129236270Y-115800000D02*
G75*
G02*
X131136270Y-115800000I950000J0D01*
G01*
%TO.C,MOSI1*%
X152036270Y-80800000D02*
G75*
G02*
X150136270Y-80800000I-950000J0D01*
G01*
X150136270Y-80800000D02*
G75*
G02*
X152036270Y-80800000I950000J0D01*
G01*
%TO.C,TP1*%
X135593770Y-97992500D02*
G75*
G02*
X133693770Y-97992500I-950000J0D01*
G01*
X133693770Y-97992500D02*
G75*
G02*
X135593770Y-97992500I950000J0D01*
G01*
%TO.C,J4*%
X155190000Y-108910000D02*
X155190000Y-110160000D01*
X155190000Y-110160000D02*
X156440000Y-110160000D01*
X155290000Y-108100000D02*
X155290000Y-108400000D01*
X155290000Y-108400000D02*
X155490000Y-108400000D01*
X155390000Y-108100000D02*
X155390000Y-108400000D01*
X155490000Y-95740000D02*
X155490000Y-109860000D01*
X155490000Y-107300000D02*
X156100000Y-107300000D01*
X155490000Y-108100000D02*
X155290000Y-108100000D01*
X155490000Y-109860000D02*
X160210000Y-109860000D01*
X156100000Y-96350000D02*
X156100000Y-98300000D01*
X156100000Y-98300000D02*
X155490000Y-98300000D01*
X156100000Y-107300000D02*
X156100000Y-109250000D01*
X156100000Y-109250000D02*
X159600000Y-109250000D01*
X156800000Y-95740000D02*
X156800000Y-96350000D01*
X156800000Y-109860000D02*
X156800000Y-109250000D01*
X158100000Y-95740000D02*
X158100000Y-96350000D01*
X158100000Y-109860000D02*
X158100000Y-109250000D01*
X159100000Y-98700000D02*
X159600000Y-98700000D01*
X159100000Y-98900000D02*
X159100000Y-98700000D01*
X159100000Y-100700000D02*
X159600000Y-100700000D01*
X159100000Y-100900000D02*
X159100000Y-100700000D01*
X159100000Y-102700000D02*
X159600000Y-102700000D01*
X159100000Y-102900000D02*
X159100000Y-102700000D01*
X159100000Y-104700000D02*
X159600000Y-104700000D01*
X159100000Y-104900000D02*
X159100000Y-104700000D01*
X159100000Y-106700000D02*
X159600000Y-106700000D01*
X159100000Y-106900000D02*
X159100000Y-106700000D01*
X159600000Y-96350000D02*
X156100000Y-96350000D01*
X159600000Y-98800000D02*
X159100000Y-98800000D01*
X159600000Y-98900000D02*
X159100000Y-98900000D01*
X159600000Y-100800000D02*
X159100000Y-100800000D01*
X159600000Y-100900000D02*
X159100000Y-100900000D01*
X159600000Y-102800000D02*
X159100000Y-102800000D01*
X159600000Y-102900000D02*
X159100000Y-102900000D01*
X159600000Y-104800000D02*
X159100000Y-104800000D01*
X159600000Y-104900000D02*
X159100000Y-104900000D01*
X159600000Y-106800000D02*
X159100000Y-106800000D01*
X159600000Y-106900000D02*
X159100000Y-106900000D01*
X159600000Y-109250000D02*
X159600000Y-96350000D01*
X160210000Y-95740000D02*
X155490000Y-95740000D01*
X160210000Y-109860000D02*
X160210000Y-95740000D01*
D11*
%TO.C,S1*%
X157597770Y-94150000D02*
X157597770Y-90650000D01*
X160724770Y-90650000D02*
X160724770Y-91550000D01*
X160724770Y-93250000D02*
X160724770Y-94150000D01*
D12*
X158536270Y-95400000D02*
G75*
G02*
X158336270Y-95400000I-100000J0D01*
G01*
X158336270Y-95400000D02*
G75*
G02*
X158536270Y-95400000I100000J0D01*
G01*
D11*
%TO.C,U1*%
X126812005Y-105205000D02*
X126812005Y-104400000D01*
X126812005Y-107400000D02*
X126812005Y-106595000D01*
X129812005Y-105205000D02*
X129812005Y-104400000D01*
X129812005Y-107400000D02*
X129812005Y-106595000D01*
D12*
X127212005Y-108295000D02*
G75*
G02*
X127012005Y-108295000I-100000J0D01*
G01*
X127012005Y-108295000D02*
G75*
G02*
X127212005Y-108295000I100000J0D01*
G01*
D10*
%TO.C,J3*%
X155176270Y-116010000D02*
X155176270Y-117260000D01*
X155176270Y-117260000D02*
X156426270Y-117260000D01*
X155276270Y-115200000D02*
X155276270Y-115500000D01*
X155276270Y-115500000D02*
X155476270Y-115500000D01*
X155376270Y-115200000D02*
X155376270Y-115500000D01*
X155476270Y-110840000D02*
X155476270Y-116960000D01*
X155476270Y-114400000D02*
X156086270Y-114400000D01*
X155476270Y-115200000D02*
X155276270Y-115200000D01*
X155476270Y-116960000D02*
X160196270Y-116960000D01*
X156086270Y-111450000D02*
X156086270Y-113400000D01*
X156086270Y-113400000D02*
X155476270Y-113400000D01*
X156086270Y-114400000D02*
X156086270Y-116350000D01*
X156086270Y-116350000D02*
X159586270Y-116350000D01*
X156786270Y-110840000D02*
X156786270Y-111450000D01*
X156786270Y-116960000D02*
X156786270Y-116350000D01*
X158086270Y-110840000D02*
X158086270Y-111450000D01*
X158086270Y-116960000D02*
X158086270Y-116350000D01*
X159086270Y-113800000D02*
X159586270Y-113800000D01*
X159086270Y-114000000D02*
X159086270Y-113800000D01*
X159586270Y-111450000D02*
X156086270Y-111450000D01*
X159586270Y-113900000D02*
X159086270Y-113900000D01*
X159586270Y-114000000D02*
X159086270Y-114000000D01*
X159586270Y-116350000D02*
X159586270Y-111450000D01*
X160196270Y-110840000D02*
X155476270Y-110840000D01*
X160196270Y-116960000D02*
X160196270Y-110840000D01*
D13*
%TO.C,U2*%
X137793570Y-102003300D02*
X137488770Y-102003300D01*
X138403170Y-102003300D02*
X137793570Y-102003300D01*
X138707970Y-102003300D02*
X138403170Y-102003300D01*
D14*
X138403170Y-102003300D02*
G75*
G02*
X137793570Y-102003300I-304800J0D01*
G01*
D10*
%TO.C,U4*%
X129566270Y-79950000D02*
X129566270Y-82705000D01*
X129566270Y-91195000D02*
X129566270Y-88445000D01*
X131366270Y-79950000D02*
X129566270Y-79950000D01*
X131391270Y-91195000D02*
X129566270Y-91195000D01*
X135281270Y-79955000D02*
X137106270Y-79955000D01*
X135281270Y-91195000D02*
X137106270Y-91195000D01*
X137106270Y-79955000D02*
X137106270Y-82705000D01*
X137106270Y-91195000D02*
X137106270Y-88445000D01*
X129576270Y-83475000D02*
X129246270Y-83715000D01*
X129246270Y-83235000D01*
X129576270Y-83475000D01*
G36*
X129576270Y-83475000D02*
G01*
X129246270Y-83715000D01*
X129246270Y-83235000D01*
X129576270Y-83475000D01*
G37*
D13*
%TO.C,D2*%
X152158409Y-94821234D02*
X152158409Y-95165968D01*
X154114209Y-95165968D02*
X154114209Y-94821234D01*
D10*
%TO.C,SCX1*%
X155150000Y-80800000D02*
G75*
G02*
X153250000Y-80800000I-950000J0D01*
G01*
X153250000Y-80800000D02*
G75*
G02*
X155150000Y-80800000I950000J0D01*
G01*
%TO.C,3.3V1*%
X159486270Y-88000000D02*
G75*
G02*
X157586270Y-88000000I-950000J0D01*
G01*
X157586270Y-88000000D02*
G75*
G02*
X159486270Y-88000000I950000J0D01*
G01*
%TO.C,J5*%
X145513770Y-113812500D02*
X145513770Y-112262500D01*
X145513770Y-113812500D02*
X145813770Y-113812500D01*
X145813770Y-116612500D02*
X145813770Y-113812500D01*
X147963770Y-110562500D02*
X148763770Y-110562500D01*
X148363770Y-111012500D02*
X147963770Y-110562500D01*
X148763770Y-110562500D02*
X148363770Y-111012500D01*
X153513770Y-113812500D02*
X153813770Y-113812500D01*
X153513770Y-116612500D02*
X153513770Y-113812500D01*
X153813770Y-113812500D02*
X153813770Y-112262500D01*
%TO.C,D1*%
X146287500Y-101727500D02*
X148572500Y-101727500D01*
X148572500Y-100257500D02*
X146287500Y-100257500D01*
X148572500Y-101727500D02*
X148572500Y-100257500D01*
D11*
%TO.C,U3*%
X147623770Y-86000000D02*
X147623770Y-86055000D01*
X147623770Y-86000000D02*
X148178770Y-86000000D01*
X147623770Y-88445000D02*
X147623770Y-88500000D01*
X147623770Y-88500000D02*
X148178770Y-88500000D01*
X150068770Y-86000000D02*
X150623770Y-86000000D01*
X150068770Y-88500000D02*
X150623770Y-88500000D01*
X150623770Y-86000000D02*
X150623770Y-86055000D01*
X150623770Y-88445000D02*
X150623770Y-88500000D01*
D15*
X147198770Y-86350000D02*
G75*
G02*
X147048770Y-86350000I-75000J0D01*
G01*
X147048770Y-86350000D02*
G75*
G02*
X147198770Y-86350000I75000J0D01*
G01*
D10*
%TO.C,CSB1*%
X159450000Y-80800000D02*
G75*
G02*
X157550000Y-80800000I-950000J0D01*
G01*
X157550000Y-80800000D02*
G75*
G02*
X159450000Y-80800000I950000J0D01*
G01*
%TD*%
M02*
